<svg width="26" height="26" viewBox="0 0 26 26" fill="none" xmlns="http://www.w3.org/2000/svg">
<g clip-path="url(#clip0_113_628)">
<path d="M22.75 0H3.25C2.38805 0 1.5614 0.34241 0.951903 0.951903C0.34241 1.5614 0 2.38805 0 3.25L0 24.9153C9.55578e-06 25.1228 0.0592806 25.3259 0.170836 25.5008C0.282392 25.6757 0.441589 25.815 0.629687 25.9025C0.77283 25.9666 0.927859 25.9998 1.08469 26C1.34241 25.9996 1.59156 25.9074 1.7875 25.74L8.15344 20.2841C8.74263 19.7782 9.49347 19.5001 10.27 19.5H22.75C23.612 19.5 24.4386 19.1576 25.0481 18.5481C25.6576 17.9386 26 17.112 26 16.25V3.25C26 2.38805 25.6576 1.5614 25.0481 0.951903C24.4386 0.34241 23.612 0 22.75 0ZM23.8347 16.25C23.8336 16.5373 23.719 16.8126 23.5158 17.0158C23.3126 17.219 23.0373 17.3336 22.75 17.3347H10.27C8.97676 17.3354 7.72627 17.7978 6.74375 18.6388L2.16531 22.5631V3.25C2.16638 2.96265 2.28101 2.68738 2.48419 2.48419C2.68738 2.28101 2.96265 2.16638 3.25 2.16531H22.75C23.0373 2.16638 23.3126 2.28101 23.5158 2.48419C23.719 2.68738 23.8336 2.96265 23.8347 3.25V16.25Z" fill="white"/>
<path d="M18.4153 6.37406H7.58463C7.43688 6.365 7.28883 6.38629 7.14961 6.4366C7.0104 6.48691 6.88295 6.56519 6.77512 6.66661C6.66729 6.76803 6.58136 6.89045 6.52263 7.02634C6.46389 7.16222 6.43359 7.30868 6.43359 7.45671C6.43359 7.60474 6.46389 7.75121 6.52263 7.88709C6.58136 8.02297 6.66729 8.14539 6.77512 8.24681C6.88295 8.34823 7.0104 8.42651 7.14961 8.47683C7.28883 8.52714 7.43688 8.54842 7.58463 8.53937H18.4153C18.563 8.54842 18.7111 8.52714 18.8503 8.47683C18.9895 8.42651 19.1169 8.34823 19.2248 8.24681C19.3326 8.14539 19.4185 8.02297 19.4773 7.88709C19.536 7.75121 19.5663 7.60474 19.5663 7.45671C19.5663 7.30868 19.536 7.16222 19.4773 7.02634C19.4185 6.89045 19.3326 6.76803 19.2248 6.66661C19.1169 6.56519 18.9895 6.48691 18.8503 6.4366C18.7111 6.38629 18.563 6.365 18.4153 6.37406Z" fill="white"/>
<path d="M18.4153 10.7087H7.58463C7.43688 10.6997 7.28883 10.721 7.14961 10.7713C7.0104 10.8216 6.88295 10.8999 6.77512 11.0013C6.66729 11.1027 6.58136 11.2251 6.52263 11.361C6.46389 11.4969 6.43359 11.6434 6.43359 11.7914C6.43359 11.9394 6.46389 12.0859 6.52263 12.2218C6.58136 12.3577 6.66729 12.4801 6.77512 12.5815C6.88295 12.6829 7.0104 12.7612 7.14961 12.8115C7.28883 12.8618 7.43688 12.8831 7.58463 12.8741H18.4153C18.563 12.8831 18.7111 12.8618 18.8503 12.8115C18.9895 12.7612 19.1169 12.6829 19.2248 12.5815C19.3326 12.4801 19.4185 12.3577 19.4773 12.2218C19.536 12.0859 19.5663 11.9394 19.5663 11.7914C19.5663 11.6434 19.536 11.4969 19.4773 11.361C19.4185 11.2251 19.3326 11.1027 19.2248 11.0013C19.1169 10.8999 18.9895 10.8216 18.8503 10.7713C18.7111 10.721 18.563 10.6997 18.4153 10.7087Z" fill="white"/>
</g>
<defs>
<clipPath id="clip0_113_628">
<rect width="26" height="26" fill="white"/>
</clipPath>
</defs>
</svg>
