<svg width="55" height="55" viewBox="0 0 55 55" fill="none" xmlns="http://www.w3.org/2000/svg">
<path fill-rule="evenodd" clip-rule="evenodd" d="M43.936 49.373C39.3356 52.9035 33.5883 55 27.3541 55C12.2469 55 0 42.6879 0 27.5C0 12.3122 12.2469 0 27.3541 0C42.4614 0 54.7083 12.3122 54.7083 27.5C54.7083 33.7052 52.6639 39.4304 49.2153 44.0321L40.731 35.5565C42.2156 33.1578 43.0206 30.3706 43.0206 27.5C43.0206 23.4554 41.4223 19.5766 38.5778 16.7166C35.733 13.8567 31.8746 12.25 27.8515 12.25V17.9708C30.3654 17.9708 32.7764 18.9748 34.5538 20.7618C36.3315 22.5489 37.3303 24.9727 37.3303 27.5C37.3303 30.0273 36.3315 32.4511 34.5538 34.2382C32.7764 36.0253 30.3654 37.0291 27.8515 37.0291V42.7501C30.4938 42.7501 33.0653 42.057 35.3249 40.7707L43.936 49.373ZM27.8515 49.2499C22.1136 49.2499 16.6108 46.9585 12.5535 42.8797C8.4962 38.8005 6.21685 33.2685 6.21685 27.5C6.21685 21.7315 8.4962 16.1993 12.5535 12.1204C16.6108 8.04152 22.1136 5.74999 27.8515 5.74999V12.0346C23.7716 12.0346 19.8587 13.664 16.9738 16.5643C14.0889 19.4646 12.4681 23.3983 12.4681 27.5C12.4681 31.6017 14.0889 35.5352 16.9738 38.4358C19.8587 41.3361 23.7716 42.9655 27.8515 42.9655V49.2499ZM27.8515 36.9999C25.3453 36.9999 22.9418 35.9991 21.1696 34.2175C19.3975 32.4359 18.4019 30.0196 18.4019 27.5C18.4019 24.9804 19.3975 22.5641 21.1696 20.7825C22.9418 19.0009 25.3453 18 27.8515 18V27.5V36.9999Z" fill="#FF4261"/>
</svg>
