<svg width="268" height="135" viewBox="0 0 268 135" fill="none" xmlns="http://www.w3.org/2000/svg">
<rect width="268" height="135" rx="20" fill="#2D2D2D"/>
<path d="M45.0004 51.0003C48.4519 51.0003 51.3977 49.7792 53.8388 47.3379C56.2802 44.8967 57.5011 41.9508 57.5011 38.4999C57.5011 35.0495 56.2802 32.1035 53.8388 29.6617C51.3969 27.2206 48.4509 26 45.0004 26C41.5499 26 38.6035 27.2206 36.1624 29.6617C33.7208 32.1035 32.5 35.0493 32.5 38.4999C32.5 41.9508 33.7208 44.8967 36.1624 47.3379C38.6042 49.7792 41.5498 51.0003 45.0004 51.0003Z" fill="#E7E7E7"/>
<path d="M67.8029 64.2C67.7267 63.1044 67.5746 61.9214 67.3472 60.6517C67.1193 59.382 66.8314 58.2052 66.4841 57.1196C66.1368 56.0349 65.6701 54.9768 65.0842 53.9458C64.4984 52.915 63.8257 52.0363 63.0657 51.3089C62.3057 50.5819 61.3781 50.0017 60.283 49.5678C59.1865 49.1339 57.9765 48.9166 56.6527 48.9166C56.4576 48.9166 56.0017 49.1499 55.2855 49.6166C54.5699 50.0833 53.7614 50.6042 52.8608 51.1795C51.9603 51.7538 50.7877 52.2751 49.3452 52.741C47.9019 53.2077 46.4536 53.4411 44.9991 53.4411C43.5451 53.4411 42.0966 53.2077 40.6536 52.741C39.2107 52.2751 38.0385 51.7538 37.1379 51.1795C36.2374 50.6042 35.4291 50.0834 34.7131 49.6166C33.9967 49.1499 33.5412 48.9166 33.3459 48.9166C32.0221 48.9166 30.8122 49.1339 29.7164 49.5678C28.6203 50.0017 27.6927 50.5823 26.933 51.3089C26.1735 52.0363 25.5007 52.915 24.915 53.9458C24.3293 54.9768 23.8627 56.0353 23.5154 57.1196C23.1682 58.2052 22.8806 59.382 22.6528 60.6517C22.4247 61.9214 22.2728 63.1036 22.1968 64.2C22.1209 65.2964 22.083 66.4195 22.083 67.5697C22.083 70.1734 22.8753 72.2301 24.4594 73.7385C26.0437 75.2462 28.149 76 30.7748 76H59.2259C61.8515 76 63.9565 75.2462 65.5411 73.7385C67.1261 72.2301 67.9178 70.1737 67.9178 67.5697C67.9176 66.4195 67.8797 65.2964 67.8029 64.2Z" fill="#E7E7E7"/>
<rect x="84" y="42" width="169" height="14" rx="7" fill="#5C5C5C"/>
<rect x="19" y="90" width="234" height="12" rx="6" fill="#5C5C5C"/>
<rect x="84" y="65" width="79" height="12" rx="6" fill="#5C5C5C"/>
<rect x="174" y="65" width="79" height="12" rx="6" fill="#5C5C5C"/>
<path d="M89.835 35.18C88.865 35.18 87.975 34.955 87.165 34.505C86.365 34.055 85.73 33.44 85.26 32.66C84.8 31.87 84.57 31 84.57 30.05C84.57 29.1 84.805 28.235 85.275 27.455C85.745 26.665 86.38 26.045 87.18 25.595C87.99 25.145 88.88 24.92 89.85 24.92C90.79 24.92 91.64 25.14 92.4 25.58C93.17 26.01 93.775 26.61 94.215 27.38L92.685 28.46C91.985 27.35 91.04 26.795 89.85 26.795C89.24 26.795 88.69 26.935 88.2 27.215C87.72 27.495 87.34 27.885 87.06 28.385C86.79 28.875 86.655 29.435 86.655 30.065C86.655 30.695 86.79 31.255 87.06 31.745C87.34 32.235 87.72 32.62 88.2 32.9C88.69 33.17 89.24 33.305 89.85 33.305C91.04 33.305 91.985 32.75 92.685 31.64L94.215 32.72C93.785 33.49 93.185 34.095 92.415 34.535C91.645 34.965 90.785 35.18 89.835 35.18ZM95.9359 25.1H97.9609V28.895H102.341V25.1H104.366V35H102.341V30.725H97.9609V35H95.9359V25.1ZM115.119 24.92V35H113.094V28.865L107.289 35.18H106.629V25.1H108.654V31.175L114.444 24.92H115.119ZM127.071 24.92V35H125.046V29.72L122.556 32.84H121.896L119.406 29.72V35H117.381V24.92H118.041L122.226 30.275L126.411 24.92H127.071ZM135.184 33.71H131.134L130.579 35H128.404L132.829 24.92H133.504L137.914 35H135.739L135.184 33.71ZM133.159 28.7L131.839 32.045H134.479L133.159 28.7ZM147.546 24.92C148.476 24.92 149.331 25.145 150.111 25.595C150.901 26.045 151.521 26.665 151.971 27.455C152.431 28.235 152.661 29.1 152.661 30.05C152.661 31 152.431 31.87 151.971 32.66C151.511 33.44 150.891 34.055 150.111 34.505C149.331 34.955 148.476 35.18 147.546 35.18C146.676 35.18 145.881 34.99 145.161 34.61C144.441 34.22 143.851 33.69 143.391 33.02C142.931 32.34 142.651 31.575 142.551 30.725H141.291V35H139.266V25.1H141.291V28.895H142.626C142.786 28.125 143.096 27.44 143.556 26.84C144.026 26.23 144.606 25.76 145.296 25.43C145.986 25.09 146.736 24.92 147.546 24.92ZM147.546 33.305C148.126 33.305 148.646 33.165 149.106 32.885C149.566 32.605 149.926 32.22 150.186 31.73C150.446 31.24 150.576 30.68 150.576 30.05C150.576 29.42 150.446 28.86 150.186 28.37C149.926 27.88 149.566 27.495 149.106 27.215C148.646 26.935 148.126 26.795 147.546 26.795C146.966 26.795 146.441 26.935 145.971 27.215C145.511 27.485 145.151 27.87 144.891 28.37C144.631 28.86 144.501 29.42 144.501 30.05C144.501 30.68 144.631 31.245 144.891 31.745C145.151 32.235 145.511 32.62 145.971 32.9C146.441 33.17 146.966 33.305 147.546 33.305ZM165.323 23.3H167.468L159.623 36.815H157.478L165.323 23.3ZM177.55 35.18C176.58 35.18 175.69 34.955 174.88 34.505C174.08 34.055 173.445 33.44 172.975 32.66C172.515 31.87 172.285 31 172.285 30.05C172.285 29.1 172.52 28.235 172.99 27.455C173.46 26.665 174.095 26.045 174.895 25.595C175.705 25.145 176.595 24.92 177.565 24.92C178.505 24.92 179.355 25.14 180.115 25.58C180.885 26.01 181.49 26.61 181.93 27.38L180.4 28.46C179.7 27.35 178.755 26.795 177.565 26.795C176.955 26.795 176.405 26.935 175.915 27.215C175.435 27.495 175.055 27.885 174.775 28.385C174.505 28.875 174.37 29.435 174.37 30.065C174.37 30.695 174.505 31.255 174.775 31.745C175.055 32.235 175.435 32.62 175.915 32.9C176.405 33.17 176.955 33.305 177.565 33.305C178.755 33.305 179.7 32.75 180.4 31.64L181.93 32.72C181.5 33.49 180.9 34.095 180.13 34.535C179.36 34.965 178.5 35.18 177.55 35.18ZM192.966 33.17V37.115H190.941V35H184.776V37.115H182.751V33.17H183.546C183.976 32.82 184.286 32.125 184.476 31.085C184.666 30.035 184.761 28.585 184.761 26.735V25.1H191.646V33.17H192.966ZM186.666 26.93C186.646 28.46 186.561 29.74 186.411 30.77C186.271 31.79 186.051 32.59 185.751 33.17H189.621V26.93H186.666ZM200.296 33.71H196.246L195.691 35H193.516L197.941 24.92H198.616L203.026 35H200.851L200.296 33.71ZM198.271 28.7L196.951 32.045H199.591L198.271 28.7ZM212.658 24.92C213.588 24.92 214.443 25.145 215.223 25.595C216.013 26.045 216.633 26.665 217.083 27.455C217.543 28.235 217.773 29.1 217.773 30.05C217.773 31 217.543 31.87 217.083 32.66C216.623 33.44 216.003 34.055 215.223 34.505C214.443 34.955 213.588 35.18 212.658 35.18C211.788 35.18 210.993 34.99 210.273 34.61C209.553 34.22 208.963 33.69 208.503 33.02C208.043 32.34 207.763 31.575 207.663 30.725H206.403V35H204.378V25.1H206.403V28.895H207.738C207.898 28.125 208.208 27.44 208.668 26.84C209.138 26.23 209.718 25.76 210.408 25.43C211.098 25.09 211.848 24.92 212.658 24.92ZM212.658 33.305C213.238 33.305 213.758 33.165 214.218 32.885C214.678 32.605 215.038 32.22 215.298 31.73C215.558 31.24 215.688 30.68 215.688 30.05C215.688 29.42 215.558 28.86 215.298 28.37C215.038 27.88 214.678 27.495 214.218 27.215C213.758 26.935 213.238 26.795 212.658 26.795C212.078 26.795 211.553 26.935 211.083 27.215C210.623 27.485 210.263 27.87 210.003 28.37C209.743 28.86 209.613 29.42 209.613 30.05C209.613 30.68 209.743 31.245 210.003 31.745C210.263 32.235 210.623 32.62 211.083 32.9C211.553 33.17 212.078 33.305 212.658 33.305Z" fill="#FF4261"/>
</svg>
