<svg width="359" height="292" viewBox="0 0 359 292" fill="none" xmlns="http://www.w3.org/2000/svg">
<circle cx="254" cy="146" r="145.5" stroke="#5C5C5C"/>
<path d="M7.632 167.43C8.436 167.622 9.06 168 9.504 168.564C9.948 169.128 10.17 169.812 10.17 170.616C10.17 171.264 10.026 171.846 9.738 172.362C9.45 172.866 9.024 173.268 8.46 173.568C7.908 173.856 7.248 174 6.48 174H1.764V162.12H5.796C6.792 162.12 7.572 162.39 8.136 162.93C8.712 163.47 9 164.166 9 165.018C9 165.546 8.88 166.02 8.64 166.44C8.412 166.848 8.076 167.178 7.632 167.43ZM2.7 162.966V167.178H5.706C6.462 167.178 7.038 166.986 7.434 166.602C7.83 166.206 8.028 165.696 8.028 165.072C8.028 164.448 7.836 163.938 7.452 163.542C7.068 163.146 6.486 162.948 5.706 162.948L2.7 162.966ZM6.39 173.154C7.29 173.154 7.986 172.92 8.478 172.452C8.97 171.972 9.216 171.354 9.216 170.598C9.216 169.842 8.97 169.224 8.478 168.744C7.986 168.264 7.29 168.024 6.39 168.024H2.7V173.154H6.39ZM16.5291 174.18C15.7131 174.18 14.9571 173.982 14.2611 173.586C13.5771 173.178 13.0371 172.626 12.6411 171.93C12.2451 171.234 12.0471 170.472 12.0471 169.644C12.0471 168.816 12.2451 168.06 12.6411 167.376C13.0371 166.68 13.5771 166.134 14.2611 165.738C14.9571 165.33 15.7191 165.126 16.5471 165.126C17.2791 165.126 17.9451 165.288 18.5451 165.612C19.1451 165.924 19.6491 166.356 20.0571 166.908L19.4091 167.43C18.6651 166.458 17.7111 165.972 16.5471 165.972C15.8751 165.972 15.2691 166.134 14.7291 166.458C14.1891 166.782 13.7631 167.226 13.4511 167.79C13.1391 168.354 12.9831 168.972 12.9831 169.644C12.9831 170.328 13.1391 170.952 13.4511 171.516C13.7631 172.08 14.1891 172.524 14.7291 172.848C15.2691 173.172 15.8691 173.334 16.5291 173.334C17.6931 173.334 18.6531 172.848 19.4091 171.876L20.0571 172.398C19.6491 172.95 19.1391 173.388 18.5271 173.712C17.9271 174.024 17.2611 174.18 16.5291 174.18ZM30.0109 169.86H22.7389C22.7749 170.532 22.9489 171.132 23.2609 171.66C23.5849 172.188 24.0109 172.602 24.5389 172.902C25.0789 173.19 25.6729 173.334 26.3209 173.334C27.4729 173.334 28.4389 172.878 29.2189 171.966L29.7949 172.56C29.3629 173.064 28.8469 173.46 28.2469 173.748C27.6469 174.036 26.9989 174.18 26.3029 174.18C25.4749 174.18 24.7129 173.982 24.0169 173.586C23.3329 173.178 22.7929 172.632 22.3969 171.948C22.0009 171.252 21.8029 170.49 21.8029 169.662C21.8029 168.834 21.9949 168.072 22.3789 167.376C22.7749 166.68 23.3089 166.134 23.9809 165.738C24.6529 165.33 25.3909 165.126 26.1949 165.126C26.9029 165.126 27.5509 165.288 28.1389 165.612C28.7389 165.924 29.2129 166.374 29.5609 166.962C29.9089 167.55 30.0829 168.228 30.0829 168.996C30.0829 169.38 30.0589 169.668 30.0109 169.86ZM26.1589 165.954C25.2829 165.954 24.5329 166.248 23.9089 166.836C23.2849 167.412 22.9069 168.15 22.7749 169.05H29.1469C29.1709 168.426 29.0509 167.88 28.7869 167.412C28.5229 166.944 28.1569 166.584 27.6889 166.332C27.2209 166.08 26.7109 165.954 26.1589 165.954ZM37.8146 165.306H38.7146V174H37.8146V165.306ZM44.5286 174H43.3586L38.9846 169.284L42.9266 165.306H44.1146L40.1726 169.266L44.5286 174ZM51.0664 165.126C51.8704 165.126 52.6024 165.33 53.2624 165.738C53.9224 166.134 54.4384 166.68 54.8104 167.376C55.1944 168.06 55.3864 168.816 55.3864 169.644C55.3864 170.484 55.1944 171.252 54.8104 171.948C54.4384 172.632 53.9224 173.178 53.2624 173.586C52.6024 173.982 51.8704 174.18 51.0664 174.18C50.3344 174.18 49.6504 174.018 49.0144 173.694C48.3784 173.358 47.8924 172.902 47.5564 172.326V177.24H46.6564V165.306H47.5204V167.052C47.8444 166.464 48.3244 165.996 48.9604 165.648C49.6084 165.3 50.3104 165.126 51.0664 165.126ZM50.9764 173.334C51.6364 173.334 52.2304 173.178 52.7584 172.866C53.2864 172.542 53.7004 172.098 54.0004 171.534C54.3004 170.97 54.4504 170.346 54.4504 169.662C54.4504 168.978 54.3004 168.354 54.0004 167.79C53.7004 167.226 53.2864 166.782 52.7584 166.458C52.2304 166.134 51.6364 165.972 50.9764 165.972C50.3764 165.972 49.8124 166.104 49.2844 166.368C48.7684 166.632 48.3484 167.04 48.0244 167.592C47.7124 168.144 47.5564 168.828 47.5564 169.644C47.5564 170.472 47.7124 171.162 48.0244 171.714C48.3484 172.266 48.7684 172.674 49.2844 172.938C49.8124 173.202 50.3764 173.334 50.9764 173.334ZM65.6066 169.86H58.3346C58.3706 170.532 58.5446 171.132 58.8566 171.66C59.1806 172.188 59.6066 172.602 60.1346 172.902C60.6746 173.19 61.2686 173.334 61.9166 173.334C63.0686 173.334 64.0346 172.878 64.8146 171.966L65.3906 172.56C64.9586 173.064 64.4426 173.46 63.8426 173.748C63.2426 174.036 62.5946 174.18 61.8986 174.18C61.0706 174.18 60.3086 173.982 59.6126 173.586C58.9286 173.178 58.3886 172.632 57.9926 171.948C57.5966 171.252 57.3986 170.49 57.3986 169.662C57.3986 168.834 57.5906 168.072 57.9746 167.376C58.3706 166.68 58.9046 166.134 59.5766 165.738C60.2486 165.33 60.9866 165.126 61.7906 165.126C62.4986 165.126 63.1466 165.288 63.7346 165.612C64.3346 165.924 64.8086 166.374 65.1566 166.962C65.5046 167.55 65.6786 168.228 65.6786 168.996C65.6786 169.38 65.6546 169.668 65.6066 169.86ZM61.7546 165.954C60.8786 165.954 60.1286 166.248 59.5046 166.836C58.8806 167.412 58.5026 168.15 58.3706 169.05H64.7426C64.7666 168.426 64.6466 167.88 64.3826 167.412C64.1186 166.944 63.7526 166.584 63.2846 166.332C62.8166 166.08 62.3066 165.954 61.7546 165.954ZM71.2814 165.126C72.2654 165.126 73.0514 165.42 73.6394 166.008C74.2394 166.596 74.5394 167.442 74.5394 168.546V174H73.6754V172.632C73.3634 173.124 72.9374 173.508 72.3974 173.784C71.8574 174.048 71.2454 174.18 70.5614 174.18C69.7214 174.18 69.0134 173.976 68.4374 173.568C67.8614 173.148 67.5734 172.566 67.5734 171.822C67.5734 171.114 67.8494 170.55 68.4014 170.13C68.9534 169.71 69.6854 169.5 70.5974 169.5H73.6214V168.51C73.6214 167.682 73.4054 167.052 72.9734 166.62C72.5414 166.188 71.9594 165.972 71.2274 165.972C70.6754 165.972 70.1894 166.098 69.7694 166.35C69.3494 166.59 68.9534 166.95 68.5814 167.43L67.9514 166.926C68.7914 165.726 69.9014 165.126 71.2814 165.126ZM70.6514 173.388C71.1794 173.388 71.6714 173.274 72.1274 173.046C72.5834 172.818 72.9434 172.506 73.2074 172.11C73.4834 171.702 73.6214 171.252 73.6214 170.76V170.274H70.6874C69.9794 170.274 69.4394 170.406 69.0674 170.67C68.6954 170.922 68.5094 171.288 68.5094 171.768C68.5094 172.296 68.7194 172.698 69.1394 172.974C69.5594 173.25 70.0634 173.388 70.6514 173.388ZM79.4856 166.134H76.2996V165.306H83.5536V166.134H80.3856V174H79.4856V166.134ZM92.5019 165.126V174H91.5839V166.98L86.0579 174.18H85.6799V165.306H86.5799V172.362L92.1239 165.126H92.5019ZM100.844 169.356C101.396 169.524 101.828 169.788 102.14 170.148C102.452 170.508 102.608 170.946 102.608 171.462C102.608 172.206 102.338 172.818 101.798 173.298C101.27 173.766 100.538 174 99.602 174H95.84V165.306H99.332C100.148 165.306 100.79 165.504 101.258 165.9C101.726 166.296 101.96 166.824 101.96 167.484C101.96 167.892 101.858 168.258 101.654 168.582C101.462 168.906 101.192 169.164 100.844 169.356ZM96.74 169.05H99.296C99.872 169.05 100.304 168.912 100.592 168.636C100.892 168.348 101.042 167.976 101.042 167.52C101.042 167.076 100.892 166.734 100.592 166.494C100.304 166.254 99.872 166.134 99.296 166.134H96.74V169.05ZM99.53 173.172C100.214 173.172 100.742 173.016 101.114 172.704C101.486 172.38 101.672 171.972 101.672 171.48C101.672 170.988 101.486 170.598 101.114 170.31C100.742 170.01 100.214 169.86 99.53 169.86H96.74V173.172H99.53ZM105.473 165.306H106.373V168.888H111.215V165.306H112.115V174H111.215V169.734H106.373V174H105.473V165.306ZM115.457 165.306H116.357V168.546H118.643C119.615 168.546 120.383 168.798 120.947 169.302C121.511 169.794 121.793 170.448 121.793 171.264C121.793 172.092 121.511 172.758 120.947 173.262C120.383 173.754 119.615 174 118.643 174H115.457V165.306ZM123.539 165.306H124.439V174H123.539V165.306ZM118.589 173.172C119.309 173.172 119.861 173.004 120.245 172.668C120.641 172.32 120.839 171.858 120.839 171.282C120.839 170.706 120.641 170.244 120.245 169.896C119.861 169.548 119.309 169.374 118.589 169.374H116.357V173.172H118.589ZM135.321 169.86H128.049C128.085 170.532 128.259 171.132 128.571 171.66C128.895 172.188 129.321 172.602 129.849 172.902C130.389 173.19 130.983 173.334 131.631 173.334C132.783 173.334 133.749 172.878 134.529 171.966L135.105 172.56C134.673 173.064 134.157 173.46 133.557 173.748C132.957 174.036 132.309 174.18 131.613 174.18C130.785 174.18 130.023 173.982 129.327 173.586C128.643 173.178 128.103 172.632 127.707 171.948C127.311 171.252 127.113 170.49 127.113 169.662C127.113 168.834 127.305 168.072 127.689 167.376C128.085 166.68 128.619 166.134 129.291 165.738C129.963 165.33 130.701 165.126 131.505 165.126C132.213 165.126 132.861 165.288 133.449 165.612C134.049 165.924 134.523 166.374 134.871 166.962C135.219 167.55 135.393 168.228 135.393 168.996C135.393 169.38 135.369 169.668 135.321 169.86ZM131.469 165.954C130.593 165.954 129.843 166.248 129.219 166.836C128.595 167.412 128.217 168.15 128.085 169.05H134.457C134.481 168.426 134.361 167.88 134.097 167.412C133.833 166.944 133.467 166.584 132.999 166.332C132.531 166.08 132.021 165.954 131.469 165.954ZM143.125 165.306H149.641V174H148.723V166.134H144.025V174H143.125V165.306ZM159.251 165.306V174H158.333V166.134H154.643L154.589 167.448C154.517 169.116 154.391 170.418 154.211 171.354C154.043 172.29 153.779 172.974 153.419 173.406C153.059 173.838 152.567 174.054 151.943 174.054C151.847 174.054 151.727 174.036 151.583 174V173.208C151.655 173.22 151.763 173.226 151.907 173.226C152.339 173.226 152.675 173.01 152.915 172.578C153.167 172.134 153.353 171.504 153.473 170.688C153.593 169.86 153.677 168.768 153.725 167.412L153.797 165.306H159.251ZM166.418 174.18C165.602 174.18 164.846 173.982 164.15 173.586C163.466 173.178 162.926 172.626 162.53 171.93C162.134 171.234 161.936 170.472 161.936 169.644C161.936 168.804 162.134 168.042 162.53 167.358C162.926 166.662 163.466 166.116 164.15 165.72C164.846 165.324 165.608 165.126 166.436 165.126C167.264 165.126 168.02 165.33 168.704 165.738C169.388 166.134 169.928 166.68 170.324 167.376C170.732 168.06 170.936 168.816 170.936 169.644C170.936 170.472 170.732 171.234 170.324 171.93C169.928 172.626 169.382 173.178 168.686 173.586C168.002 173.982 167.246 174.18 166.418 174.18ZM166.418 173.334C167.078 173.334 167.678 173.172 168.218 172.848C168.77 172.524 169.202 172.086 169.514 171.534C169.838 170.97 170 170.346 170 169.662C170 168.966 169.838 168.342 169.514 167.79C169.202 167.226 168.776 166.782 168.236 166.458C167.696 166.134 167.096 165.972 166.436 165.972C165.764 165.972 165.158 166.134 164.618 166.458C164.078 166.782 163.652 167.226 163.34 167.79C163.028 168.342 162.872 168.966 162.872 169.662C162.872 170.346 163.028 170.97 163.34 171.534C163.652 172.086 164.078 172.524 164.618 172.848C165.158 173.172 165.758 173.334 166.418 173.334ZM185.359 174H173.623V165.306H174.523V173.172H178.789V165.306H179.707V173.172H183.973V165.306H184.873V173.172H186.259V176.538H185.359V174ZM191.533 165.126C192.517 165.126 193.303 165.42 193.891 166.008C194.491 166.596 194.791 167.442 194.791 168.546V174H193.927V172.632C193.615 173.124 193.189 173.508 192.649 173.784C192.109 174.048 191.497 174.18 190.813 174.18C189.973 174.18 189.265 173.976 188.689 173.568C188.113 173.148 187.825 172.566 187.825 171.822C187.825 171.114 188.101 170.55 188.653 170.13C189.205 169.71 189.937 169.5 190.849 169.5H193.873V168.51C193.873 167.682 193.657 167.052 193.225 166.62C192.793 166.188 192.211 165.972 191.479 165.972C190.927 165.972 190.441 166.098 190.021 166.35C189.601 166.59 189.205 166.95 188.833 167.43L188.203 166.926C189.043 165.726 190.153 165.126 191.533 165.126ZM190.903 173.388C191.431 173.388 191.923 173.274 192.379 173.046C192.835 172.818 193.195 172.506 193.459 172.11C193.735 171.702 193.873 171.252 193.873 170.76V170.274H190.939C190.231 170.274 189.691 170.406 189.319 170.67C188.947 170.922 188.761 171.288 188.761 171.768C188.761 172.296 188.971 172.698 189.391 172.974C189.811 173.25 190.315 173.388 190.903 173.388ZM205.708 173.172V176.538H204.808V174H197.374V176.538H196.474V173.172H197.356C197.776 172.728 198.082 172.074 198.274 171.21C198.466 170.346 198.592 169.11 198.652 167.502L198.724 165.306H204.322V173.172H205.708ZM198.382 173.172H203.422V166.134H199.57L199.516 167.52C199.408 170.424 199.03 172.308 198.382 173.172ZM208.059 165.306H208.959V174H208.059V165.306ZM214.773 174H213.603L209.229 169.284L213.171 165.306H214.359L210.417 169.266L214.773 174ZM223.723 165.126V174H222.805V166.98L217.279 174.18H216.901V165.306H217.801V172.362L223.345 165.126H223.723ZM235.922 174.18C235.106 174.18 234.35 173.982 233.654 173.586C232.97 173.178 232.43 172.626 232.034 171.93C231.638 171.234 231.44 170.472 231.44 169.644C231.44 168.816 231.638 168.06 232.034 167.376C232.43 166.68 232.97 166.134 233.654 165.738C234.35 165.33 235.112 165.126 235.94 165.126C236.672 165.126 237.338 165.288 237.938 165.612C238.538 165.924 239.042 166.356 239.45 166.908L238.802 167.43C238.058 166.458 237.104 165.972 235.94 165.972C235.268 165.972 234.662 166.134 234.122 166.458C233.582 166.782 233.156 167.226 232.844 167.79C232.532 168.354 232.376 168.972 232.376 169.644C232.376 170.328 232.532 170.952 232.844 171.516C233.156 172.08 233.582 172.524 234.122 172.848C234.662 173.172 235.262 173.334 235.922 173.334C237.086 173.334 238.046 172.848 238.802 171.876L239.45 172.398C239.042 172.95 238.532 173.388 237.92 173.712C237.32 174.024 236.654 174.18 235.922 174.18ZM243.999 166.134H240.813V165.306H248.067V166.134H244.899V174H243.999V166.134ZM253.957 174.18C253.141 174.18 252.385 173.982 251.689 173.586C251.005 173.178 250.465 172.626 250.069 171.93C249.673 171.234 249.475 170.472 249.475 169.644C249.475 168.804 249.673 168.042 250.069 167.358C250.465 166.662 251.005 166.116 251.689 165.72C252.385 165.324 253.147 165.126 253.975 165.126C254.803 165.126 255.559 165.33 256.243 165.738C256.927 166.134 257.467 166.68 257.863 167.376C258.271 168.06 258.475 168.816 258.475 169.644C258.475 170.472 258.271 171.234 257.863 171.93C257.467 172.626 256.921 173.178 256.225 173.586C255.541 173.982 254.785 174.18 253.957 174.18ZM253.957 173.334C254.617 173.334 255.217 173.172 255.757 172.848C256.309 172.524 256.741 172.086 257.053 171.534C257.377 170.97 257.539 170.346 257.539 169.662C257.539 168.966 257.377 168.342 257.053 167.79C256.741 167.226 256.315 166.782 255.775 166.458C255.235 166.134 254.635 165.972 253.975 165.972C253.303 165.972 252.697 166.134 252.157 166.458C251.617 166.782 251.191 167.226 250.879 167.79C250.567 168.342 250.411 168.966 250.411 169.662C250.411 170.346 250.567 170.97 250.879 171.534C251.191 172.086 251.617 172.524 252.157 172.848C252.697 173.172 253.297 173.334 253.957 173.334ZM267.444 165.306V174H266.526V166.134H262.836L262.782 167.448C262.71 169.116 262.584 170.418 262.404 171.354C262.236 172.29 261.972 172.974 261.612 173.406C261.252 173.838 260.76 174.054 260.136 174.054C260.04 174.054 259.92 174.036 259.776 174V173.208C259.848 173.22 259.956 173.226 260.1 173.226C260.532 173.226 260.868 173.01 261.108 172.578C261.36 172.134 261.546 171.504 261.666 170.688C261.786 169.86 261.87 168.768 261.918 167.412L261.99 165.306H267.444ZM277.617 165.126V174H276.699V166.98L271.173 174.18H270.795V165.306H271.695V172.362L277.239 165.126H277.617ZM287.939 174H280.955V165.306H281.855V173.172H286.553V165.306H287.453V173.172H288.839V176.538H287.939V174ZM291.203 165.306H292.103V168.546H294.389C295.361 168.546 296.129 168.798 296.693 169.302C297.257 169.794 297.539 170.448 297.539 171.264C297.539 172.092 297.257 172.758 296.693 173.262C296.129 173.754 295.361 174 294.389 174H291.203V165.306ZM299.285 165.306H300.185V174H299.285V165.306ZM294.335 173.172C295.055 173.172 295.607 173.004 295.991 172.668C296.387 172.32 296.585 171.858 296.585 171.282C296.585 170.706 296.387 170.244 295.991 169.896C295.607 169.548 295.055 169.374 294.335 169.374H292.103V173.172H294.335ZM313.574 169.356C314.126 169.524 314.558 169.788 314.87 170.148C315.182 170.508 315.338 170.946 315.338 171.462C315.338 172.206 315.068 172.818 314.528 173.298C314 173.766 313.268 174 312.332 174H308.57V165.306H312.062C312.878 165.306 313.52 165.504 313.988 165.9C314.456 166.296 314.69 166.824 314.69 167.484C314.69 167.892 314.588 168.258 314.384 168.582C314.192 168.906 313.922 169.164 313.574 169.356ZM309.47 169.05H312.026C312.602 169.05 313.034 168.912 313.322 168.636C313.622 168.348 313.772 167.976 313.772 167.52C313.772 167.076 313.622 166.734 313.322 166.494C313.034 166.254 312.602 166.134 312.026 166.134H309.47V169.05ZM312.26 173.172C312.944 173.172 313.472 173.016 313.844 172.704C314.216 172.38 314.402 171.972 314.402 171.48C314.402 170.988 314.216 170.598 313.844 170.31C313.472 170.01 312.944 169.86 312.26 169.86H309.47V173.172H312.26ZM5.49 197.18C4.674 197.18 3.918 196.982 3.222 196.586C2.538 196.178 1.998 195.626 1.602 194.93C1.206 194.234 1.008 193.472 1.008 192.644C1.008 191.804 1.206 191.042 1.602 190.358C1.998 189.662 2.538 189.116 3.222 188.72C3.918 188.324 4.68 188.126 5.508 188.126C6.336 188.126 7.092 188.33 7.776 188.738C8.46 189.134 9 189.68 9.396 190.376C9.804 191.06 10.008 191.816 10.008 192.644C10.008 193.472 9.804 194.234 9.396 194.93C9 195.626 8.454 196.178 7.758 196.586C7.074 196.982 6.318 197.18 5.49 197.18ZM5.49 196.334C6.15 196.334 6.75 196.172 7.29 195.848C7.842 195.524 8.274 195.086 8.586 194.534C8.91 193.97 9.072 193.346 9.072 192.662C9.072 191.966 8.91 191.342 8.586 190.79C8.274 190.226 7.848 189.782 7.308 189.458C6.768 189.134 6.168 188.972 5.508 188.972C4.836 188.972 4.23 189.134 3.69 189.458C3.15 189.782 2.724 190.226 2.412 190.79C2.1 191.342 1.944 191.966 1.944 192.662C1.944 193.346 2.1 193.97 2.412 194.534C2.724 195.086 3.15 195.524 3.69 195.848C4.23 196.172 4.83 196.334 5.49 196.334ZM20.1358 196.172V199.538H19.2358V197H11.8018V199.538H10.9018V196.172H11.7838C12.2038 195.728 12.5098 195.074 12.7018 194.21C12.8938 193.346 13.0198 192.11 13.0798 190.502L13.1518 188.306H18.7498V196.172H20.1358ZM12.8098 196.172H17.8498V189.134H13.9978L13.9438 190.52C13.8358 193.424 13.4578 195.308 12.8098 196.172ZM22.4865 188.306H23.3865V191.888H28.2285V188.306H29.1285V197H28.2285V192.734H23.3865V197H22.4865V188.306ZM36.2869 197.18C35.4709 197.18 34.7149 196.982 34.0189 196.586C33.3349 196.178 32.7949 195.626 32.3989 194.93C32.0029 194.234 31.8049 193.472 31.8049 192.644C31.8049 191.804 32.0029 191.042 32.3989 190.358C32.7949 189.662 33.3349 189.116 34.0189 188.72C34.7149 188.324 35.4769 188.126 36.3049 188.126C37.1329 188.126 37.8889 188.33 38.5729 188.738C39.2569 189.134 39.7969 189.68 40.1929 190.376C40.6009 191.06 40.8049 191.816 40.8049 192.644C40.8049 193.472 40.6009 194.234 40.1929 194.93C39.7969 195.626 39.2509 196.178 38.5549 196.586C37.8709 196.982 37.1149 197.18 36.2869 197.18ZM36.2869 196.334C36.9469 196.334 37.5469 196.172 38.0869 195.848C38.6389 195.524 39.0709 195.086 39.3829 194.534C39.7069 193.97 39.8689 193.346 39.8689 192.662C39.8689 191.966 39.7069 191.342 39.3829 190.79C39.0709 190.226 38.6449 189.782 38.1049 189.458C37.5649 189.134 36.9649 188.972 36.3049 188.972C35.6329 188.972 35.0269 189.134 34.4869 189.458C33.9469 189.782 33.5209 190.226 33.2089 190.79C32.8969 191.342 32.7409 191.966 32.7409 192.662C32.7409 193.346 32.8969 193.97 33.2089 194.534C33.5209 195.086 33.9469 195.524 34.4869 195.848C35.0269 196.172 35.6269 196.334 36.2869 196.334ZM43.4924 188.126H43.8704L47.9924 193.274L52.1144 188.126H52.4924V197H51.5744V190.16L48.1904 194.39H47.7944L44.3924 190.142V197H43.4924V188.126ZM60.8595 188.126H61.2375L65.3595 193.274L69.4815 188.126H69.8595V197H68.9415V190.16L65.5575 194.39H65.1615L61.7595 190.142V197H60.8595V188.126ZM80.7238 192.86H73.4518C73.4878 193.532 73.6618 194.132 73.9738 194.66C74.2978 195.188 74.7238 195.602 75.2518 195.902C75.7918 196.19 76.3858 196.334 77.0338 196.334C78.1858 196.334 79.1518 195.878 79.9318 194.966L80.5078 195.56C80.0758 196.064 79.5598 196.46 78.9598 196.748C78.3598 197.036 77.7118 197.18 77.0158 197.18C76.1878 197.18 75.4258 196.982 74.7298 196.586C74.0458 196.178 73.5058 195.632 73.1098 194.948C72.7138 194.252 72.5158 193.49 72.5158 192.662C72.5158 191.834 72.7078 191.072 73.0918 190.376C73.4878 189.68 74.0218 189.134 74.6938 188.738C75.3658 188.33 76.1038 188.126 76.9078 188.126C77.6158 188.126 78.2638 188.288 78.8518 188.612C79.4518 188.924 79.9258 189.374 80.2738 189.962C80.6218 190.55 80.7958 191.228 80.7958 191.996C80.7958 192.38 80.7718 192.668 80.7238 192.86ZM76.8718 188.954C75.9958 188.954 75.2458 189.248 74.6218 189.836C73.9978 190.412 73.6198 191.15 73.4878 192.05H79.8598C79.8838 191.426 79.7638 190.88 79.4998 190.412C79.2358 189.944 78.8698 189.584 78.4018 189.332C77.9338 189.08 77.4238 188.954 76.8718 188.954ZM87.2986 197.18C86.4826 197.18 85.7266 196.982 85.0306 196.586C84.3466 196.178 83.8066 195.626 83.4106 194.93C83.0146 194.234 82.8166 193.472 82.8166 192.644C82.8166 191.816 83.0146 191.06 83.4106 190.376C83.8066 189.68 84.3466 189.134 85.0306 188.738C85.7266 188.33 86.4886 188.126 87.3166 188.126C88.0486 188.126 88.7146 188.288 89.3146 188.612C89.9146 188.924 90.4186 189.356 90.8266 189.908L90.1786 190.43C89.4346 189.458 88.4806 188.972 87.3166 188.972C86.6446 188.972 86.0386 189.134 85.4986 189.458C84.9586 189.782 84.5326 190.226 84.2206 190.79C83.9086 191.354 83.7526 191.972 83.7526 192.644C83.7526 193.328 83.9086 193.952 84.2206 194.516C84.5326 195.08 84.9586 195.524 85.4986 195.848C86.0386 196.172 86.6386 196.334 87.2986 196.334C88.4626 196.334 89.4226 195.848 90.1786 194.876L90.8266 195.398C90.4186 195.95 89.9086 196.388 89.2966 196.712C88.6966 197.024 88.0306 197.18 87.2986 197.18ZM95.3762 189.134H92.1902V188.306H99.4442V189.134H96.2762V197H95.3762V189.134ZM109.06 192.86H101.788C101.824 193.532 101.998 194.132 102.31 194.66C102.634 195.188 103.06 195.602 103.588 195.902C104.128 196.19 104.722 196.334 105.37 196.334C106.522 196.334 107.488 195.878 108.268 194.966L108.844 195.56C108.412 196.064 107.896 196.46 107.296 196.748C106.696 197.036 106.048 197.18 105.352 197.18C104.524 197.18 103.762 196.982 103.066 196.586C102.382 196.178 101.842 195.632 101.446 194.948C101.05 194.252 100.852 193.49 100.852 192.662C100.852 191.834 101.044 191.072 101.428 190.376C101.824 189.68 102.358 189.134 103.03 188.738C103.702 188.33 104.44 188.126 105.244 188.126C105.952 188.126 106.6 188.288 107.188 188.612C107.788 188.924 108.262 189.374 108.61 189.962C108.958 190.55 109.132 191.228 109.132 191.996C109.132 192.38 109.108 192.668 109.06 192.86ZM105.208 188.954C104.332 188.954 103.582 189.248 102.958 189.836C102.334 190.412 101.956 191.15 101.824 192.05H108.196C108.22 191.426 108.1 190.88 107.836 190.412C107.572 189.944 107.206 189.584 106.738 189.332C106.27 189.08 105.76 188.954 105.208 188.954Z" fill="white"/>
<path d="M18.6 131.56H7.8L6.32 135H0.52L12.32 108.12H14.12L25.88 135H20.08L18.6 131.56ZM13.2 118.2L9.68 127.12H16.72L13.2 118.2ZM48.2053 135L36.8853 121.24V135H31.4853V108.6H36.8853V120.84L46.9653 108.6H53.4053L43.2853 121.04L54.7253 135H48.2053ZM82.9222 108.12V135H77.5222V118.64L62.0422 135.48H60.2822V108.6H65.6822V124.8L81.1222 108.12H82.9222Z" fill="white"/>
<rect y="68.5476" width="23.4019" height="23.4019" rx="5" transform="rotate(-45 0 68.5476)" fill="#FF4261"/>
<rect x="55.9048" y="68.5476" width="23.4019" height="23.4019" rx="5" transform="rotate(-45 55.9048 68.5476)" fill="#E7E7E7"/>
</svg>
