<svg width="303" height="209" viewBox="0 0 303 209" fill="none" xmlns="http://www.w3.org/2000/svg">
<rect x="1" y="169" width="224" height="39" rx="19" stroke="#5C5C5C" stroke-width="2"/>
<path d="M36.4964 186.326H34.1058C34.0376 185.934 33.9119 185.587 33.7287 185.284C33.5455 184.977 33.3175 184.717 33.0447 184.504C32.772 184.291 32.4609 184.131 32.1115 184.025C31.7663 183.914 31.3935 183.859 30.9929 183.859C30.2813 183.859 29.6506 184.038 29.1009 184.396C28.5511 184.749 28.1207 185.269 27.8097 185.955C27.4986 186.637 27.343 187.47 27.343 188.455C27.343 189.456 27.4986 190.3 27.8097 190.986C28.125 191.668 28.5554 192.183 29.1009 192.533C29.6506 192.878 30.2791 193.05 30.9865 193.05C31.3786 193.05 31.745 192.999 32.0859 192.897C32.4311 192.79 32.7401 192.635 33.0128 192.43C33.2898 192.226 33.522 191.974 33.7095 191.676C33.9013 191.378 34.0334 191.037 34.1058 190.653L36.4964 190.666C36.407 191.288 36.2131 191.872 35.9148 192.418C35.6207 192.963 35.2351 193.445 34.7578 193.862C34.2805 194.276 33.7223 194.599 33.0831 194.834C32.4439 195.064 31.7344 195.179 30.9545 195.179C29.804 195.179 28.777 194.913 27.8736 194.38C26.9702 193.847 26.2585 193.078 25.7386 192.072C25.2188 191.067 24.9588 189.861 24.9588 188.455C24.9588 187.044 25.2209 185.838 25.745 184.837C26.2692 183.831 26.983 183.062 27.8864 182.529C28.7898 181.996 29.8125 181.73 30.9545 181.73C31.6832 181.73 32.3608 181.832 32.9872 182.037C33.6136 182.241 34.1719 182.542 34.6619 182.938C35.152 183.33 35.5547 183.812 35.87 184.383C36.1896 184.95 36.3984 185.597 36.4964 186.326ZM38.6681 195V181.909H41.0396V187.451H47.1056V181.909H49.4835V195H47.1056V189.439H41.0396V195H38.6681ZM61.7275 195H59.3496V183.891H57.1763C56.5882 183.891 56.1046 183.978 55.7253 184.153C55.3503 184.323 55.0712 184.575 54.888 184.907C54.709 185.235 54.6195 185.631 54.6195 186.096C54.6195 186.56 54.709 186.952 54.888 187.272C55.0669 187.587 55.3439 187.828 55.7189 187.994C56.0982 188.156 56.5797 188.237 57.1635 188.237H60.3468V190.206H56.8439C55.8382 190.206 54.9902 190.04 54.2999 189.707C53.6096 189.371 53.0854 188.896 52.7275 188.282C52.3738 187.664 52.1969 186.935 52.1969 186.096C52.1969 185.261 52.3716 184.53 52.7211 183.903C53.0748 183.273 53.5946 182.783 54.2807 182.433C54.9668 182.084 55.8105 181.909 56.812 181.909H61.7275V195ZM54.9583 189.068H57.5471L54.3638 195H51.7175L54.9583 189.068ZM63.7218 183.897V181.909H74.1664V183.897H70.1202V195H67.7679V183.897H63.7218ZM77.7843 186.965H81.1081C82.1096 186.965 82.9682 187.129 83.6841 187.457C84.4043 187.781 84.9561 188.239 85.3397 188.832C85.7232 189.424 85.915 190.121 85.915 190.922C85.915 191.727 85.7232 192.437 85.3397 193.05C84.9561 193.66 84.4043 194.137 83.6841 194.482C82.9682 194.827 82.1096 195 81.1081 195H76.2054V181.909H78.5833V193.057H81.1081C81.6365 193.057 82.084 192.957 82.4505 192.756C82.8169 192.556 83.0939 192.292 83.2814 191.964C83.4732 191.636 83.5691 191.28 83.5691 190.896C83.5691 190.342 83.356 189.871 82.9299 189.484C82.508 189.092 81.9007 188.896 81.1081 188.896H77.7843V186.965Z" fill="#FF4261"/>
<path d="M146.496 186.326H144.106C144.038 185.934 143.912 185.587 143.729 185.284C143.545 184.977 143.317 184.717 143.045 184.504C142.772 184.291 142.461 184.131 142.112 184.025C141.766 183.914 141.393 183.859 140.993 183.859C140.281 183.859 139.651 184.038 139.101 184.396C138.551 184.749 138.121 185.269 137.81 185.955C137.499 186.637 137.343 187.47 137.343 188.455C137.343 189.456 137.499 190.3 137.81 190.986C138.125 191.668 138.555 192.183 139.101 192.533C139.651 192.878 140.279 193.05 140.987 193.05C141.379 193.05 141.745 192.999 142.086 192.897C142.431 192.79 142.74 192.635 143.013 192.43C143.29 192.226 143.522 191.974 143.71 191.676C143.901 191.378 144.033 191.037 144.106 190.653L146.496 190.666C146.407 191.288 146.213 191.872 145.915 192.418C145.621 192.963 145.235 193.445 144.758 193.862C144.281 194.276 143.722 194.599 143.083 194.834C142.444 195.064 141.734 195.179 140.955 195.179C139.804 195.179 138.777 194.913 137.874 194.38C136.97 193.847 136.259 193.078 135.739 192.072C135.219 191.067 134.959 189.861 134.959 188.455C134.959 187.044 135.221 185.838 135.745 184.837C136.269 183.831 136.983 183.062 137.886 182.529C138.79 181.996 139.813 181.73 140.955 181.73C141.683 181.73 142.361 181.832 142.987 182.037C143.614 182.241 144.172 182.542 144.662 182.938C145.152 183.33 145.555 183.812 145.87 184.383C146.19 184.95 146.398 185.597 146.496 186.326ZM147.818 198.158V193.063H148.694C148.988 192.829 149.263 192.499 149.518 192.072C149.774 191.646 149.991 191.062 150.17 190.321C150.349 189.58 150.473 188.621 150.541 187.445L150.886 181.909H159.253V193.063H160.711V198.145H158.435V195H150.094V198.158H147.818ZM151.455 193.063H156.978V183.897H153.021L152.817 187.445C152.761 188.335 152.672 189.132 152.548 189.835C152.425 190.538 152.269 191.158 152.081 191.695C151.894 192.228 151.685 192.684 151.455 193.063ZM164.324 195H161.793L166.401 181.909H169.329L173.944 195H171.413L167.916 184.594H167.814L164.324 195ZM164.407 189.867H171.31V191.772H164.407V189.867ZM173.511 183.897V181.909H183.955V183.897H179.909V195H177.557V183.897H173.511ZM187.573 186.965H190.897C191.899 186.965 192.757 187.129 193.473 187.457C194.193 187.781 194.745 188.239 195.129 188.832C195.512 189.424 195.704 190.121 195.704 190.922C195.704 191.727 195.512 192.437 195.129 193.05C194.745 193.66 194.193 194.137 193.473 194.482C192.757 194.827 191.899 195 190.897 195H185.994V181.909H188.372V193.057H190.897C191.426 193.057 191.873 192.957 192.24 192.756C192.606 192.556 192.883 192.292 193.07 191.964C193.262 191.636 193.358 191.28 193.358 190.896C193.358 190.342 193.145 189.871 192.719 189.484C192.297 189.092 191.69 188.896 190.897 188.896H187.573V186.965Z" fill="#FF4261"/>
<line x1="110" y1="169" x2="110" y2="209" stroke="#5C5C5C" stroke-width="2"/>
<rect x="0.5" y="23.5" width="302" height="42" rx="21" stroke="#5C5C5C"/>
<path d="M22.568 4.44H29.176V5.192H23.4V8.92H27.896V9.672H23.4V14.248H29.368V15H22.568V4.44ZM31.2551 9.672H34.9031V10.376H31.2551V9.672ZM46.2115 7.112C47.0755 7.112 47.7475 7.38933 48.2275 7.944C48.7182 8.488 48.9635 9.21333 48.9635 10.12V15H48.1475V10.184C48.1475 9.49067 47.9662 8.93067 47.6035 8.504C47.2408 8.07733 46.7395 7.864 46.0995 7.864C45.6728 7.864 45.2888 7.96533 44.9475 8.168C44.6062 8.36 44.3395 8.62667 44.1475 8.968C43.9555 9.29867 43.8595 9.66133 43.8595 10.056V15H43.0595V10.184C43.0595 9.49067 42.8728 8.93067 42.4995 8.504C42.1368 8.07733 41.6355 7.864 40.9955 7.864C40.3342 7.864 39.7955 8.08267 39.3795 8.52C38.9635 8.95733 38.7555 9.512 38.7555 10.184V15H37.9555V7.272H38.7235V8.28C38.9795 7.90667 39.3102 7.61867 39.7155 7.416C40.1315 7.21333 40.5955 7.112 41.1075 7.112C41.7048 7.112 42.2062 7.24533 42.6115 7.512C43.0275 7.77867 43.3368 8.14667 43.5395 8.616C43.7955 8.168 44.1475 7.80533 44.5955 7.528C45.0542 7.25067 45.5928 7.112 46.2115 7.112ZM55.0469 7.112C55.9215 7.112 56.6202 7.37333 57.1429 7.896C57.6762 8.41867 57.9429 9.17067 57.9429 10.152V15H57.1749V13.784C56.8975 14.2213 56.5189 14.5627 56.0389 14.808C55.5589 15.0427 55.0149 15.16 54.4069 15.16C53.6602 15.16 53.0309 14.9787 52.5189 14.616C52.0069 14.2427 51.7509 13.7253 51.7509 13.064C51.7509 12.4347 51.9962 11.9333 52.4869 11.56C52.9775 11.1867 53.6282 11 54.4389 11H57.1269V10.12C57.1269 9.384 56.9349 8.824 56.5509 8.44C56.1669 8.056 55.6495 7.864 54.9989 7.864C54.5082 7.864 54.0762 7.976 53.7029 8.2C53.3295 8.41333 52.9775 8.73333 52.6469 9.16L52.0869 8.712C52.8335 7.64533 53.8202 7.112 55.0469 7.112ZM54.4869 14.456C54.9562 14.456 55.3935 14.3547 55.7989 14.152C56.2042 13.9493 56.5242 13.672 56.7589 13.32C57.0042 12.9573 57.1269 12.5573 57.1269 12.12V11.688H54.5189C53.8895 11.688 53.4095 11.8053 53.0789 12.04C52.7482 12.264 52.5829 12.5893 52.5829 13.016C52.5829 13.4853 52.7695 13.8427 53.1429 14.088C53.5162 14.3333 53.9642 14.456 54.4869 14.456ZM61.4386 7.272H62.2386V15H61.4386V7.272ZM61.8386 5C61.636 5 61.4653 4.93067 61.3266 4.792C61.1986 4.65333 61.1346 4.488 61.1346 4.296C61.1346 4.104 61.1986 3.93867 61.3266 3.8C61.4653 3.66133 61.636 3.592 61.8386 3.592C62.0306 3.592 62.196 3.66133 62.3346 3.8C62.4733 3.93867 62.5426 4.104 62.5426 4.296C62.5426 4.488 62.4733 4.65333 62.3346 4.792C62.196 4.93067 62.0306 5 61.8386 5ZM65.8599 3H66.6599V15H65.8599V3Z" fill="white"/>
<path d="M22.36 42.208H23.592V50H22.36V42.208ZM22.984 40.128C22.728 40.128 22.5093 40.0427 22.328 39.872C22.1467 39.7013 22.056 39.488 22.056 39.232C22.056 38.9867 22.1467 38.7787 22.328 38.608C22.5093 38.4267 22.728 38.336 22.984 38.336C23.2293 38.336 23.4427 38.4267 23.624 38.608C23.8053 38.7787 23.896 38.9867 23.896 39.232C23.896 39.488 23.8053 39.7013 23.624 39.872C23.4533 40.0427 23.24 40.128 22.984 40.128ZM33.7855 42.208L30.1215 50.176H29.6735L25.9935 42.208H27.3055L29.8975 48.08L32.4735 42.208H33.7855ZM38.69 42.032C39.6073 42.032 40.3433 42.304 40.898 42.848C41.4527 43.392 41.73 44.176 41.73 45.2V50H40.578V48.992C40.29 49.376 39.922 49.6693 39.474 49.872C39.026 50.0747 38.5193 50.176 37.954 50.176C37.154 50.176 36.498 49.9787 35.986 49.584C35.4847 49.1893 35.234 48.656 35.234 47.984C35.234 47.3227 35.49 46.7947 36.002 46.4C36.514 46.0053 37.1913 45.808 38.034 45.808H40.498V45.136C40.498 44.496 40.3273 44.0107 39.986 43.68C39.6553 43.3387 39.1967 43.168 38.61 43.168C38.1407 43.168 37.7247 43.2747 37.362 43.488C36.9993 43.6907 36.658 44 36.338 44.416L35.522 43.744C35.874 43.168 36.3273 42.7413 36.882 42.464C37.4367 42.176 38.0393 42.032 38.69 42.032ZM38.114 49.152C38.5407 49.152 38.9353 49.0613 39.298 48.88C39.6607 48.688 39.9487 48.4267 40.162 48.096C40.386 47.7653 40.498 47.4027 40.498 47.008V46.816H38.178C37.634 46.816 37.218 46.912 36.93 47.104C36.642 47.2853 36.498 47.5573 36.498 47.92C36.498 48.3147 36.6527 48.6187 36.962 48.832C37.2713 49.0453 37.6553 49.152 38.114 49.152ZM48.5351 42.032C49.4418 42.032 50.1511 42.3147 50.6631 42.88C51.1751 43.4453 51.4311 44.1867 51.4311 45.104V50H50.1991V45.248C50.1991 44.6293 50.0231 44.128 49.6711 43.744C49.3298 43.36 48.8605 43.168 48.2631 43.168C47.6658 43.168 47.1751 43.3653 46.7911 43.76C46.4071 44.144 46.2151 44.64 46.2151 45.248V50H44.9831V42.208H46.1351V43.04C46.4231 42.72 46.7698 42.4747 47.1751 42.304C47.5911 42.1227 48.0445 42.032 48.5351 42.032ZM58.1896 50.16C57.443 50.16 56.7603 49.9787 56.1416 49.616C55.523 49.2533 55.0323 48.7627 54.6696 48.144C54.307 47.5147 54.1256 46.832 54.1256 46.096C54.1256 45.3493 54.307 44.6667 54.6696 44.048C55.0323 43.4187 55.523 42.928 56.1416 42.576C56.771 42.2133 57.459 42.032 58.2056 42.032C58.9523 42.032 59.635 42.2133 60.2536 42.576C60.883 42.9387 61.379 43.4293 61.7416 44.048C62.1043 44.6667 62.2856 45.3493 62.2856 46.096C62.2856 46.832 62.1043 47.5147 61.7416 48.144C61.379 48.7627 60.883 49.2533 60.2536 49.616C59.6243 49.9787 58.9363 50.16 58.1896 50.16ZM58.1896 49.024C58.7123 49.024 59.187 48.896 59.6136 48.64C60.051 48.384 60.3923 48.0373 60.6376 47.6C60.8936 47.152 61.0216 46.656 61.0216 46.112C61.0216 45.5573 60.899 45.056 60.6536 44.608C60.4083 44.16 60.067 43.808 59.6296 43.552C59.203 43.296 58.7283 43.168 58.2056 43.168C57.6723 43.168 57.1923 43.296 56.7656 43.552C56.339 43.808 56.003 44.16 55.7576 44.608C55.5123 45.056 55.3896 45.5573 55.3896 46.112C55.3896 46.656 55.5123 47.152 55.7576 47.6C56.003 48.0373 56.339 48.384 56.7656 48.64C57.1923 48.896 57.667 49.024 58.1896 49.024ZM71.6268 42.208L67.9628 50.176H67.5148L63.8348 42.208H65.1468L67.7388 48.08L70.3148 42.208H71.6268ZM80.2518 39.488C81.4571 39.488 82.5451 39.7547 83.5158 40.288C84.4971 40.8213 85.2651 41.5413 85.8198 42.448C86.3851 43.3547 86.6678 44.3467 86.6678 45.424C86.6678 46.256 86.4918 46.976 86.1398 47.584C85.7984 48.1813 85.3184 48.64 84.6998 48.96C84.0811 49.2693 83.3718 49.424 82.5718 49.424H82.1878V48.384C81.9424 48.768 81.6011 49.0667 81.1638 49.28C80.7371 49.4933 80.2678 49.6 79.7558 49.6C79.1478 49.6 78.6038 49.4507 78.1238 49.152C77.6438 48.8533 77.2651 48.448 76.9878 47.936C76.7104 47.4133 76.5718 46.832 76.5718 46.192C76.5718 45.5627 76.7051 44.992 76.9718 44.48C77.2491 43.9573 77.6331 43.5467 78.1238 43.248C78.6144 42.9493 79.1638 42.8 79.7718 42.8C80.2518 42.8 80.6944 42.896 81.0998 43.088C81.5158 43.2693 81.8464 43.5253 82.0918 43.856V42.928H83.2438V48.336C83.9478 48.2827 84.5078 48.0053 84.9238 47.504C85.3398 47.0027 85.5478 46.3093 85.5478 45.424C85.5478 44.5067 85.3238 43.68 84.8758 42.944C84.4384 42.1973 83.8198 41.6107 83.0198 41.184C82.2198 40.7573 81.3078 40.544 80.2838 40.544C79.2064 40.544 78.2358 40.784 77.3718 41.264C76.5078 41.7333 75.8304 42.384 75.3398 43.216C74.8491 44.048 74.6038 44.992 74.6038 46.048C74.6038 47.104 74.8491 48.0533 75.3398 48.896C75.8411 49.728 76.5131 50.3787 77.3558 50.848C78.2091 51.328 79.1531 51.568 80.1878 51.568C80.9238 51.568 81.6171 51.4507 82.2678 51.216L82.4918 52.176C81.7558 52.464 80.9504 52.608 80.0758 52.608C78.8598 52.608 77.7451 52.32 76.7318 51.744C75.7291 51.1787 74.9291 50.3947 74.3318 49.392C73.7451 48.3893 73.4518 47.28 73.4518 46.064C73.4518 44.8267 73.7504 43.7067 74.3478 42.704C74.9558 41.7013 75.7771 40.9173 76.8118 40.352C77.8571 39.776 79.0038 39.488 80.2518 39.488ZM79.9638 48.464C80.5184 48.464 80.9984 48.272 81.4038 47.888C81.8198 47.4933 82.0278 46.9227 82.0278 46.176C82.0278 45.44 81.8251 44.88 81.4198 44.496C81.0144 44.1013 80.5291 43.904 79.9638 43.904C79.3558 43.904 78.8491 44.1173 78.4438 44.544C78.0384 44.9707 77.8358 45.52 77.8358 46.192C77.8358 46.8533 78.0384 47.3973 78.4438 47.824C78.8491 48.2507 79.3558 48.464 79.9638 48.464ZM97.9778 42.032C98.8738 42.032 99.5671 42.3147 100.058 42.88C100.559 43.4347 100.81 44.176 100.81 45.104V50H99.5778V45.264C99.5778 44.6347 99.4124 44.128 99.0818 43.744C98.7618 43.36 98.3138 43.168 97.7378 43.168C97.1511 43.168 96.6711 43.36 96.2978 43.744C95.9244 44.128 95.7378 44.5973 95.7378 45.152V50H94.5058V45.264C94.5058 44.6347 94.3351 44.128 93.9938 43.744C93.6631 43.36 93.2151 43.168 92.6498 43.168C92.0631 43.168 91.5831 43.3653 91.2098 43.76C90.8471 44.144 90.6658 44.6453 90.6658 45.264V50H89.4338V42.208H90.5858V43.024C90.8631 42.704 91.1991 42.4587 91.5938 42.288C91.9884 42.1173 92.4258 42.032 92.9058 42.032C93.4711 42.032 93.9564 42.1493 94.3618 42.384C94.7671 42.6187 95.0818 42.9493 95.3058 43.376C95.5938 42.9707 95.9671 42.6453 96.4258 42.4C96.8844 42.1547 97.4018 42.032 97.9778 42.032ZM106.858 42.032C107.775 42.032 108.511 42.304 109.066 42.848C109.621 43.392 109.898 44.176 109.898 45.2V50H108.746V48.992C108.458 49.376 108.09 49.6693 107.642 49.872C107.194 50.0747 106.687 50.176 106.122 50.176C105.322 50.176 104.666 49.9787 104.154 49.584C103.653 49.1893 103.402 48.656 103.402 47.984C103.402 47.3227 103.658 46.7947 104.17 46.4C104.682 46.0053 105.359 45.808 106.202 45.808H108.666V45.136C108.666 44.496 108.495 44.0107 108.154 43.68C107.823 43.3387 107.365 43.168 106.778 43.168C106.309 43.168 105.893 43.2747 105.53 43.488C105.167 43.6907 104.826 44 104.506 44.416L103.69 43.744C104.042 43.168 104.495 42.7413 105.05 42.464C105.605 42.176 106.207 42.032 106.858 42.032ZM106.282 49.152C106.709 49.152 107.103 49.0613 107.466 48.88C107.829 48.688 108.117 48.4267 108.33 48.096C108.554 47.7653 108.666 47.4027 108.666 47.008V46.816H106.346C105.802 46.816 105.386 46.912 105.098 47.104C104.81 47.2853 104.666 47.5573 104.666 47.92C104.666 48.3147 104.821 48.6187 105.13 48.832C105.439 49.0453 105.823 49.152 106.282 49.152ZM113.151 42.208H114.383V50H113.151V42.208ZM113.775 40.128C113.519 40.128 113.301 40.0427 113.119 39.872C112.938 39.7013 112.847 39.488 112.847 39.232C112.847 38.9867 112.938 38.7787 113.119 38.608C113.301 38.4267 113.519 38.336 113.775 38.336C114.021 38.336 114.234 38.4267 114.415 38.608C114.597 38.7787 114.687 38.9867 114.687 39.232C114.687 39.488 114.597 39.7013 114.415 39.872C114.245 40.0427 114.031 40.128 113.775 40.128ZM117.729 38H118.961V50H117.729V38ZM123.186 50.176C122.909 50.176 122.669 50.08 122.466 49.888C122.274 49.696 122.178 49.456 122.178 49.168C122.178 48.88 122.274 48.64 122.466 48.448C122.669 48.256 122.909 48.16 123.186 48.16C123.464 48.16 123.698 48.256 123.89 48.448C124.093 48.64 124.194 48.88 124.194 49.168C124.194 49.456 124.093 49.696 123.89 49.888C123.698 50.08 123.464 50.176 123.186 50.176ZM131.575 42.208V43.296H131.111C130.673 43.296 130.268 43.3867 129.895 43.568C129.521 43.7493 129.223 44.0107 128.999 44.352C128.775 44.6933 128.663 45.104 128.663 45.584V50H127.431V42.208H128.583V43.312C128.86 42.9387 129.212 42.6507 129.639 42.448C130.076 42.2453 130.529 42.144 130.999 42.144C131.169 42.144 131.361 42.1653 131.575 42.208ZM137.003 50.176C136.395 50.176 135.846 50.0427 135.355 49.776C134.865 49.4987 134.475 49.1147 134.187 48.624C133.91 48.1227 133.771 47.5467 133.771 46.896V42.208H134.987V46.976C134.987 47.6053 135.179 48.1067 135.563 48.48C135.947 48.8533 136.427 49.04 137.003 49.04C137.569 49.04 138.038 48.8533 138.411 48.48C138.796 48.096 138.988 47.5947 138.988 46.976V42.208H140.22V46.896C140.22 47.5467 140.076 48.1227 139.787 48.624C139.51 49.1147 139.126 49.4987 138.635 49.776C138.145 50.0427 137.601 50.176 137.003 50.176Z" fill="white"/>
<rect x="0.5" y="102.5" width="302" height="42" rx="21" stroke="#5C5C5C"/>
<path d="M22.568 83.44H30.568V94H29.736V84.192H23.4V94H22.568V83.44ZM36.7825 86.112C37.6572 86.112 38.3558 86.3733 38.8785 86.896C39.4118 87.4187 39.6785 88.1707 39.6785 89.152V94H38.9105V92.784C38.6332 93.2213 38.2545 93.5627 37.7745 93.808C37.2945 94.0427 36.7505 94.16 36.1425 94.16C35.3958 94.16 34.7665 93.9787 34.2545 93.616C33.7425 93.2427 33.4865 92.7253 33.4865 92.064C33.4865 91.4347 33.7318 90.9333 34.2225 90.56C34.7132 90.1867 35.3638 90 36.1745 90H38.8625V89.12C38.8625 88.384 38.6705 87.824 38.2865 87.44C37.9025 87.056 37.3852 86.864 36.7345 86.864C36.2438 86.864 35.8118 86.976 35.4385 87.2C35.0652 87.4133 34.7132 87.7333 34.3825 88.16L33.8225 87.712C34.5692 86.6453 35.5558 86.112 36.7825 86.112ZM36.2225 93.456C36.6918 93.456 37.1292 93.3547 37.5345 93.152C37.9398 92.9493 38.2598 92.672 38.4945 92.32C38.7398 91.9573 38.8625 91.5573 38.8625 91.12V90.688H36.2545C35.6252 90.688 35.1452 90.8053 34.8145 91.04C34.4838 91.264 34.3185 91.5893 34.3185 92.016C34.3185 92.4853 34.5052 92.8427 34.8785 93.088C35.2518 93.3333 35.6998 93.456 36.2225 93.456ZM47.0943 86.112C47.8089 86.112 48.4596 86.2933 49.0463 86.656C49.6329 87.008 50.0916 87.4933 50.4223 88.112C50.7636 88.72 50.9343 89.392 50.9343 90.128C50.9343 90.8747 50.7636 91.5573 50.4223 92.176C50.0916 92.784 49.6329 93.2693 49.0463 93.632C48.4596 93.984 47.8089 94.16 47.0943 94.16C46.4436 94.16 45.8356 94.016 45.2703 93.728C44.7049 93.4293 44.2729 93.024 43.9743 92.512V96.88H43.1743V86.272H43.9423V87.824C44.2303 87.3013 44.6569 86.8853 45.2223 86.576C45.7983 86.2667 46.4223 86.112 47.0943 86.112ZM47.0143 93.408C47.6009 93.408 48.1289 93.2693 48.5983 92.992C49.0676 92.704 49.4356 92.3093 49.7023 91.808C49.9689 91.3067 50.1023 90.752 50.1023 90.144C50.1023 89.536 49.9689 88.9813 49.7023 88.48C49.4356 87.9787 49.0676 87.584 48.5983 87.296C48.1289 87.008 47.6009 86.864 47.0143 86.864C46.4809 86.864 45.9796 86.9813 45.5103 87.216C45.0516 87.4507 44.6783 87.8133 44.3903 88.304C44.1129 88.7947 43.9743 89.4027 43.9743 90.128C43.9743 90.864 44.1129 91.4773 44.3903 91.968C44.6783 92.4587 45.0516 92.8213 45.5103 93.056C45.9796 93.2907 46.4809 93.408 47.0143 93.408ZM57.3469 94.16C56.6215 94.16 55.9495 93.984 55.3309 93.632C54.7229 93.2693 54.2429 92.7787 53.8909 92.16C53.5389 91.5413 53.3629 90.864 53.3629 90.128C53.3629 89.3813 53.5389 88.704 53.8909 88.096C54.2429 87.4773 54.7229 86.992 55.3309 86.64C55.9495 86.288 56.6269 86.112 57.3629 86.112C58.0989 86.112 58.7709 86.2933 59.3789 86.656C59.9869 87.008 60.4669 87.4933 60.8189 88.112C61.1815 88.72 61.3629 89.392 61.3629 90.128C61.3629 90.864 61.1815 91.5413 60.8189 92.16C60.4669 92.7787 59.9815 93.2693 59.3629 93.632C58.7549 93.984 58.0829 94.16 57.3469 94.16ZM57.3469 93.408C57.9335 93.408 58.4669 93.264 58.9469 92.976C59.4375 92.688 59.8215 92.2987 60.0989 91.808C60.3869 91.3067 60.5309 90.752 60.5309 90.144C60.5309 89.5253 60.3869 88.9707 60.0989 88.48C59.8215 87.9787 59.4429 87.584 58.9629 87.296C58.4829 87.008 57.9495 86.864 57.3629 86.864C56.7655 86.864 56.2269 87.008 55.7469 87.296C55.2669 87.584 54.8882 87.9787 54.6109 88.48C54.3335 88.9707 54.1949 89.5253 54.1949 90.144C54.1949 90.752 54.3335 91.3067 54.6109 91.808C54.8882 92.2987 55.2669 92.688 55.7469 92.976C56.2269 93.264 56.7602 93.408 57.3469 93.408ZM69.9758 86.272V94H69.1598V87.008H65.8798L65.8318 88.176C65.7678 89.6587 65.6558 90.816 65.4958 91.648C65.3464 92.48 65.1118 93.088 64.7918 93.472C64.4718 93.856 64.0344 94.048 63.4798 94.048C63.3944 94.048 63.2878 94.032 63.1598 94V93.296C63.2238 93.3067 63.3198 93.312 63.4478 93.312C63.8318 93.312 64.1304 93.12 64.3438 92.736C64.5678 92.3413 64.7331 91.7813 64.8398 91.056C64.9464 90.32 65.0211 89.3493 65.0638 88.144L65.1278 86.272H69.9758ZM73.5943 86.272H74.3943V89.152H76.4263C77.3009 89.152 77.9836 89.376 78.4743 89.824C78.9756 90.2613 79.2263 90.8427 79.2263 91.568C79.2263 92.304 78.9756 92.896 78.4743 93.344C77.9836 93.7813 77.3009 94 76.4263 94H73.5943V86.272ZM76.3783 93.264C77.0183 93.264 77.5089 93.1093 77.8503 92.8C78.2023 92.4907 78.3783 92.0853 78.3783 91.584C78.3783 91.0827 78.2023 90.6773 77.8503 90.368C77.5089 90.048 77.0183 89.888 76.3783 89.888H74.3943V93.264H76.3783Z" fill="white"/>
<path d="M25.32 119.72L26.824 120.744L26.424 121.4L24.792 120.616L24.664 122.424H23.896L23.752 120.616L22.12 121.4L21.736 120.744L23.24 119.72L21.736 118.696L22.12 118.024L23.752 118.808L23.896 117H24.664L24.792 118.808L26.424 118.024L26.824 118.696L25.32 119.72ZM33.3194 119.72L34.8234 120.744L34.4234 121.4L32.7914 120.616L32.6634 122.424H31.8954L31.7514 120.616L30.1194 121.4L29.7354 120.744L31.2394 119.72L29.7354 118.696L30.1194 118.024L31.7514 118.808L31.8954 117H32.6634L32.7914 118.808L34.4234 118.024L34.8234 118.696L33.3194 119.72ZM41.3187 119.72L42.8228 120.744L42.4227 121.4L40.7908 120.616L40.6628 122.424H39.8947L39.7507 120.616L38.1187 121.4L37.7347 120.744L39.2387 119.72L37.7347 118.696L38.1187 118.024L39.7507 118.808L39.8947 117H40.6628L40.7908 118.808L42.4227 118.024L42.8228 118.696L41.3187 119.72ZM49.3181 119.72L50.8221 120.744L50.4221 121.4L48.7901 120.616L48.6621 122.424H47.8941L47.7501 120.616L46.1181 121.4L45.7341 120.744L47.2381 119.72L45.7341 118.696L46.1181 118.024L47.7501 118.808L47.8941 117H48.6621L48.7901 118.808L50.4221 118.024L50.8221 118.696L49.3181 119.72ZM57.3175 119.72L58.8215 120.744L58.4215 121.4L56.7895 120.616L56.6615 122.424H55.8935L55.7495 120.616L54.1175 121.4L53.7335 120.744L55.2375 119.72L53.7335 118.696L54.1175 118.024L55.7495 118.808L55.8935 117H56.6615L56.7895 118.808L58.4215 118.024L58.8215 118.696L57.3175 119.72ZM65.3169 119.72L66.8209 120.744L66.4209 121.4L64.7889 120.616L64.6609 122.424H63.8929L63.7489 120.616L62.1169 121.4L61.7329 120.744L63.2369 119.72L61.7329 118.696L62.1169 118.024L63.7489 118.808L63.8929 117H64.6609L64.7889 118.808L66.4209 118.024L66.8209 118.696L65.3169 119.72ZM73.3163 119.72L74.8203 120.744L74.4203 121.4L72.7883 120.616L72.6603 122.424H71.8923L71.7483 120.616L70.1163 121.4L69.7323 120.744L71.2363 119.72L69.7323 118.696L70.1163 118.024L71.7483 118.808L71.8923 117H72.6603L72.7883 118.808L74.4203 118.024L74.8203 118.696L73.3163 119.72ZM81.3156 119.72L82.8196 120.744L82.4196 121.4L80.7876 120.616L80.6596 122.424H79.8916L79.7476 120.616L78.1156 121.4L77.7316 120.744L79.2356 119.72L77.7316 118.696L78.1156 118.024L79.7476 118.808L79.8916 117H80.6596L80.7876 118.808L82.4196 118.024L82.8196 118.696L81.3156 119.72ZM89.315 119.72L90.819 120.744L90.419 121.4L88.787 120.616L88.659 122.424H87.891L87.747 120.616L86.115 121.4L85.731 120.744L87.235 119.72L85.731 118.696L86.115 118.024L87.747 118.808L87.891 117H88.659L88.787 118.808L90.419 118.024L90.819 118.696L89.315 119.72ZM97.3144 119.72L98.8184 120.744L98.4184 121.4L96.7864 120.616L96.6584 122.424H95.8904L95.7464 120.616L94.1144 121.4L93.7304 120.744L95.2344 119.72L93.7304 118.696L94.1144 118.024L95.7464 118.808L95.8904 117H96.6584L96.7864 118.808L98.4184 118.024L98.8184 118.696L97.3144 119.72ZM105.314 119.72L106.818 120.744L106.418 121.4L104.786 120.616L104.658 122.424H103.89L103.746 120.616L102.114 121.4L101.73 120.744L103.234 119.72L101.73 118.696L102.114 118.024L103.746 118.808L103.89 117H104.658L104.786 118.808L106.418 118.024L106.818 118.696L105.314 119.72ZM113.313 119.72L114.817 120.744L114.417 121.4L112.785 120.616L112.657 122.424H111.889L111.745 120.616L110.113 121.4L109.729 120.744L111.233 119.72L109.729 118.696L110.113 118.024L111.745 118.808L111.889 117H112.657L112.785 118.808L114.417 118.024L114.817 118.696L113.313 119.72ZM121.313 119.72L122.817 120.744L122.417 121.4L120.785 120.616L120.657 122.424H119.889L119.745 120.616L118.113 121.4L117.729 120.744L119.233 119.72L117.729 118.696L118.113 118.024L119.745 118.808L119.889 117H120.657L120.785 118.808L122.417 118.024L122.817 118.696L121.313 119.72ZM129.312 119.72L130.816 120.744L130.416 121.4L128.784 120.616L128.656 122.424H127.888L127.744 120.616L126.112 121.4L125.728 120.744L127.232 119.72L125.728 118.696L126.112 118.024L127.744 118.808L127.888 117H128.656L128.784 118.808L130.416 118.024L130.816 118.696L129.312 119.72ZM137.311 119.72L138.815 120.744L138.415 121.4L136.783 120.616L136.655 122.424H135.887L135.743 120.616L134.111 121.4L133.727 120.744L135.231 119.72L133.727 118.696L134.111 118.024L135.743 118.808L135.887 117H136.655L136.783 118.808L138.415 118.024L138.815 118.696L137.311 119.72ZM145.311 119.72L146.815 120.744L146.415 121.4L144.783 120.616L144.655 122.424H143.887L143.743 120.616L142.111 121.4L141.727 120.744L143.231 119.72L141.727 118.696L142.111 118.024L143.743 118.808L143.887 117H144.655L144.783 118.808L146.415 118.024L146.815 118.696L145.311 119.72ZM153.31 119.72L154.814 120.744L154.414 121.4L152.782 120.616L152.654 122.424H151.886L151.742 120.616L150.11 121.4L149.726 120.744L151.23 119.72L149.726 118.696L150.11 118.024L151.742 118.808L151.886 117H152.654L152.782 118.808L154.414 118.024L154.814 118.696L153.31 119.72ZM161.309 119.72L162.813 120.744L162.413 121.4L160.781 120.616L160.653 122.424H159.885L159.741 120.616L158.109 121.4L157.725 120.744L159.229 119.72L157.725 118.696L158.109 118.024L159.741 118.808L159.885 117H160.653L160.781 118.808L162.413 118.024L162.813 118.696L161.309 119.72Z" fill="white"/>
</svg>
