<svg width="1174" height="410" viewBox="0 0 1174 410" fill="none" xmlns="http://www.w3.org/2000/svg">
<circle cx="382" cy="205" r="204.5" stroke="#5C5C5C"/>
<path d="M11.872 248.78C13.1227 249.079 14.0933 249.667 14.784 250.544C15.4747 251.421 15.82 252.485 15.82 253.736C15.82 254.744 15.596 255.649 15.148 256.452C14.7 257.236 14.0373 257.861 13.16 258.328C12.3013 258.776 11.2747 259 10.08 259H2.744V240.52H9.016C10.5653 240.52 11.7787 240.94 12.656 241.78C13.552 242.62 14 243.703 14 245.028C14 245.849 13.8133 246.587 13.44 247.24C13.0853 247.875 12.5627 248.388 11.872 248.78ZM4.2 241.836V248.388H8.876C10.052 248.388 10.948 248.089 11.564 247.492C12.18 246.876 12.488 246.083 12.488 245.112C12.488 244.141 12.1893 243.348 11.592 242.732C10.9947 242.116 10.0893 241.808 8.876 241.808L4.2 241.836ZM9.94 257.684C11.34 257.684 12.4227 257.32 13.188 256.592C13.9533 255.845 14.336 254.884 14.336 253.708C14.336 252.532 13.9533 251.571 13.188 250.824C12.4227 250.077 11.34 249.704 9.94 249.704H4.2V257.684H9.94ZM25.7119 259.28C24.4425 259.28 23.2665 258.972 22.1839 258.356C21.1199 257.721 20.2799 256.863 19.6639 255.78C19.0479 254.697 18.7399 253.512 18.7399 252.224C18.7399 250.936 19.0479 249.76 19.6639 248.696C20.2799 247.613 21.1199 246.764 22.1839 246.148C23.2665 245.513 24.4519 245.196 25.7399 245.196C26.8785 245.196 27.9145 245.448 28.8479 245.952C29.7812 246.437 30.5652 247.109 31.1999 247.968L30.1919 248.78C29.0345 247.268 27.5505 246.512 25.7399 246.512C24.6945 246.512 23.7519 246.764 22.9119 247.268C22.0719 247.772 21.4092 248.463 20.9239 249.34C20.4385 250.217 20.1959 251.179 20.1959 252.224C20.1959 253.288 20.4385 254.259 20.9239 255.136C21.4092 256.013 22.0719 256.704 22.9119 257.208C23.7519 257.712 24.6852 257.964 25.7119 257.964C27.5225 257.964 29.0159 257.208 30.1919 255.696L31.1999 256.508C30.5652 257.367 29.7719 258.048 28.8199 258.552C27.8865 259.037 26.8505 259.28 25.7119 259.28ZM46.6837 252.56H35.3717C35.4277 253.605 35.6983 254.539 36.1837 255.36C36.6877 256.181 37.3503 256.825 38.1717 257.292C39.0117 257.74 39.9357 257.964 40.9437 257.964C42.7357 257.964 44.2383 257.255 45.4517 255.836L46.3477 256.76C45.6757 257.544 44.873 258.16 43.9397 258.608C43.0063 259.056 41.9983 259.28 40.9157 259.28C39.6277 259.28 38.4423 258.972 37.3597 258.356C36.2957 257.721 35.4557 256.872 34.8397 255.808C34.2237 254.725 33.9157 253.54 33.9157 252.252C33.9157 250.964 34.2143 249.779 34.8117 248.696C35.4277 247.613 36.2583 246.764 37.3037 246.148C38.349 245.513 39.497 245.196 40.7477 245.196C41.849 245.196 42.857 245.448 43.7717 245.952C44.705 246.437 45.4423 247.137 45.9837 248.052C46.525 248.967 46.7957 250.021 46.7957 251.216C46.7957 251.813 46.7583 252.261 46.6837 252.56ZM40.6917 246.484C39.329 246.484 38.1623 246.941 37.1917 247.856C36.221 248.752 35.633 249.9 35.4277 251.3H45.3397C45.377 250.329 45.1903 249.48 44.7797 248.752C44.369 248.024 43.7997 247.464 43.0717 247.072C42.3437 246.68 41.5503 246.484 40.6917 246.484ZM58.8228 245.476H60.2228V259H58.8228V245.476ZM69.2668 259H67.4468L60.6428 251.664L66.7748 245.476H68.6228L62.4908 251.636L69.2668 259ZM79.4367 245.196C80.6873 245.196 81.826 245.513 82.8527 246.148C83.8793 246.764 84.682 247.613 85.2607 248.696C85.858 249.76 86.1567 250.936 86.1567 252.224C86.1567 253.531 85.858 254.725 85.2607 255.808C84.682 256.872 83.8793 257.721 82.8527 258.356C81.826 258.972 80.6873 259.28 79.4367 259.28C78.298 259.28 77.234 259.028 76.2447 258.524C75.2553 258.001 74.4993 257.292 73.9767 256.396V264.04H72.5767V245.476H73.9207V248.192C74.4247 247.277 75.1713 246.549 76.1607 246.008C77.1687 245.467 78.2607 245.196 79.4367 245.196ZM79.2967 257.964C80.3233 257.964 81.2473 257.721 82.0687 257.236C82.89 256.732 83.534 256.041 84.0007 255.164C84.4673 254.287 84.7007 253.316 84.7007 252.252C84.7007 251.188 84.4673 250.217 84.0007 249.34C83.534 248.463 82.89 247.772 82.0687 247.268C81.2473 246.764 80.3233 246.512 79.2967 246.512C78.3633 246.512 77.486 246.717 76.6647 247.128C75.862 247.539 75.2087 248.173 74.7047 249.032C74.2193 249.891 73.9767 250.955 73.9767 252.224C73.9767 253.512 74.2193 254.585 74.7047 255.444C75.2087 256.303 75.862 256.937 76.6647 257.348C77.486 257.759 78.3633 257.964 79.2967 257.964ZM102.055 252.56H90.7428C90.7988 253.605 91.0694 254.539 91.5548 255.36C92.0588 256.181 92.7214 256.825 93.5428 257.292C94.3828 257.74 95.3068 257.964 96.3148 257.964C98.1068 257.964 99.6094 257.255 100.823 255.836L101.719 256.76C101.047 257.544 100.244 258.16 99.3108 258.608C98.3774 259.056 97.3694 259.28 96.2868 259.28C94.9988 259.28 93.8134 258.972 92.7308 258.356C91.6668 257.721 90.8268 256.872 90.2108 255.808C89.5948 254.725 89.2868 253.54 89.2868 252.252C89.2868 250.964 89.5854 249.779 90.1828 248.696C90.7988 247.613 91.6294 246.764 92.6748 246.148C93.7201 245.513 94.8681 245.196 96.1188 245.196C97.2201 245.196 98.2281 245.448 99.1428 245.952C100.076 246.437 100.813 247.137 101.355 248.052C101.896 248.967 102.167 250.021 102.167 251.216C102.167 251.813 102.129 252.261 102.055 252.56ZM96.0628 246.484C94.7001 246.484 93.5334 246.941 92.5628 247.856C91.5921 248.752 91.0041 249.9 90.7988 251.3H100.711C100.748 250.329 100.561 249.48 100.151 248.752C99.7401 248.024 99.1708 247.464 98.4428 247.072C97.7148 246.68 96.9214 246.484 96.0628 246.484ZM110.882 245.196C112.413 245.196 113.636 245.653 114.55 246.568C115.484 247.483 115.95 248.799 115.95 250.516V259H114.606V256.872C114.121 257.637 113.458 258.235 112.618 258.664C111.778 259.075 110.826 259.28 109.762 259.28C108.456 259.28 107.354 258.963 106.458 258.328C105.562 257.675 105.114 256.769 105.114 255.612C105.114 254.511 105.544 253.633 106.402 252.98C107.261 252.327 108.4 252 109.818 252H114.522V250.46C114.522 249.172 114.186 248.192 113.514 247.52C112.842 246.848 111.937 246.512 110.798 246.512C109.94 246.512 109.184 246.708 108.53 247.1C107.877 247.473 107.261 248.033 106.682 248.78L105.702 247.996C107.009 246.129 108.736 245.196 110.882 245.196ZM109.902 258.048C110.724 258.048 111.489 257.871 112.198 257.516C112.908 257.161 113.468 256.676 113.878 256.06C114.308 255.425 114.522 254.725 114.522 253.96V253.204H109.958C108.857 253.204 108.017 253.409 107.438 253.82C106.86 254.212 106.57 254.781 106.57 255.528C106.57 256.349 106.897 256.975 107.55 257.404C108.204 257.833 108.988 258.048 109.902 258.048ZM123.644 246.764H118.688V245.476H129.972V246.764H125.044V259H123.644V246.764ZM143.892 245.196V259H142.464V248.08L133.868 259.28H133.28V245.476H134.68V256.452L143.304 245.196H143.892ZM156.868 251.776C157.727 252.037 158.399 252.448 158.884 253.008C159.37 253.568 159.612 254.249 159.612 255.052C159.612 256.209 159.192 257.161 158.352 257.908C157.531 258.636 156.392 259 154.936 259H149.084V245.476H154.516C155.786 245.476 156.784 245.784 157.512 246.4C158.24 247.016 158.604 247.837 158.604 248.864C158.604 249.499 158.446 250.068 158.128 250.572C157.83 251.076 157.41 251.477 156.868 251.776ZM150.484 251.3H154.46C155.356 251.3 156.028 251.085 156.476 250.656C156.943 250.208 157.176 249.629 157.176 248.92C157.176 248.229 156.943 247.697 156.476 247.324C156.028 246.951 155.356 246.764 154.46 246.764H150.484V251.3ZM154.824 257.712C155.888 257.712 156.71 257.469 157.288 256.984C157.867 256.48 158.156 255.845 158.156 255.08C158.156 254.315 157.867 253.708 157.288 253.26C156.71 252.793 155.888 252.56 154.824 252.56H150.484V257.712H154.824ZM164.069 245.476H165.469V251.048H173.001V245.476H174.401V259H173.001V252.364H165.469V259H164.069V245.476ZM179.6 245.476H181V250.516H184.556C186.068 250.516 187.263 250.908 188.14 251.692C189.017 252.457 189.456 253.475 189.456 254.744C189.456 256.032 189.017 257.068 188.14 257.852C187.263 258.617 186.068 259 184.556 259H179.6V245.476ZM192.172 245.476H193.572V259H192.172V245.476ZM184.472 257.712C185.592 257.712 186.451 257.451 187.048 256.928C187.664 256.387 187.972 255.668 187.972 254.772C187.972 253.876 187.664 253.157 187.048 252.616C186.451 252.075 185.592 251.804 184.472 251.804H181V257.712H184.472ZM210.5 252.56H199.188C199.244 253.605 199.515 254.539 200 255.36C200.504 256.181 201.167 256.825 201.988 257.292C202.828 257.74 203.752 257.964 204.76 257.964C206.552 257.964 208.055 257.255 209.268 255.836L210.164 256.76C209.492 257.544 208.689 258.16 207.756 258.608C206.823 259.056 205.815 259.28 204.732 259.28C203.444 259.28 202.259 258.972 201.176 258.356C200.112 257.721 199.272 256.872 198.656 255.808C198.04 254.725 197.732 253.54 197.732 252.252C197.732 250.964 198.031 249.779 198.628 248.696C199.244 247.613 200.075 246.764 201.12 246.148C202.165 245.513 203.313 245.196 204.564 245.196C205.665 245.196 206.673 245.448 207.588 245.952C208.521 246.437 209.259 247.137 209.8 248.052C210.341 248.967 210.612 250.021 210.612 251.216C210.612 251.813 210.575 252.261 210.5 252.56ZM204.508 246.484C203.145 246.484 201.979 246.941 201.008 247.856C200.037 248.752 199.449 249.9 199.244 251.3H209.156C209.193 250.329 209.007 249.48 208.596 248.752C208.185 248.024 207.616 247.464 206.888 247.072C206.16 246.68 205.367 246.484 204.508 246.484ZM222.639 245.476H232.775V259H231.347V246.764H224.039V259H222.639V245.476ZM247.724 245.476V259H246.296V246.764H240.556L240.472 248.808C240.36 251.403 240.164 253.428 239.884 254.884C239.622 256.34 239.212 257.404 238.652 258.076C238.092 258.748 237.326 259.084 236.356 259.084C236.206 259.084 236.02 259.056 235.796 259V257.768C235.908 257.787 236.076 257.796 236.3 257.796C236.972 257.796 237.494 257.46 237.868 256.788C238.26 256.097 238.549 255.117 238.736 253.848C238.922 252.56 239.053 250.861 239.128 248.752L239.24 245.476H247.724ZM258.872 259.28C257.603 259.28 256.427 258.972 255.344 258.356C254.28 257.721 253.44 256.863 252.824 255.78C252.208 254.697 251.9 253.512 251.9 252.224C251.9 250.917 252.208 249.732 252.824 248.668C253.44 247.585 254.28 246.736 255.344 246.12C256.427 245.504 257.612 245.196 258.9 245.196C260.188 245.196 261.364 245.513 262.428 246.148C263.492 246.764 264.332 247.613 264.948 248.696C265.583 249.76 265.9 250.936 265.9 252.224C265.9 253.512 265.583 254.697 264.948 255.78C264.332 256.863 263.483 257.721 262.4 258.356C261.336 258.972 260.16 259.28 258.872 259.28ZM258.872 257.964C259.899 257.964 260.832 257.712 261.672 257.208C262.531 256.704 263.203 256.023 263.688 255.164C264.192 254.287 264.444 253.316 264.444 252.252C264.444 251.169 264.192 250.199 263.688 249.34C263.203 248.463 262.54 247.772 261.7 247.268C260.86 246.764 259.927 246.512 258.9 246.512C257.855 246.512 256.912 246.764 256.072 247.268C255.232 247.772 254.569 248.463 254.084 249.34C253.599 250.199 253.356 251.169 253.356 252.252C253.356 253.316 253.599 254.287 254.084 255.164C254.569 256.023 255.232 256.704 256.072 257.208C256.912 257.712 257.845 257.964 258.872 257.964ZM288.337 259H270.081V245.476H271.481V257.712H278.117V245.476H279.545V257.712H286.181V245.476H287.581V257.712H289.737V262.948H288.337V259ZM297.941 245.196C299.471 245.196 300.694 245.653 301.609 246.568C302.542 247.483 303.009 248.799 303.009 250.516V259H301.665V256.872C301.179 257.637 300.517 258.235 299.677 258.664C298.837 259.075 297.885 259.28 296.821 259.28C295.514 259.28 294.413 258.963 293.517 258.328C292.621 257.675 292.173 256.769 292.173 255.612C292.173 254.511 292.602 253.633 293.461 252.98C294.319 252.327 295.458 252 296.877 252H301.581V250.46C301.581 249.172 301.245 248.192 300.573 247.52C299.901 246.848 298.995 246.512 297.857 246.512C296.998 246.512 296.242 246.708 295.589 247.1C294.935 247.473 294.319 248.033 293.741 248.78L292.761 247.996C294.067 246.129 295.794 245.196 297.941 245.196ZM296.961 258.048C297.782 258.048 298.547 257.871 299.257 257.516C299.966 257.161 300.526 256.676 300.937 256.06C301.366 255.425 301.581 254.725 301.581 253.96V253.204H297.017C295.915 253.204 295.075 253.409 294.497 253.82C293.918 254.212 293.629 254.781 293.629 255.528C293.629 256.349 293.955 256.975 294.609 257.404C295.262 257.833 296.046 258.048 296.961 258.048ZM319.99 257.712V262.948H318.59V259H307.026V262.948H305.626V257.712H306.998C307.652 257.021 308.128 256.004 308.426 254.66C308.725 253.316 308.921 251.393 309.014 248.892L309.126 245.476H317.834V257.712H319.99ZM308.594 257.712H316.434V246.764H310.442L310.358 248.92C310.19 253.437 309.602 256.368 308.594 257.712ZM323.647 245.476H325.047V259H323.647V245.476ZM334.091 259H332.271L325.467 251.664L331.599 245.476H333.447L327.315 251.636L334.091 259ZM348.013 245.196V259H346.585V248.08L337.989 259.28H337.401V245.476H338.801V256.452L347.425 245.196H348.013ZM366.989 259.28C365.72 259.28 364.544 258.972 363.461 258.356C362.397 257.721 361.557 256.863 360.941 255.78C360.325 254.697 360.017 253.512 360.017 252.224C360.017 250.936 360.325 249.76 360.941 248.696C361.557 247.613 362.397 246.764 363.461 246.148C364.544 245.513 365.729 245.196 367.017 245.196C368.156 245.196 369.192 245.448 370.125 245.952C371.059 246.437 371.843 247.109 372.477 247.968L371.469 248.78C370.312 247.268 368.828 246.512 367.017 246.512C365.972 246.512 365.029 246.764 364.189 247.268C363.349 247.772 362.687 248.463 362.201 249.34C361.716 250.217 361.473 251.179 361.473 252.224C361.473 253.288 361.716 254.259 362.201 255.136C362.687 256.013 363.349 256.704 364.189 257.208C365.029 257.712 365.963 257.964 366.989 257.964C368.8 257.964 370.293 257.208 371.469 255.696L372.477 256.508C371.843 257.367 371.049 258.048 370.097 258.552C369.164 259.037 368.128 259.28 366.989 259.28ZM379.554 246.764H374.598V245.476H385.882V246.764H380.954V259H379.554V246.764ZM395.044 259.28C393.775 259.28 392.599 258.972 391.516 258.356C390.452 257.721 389.612 256.863 388.996 255.78C388.38 254.697 388.072 253.512 388.072 252.224C388.072 250.917 388.38 249.732 388.996 248.668C389.612 247.585 390.452 246.736 391.516 246.12C392.599 245.504 393.784 245.196 395.072 245.196C396.36 245.196 397.536 245.513 398.6 246.148C399.664 246.764 400.504 247.613 401.12 248.696C401.755 249.76 402.072 250.936 402.072 252.224C402.072 253.512 401.755 254.697 401.12 255.78C400.504 256.863 399.655 257.721 398.572 258.356C397.508 258.972 396.332 259.28 395.044 259.28ZM395.044 257.964C396.071 257.964 397.004 257.712 397.844 257.208C398.703 256.704 399.375 256.023 399.86 255.164C400.364 254.287 400.616 253.316 400.616 252.252C400.616 251.169 400.364 250.199 399.86 249.34C399.375 248.463 398.712 247.772 397.872 247.268C397.032 246.764 396.099 246.512 395.072 246.512C394.027 246.512 393.084 246.764 392.244 247.268C391.404 247.772 390.741 248.463 390.256 249.34C389.771 250.199 389.528 251.169 389.528 252.252C389.528 253.316 389.771 254.287 390.256 255.164C390.741 256.023 391.404 256.704 392.244 257.208C393.084 257.712 394.017 257.964 395.044 257.964ZM416.024 245.476V259H414.596V246.764H408.856L408.772 248.808C408.66 251.403 408.464 253.428 408.184 254.884C407.923 256.34 407.512 257.404 406.952 258.076C406.392 258.748 405.627 259.084 404.656 259.084C404.507 259.084 404.32 259.056 404.096 259V257.768C404.208 257.787 404.376 257.796 404.6 257.796C405.272 257.796 405.795 257.46 406.168 256.788C406.56 256.097 406.85 255.117 407.036 253.848C407.223 252.56 407.354 250.861 407.428 248.752L407.54 245.476H416.024ZM431.849 245.196V259H430.421V248.08L421.825 259.28H421.237V245.476H422.637V256.452L431.261 245.196H431.849ZM447.906 259H437.042V245.476H438.442V257.712H445.75V245.476H447.15V257.712H449.306V262.948H447.906V259ZM452.983 245.476H454.383V250.516H457.939C459.451 250.516 460.646 250.908 461.523 251.692C462.4 252.457 462.839 253.475 462.839 254.744C462.839 256.032 462.4 257.068 461.523 257.852C460.646 258.617 459.451 259 457.939 259H452.983V245.476ZM465.555 245.476H466.955V259H465.555V245.476ZM457.855 257.712C458.975 257.712 459.834 257.451 460.431 256.928C461.047 256.387 461.355 255.668 461.355 254.772C461.355 253.876 461.047 253.157 460.431 252.616C459.834 252.075 458.975 251.804 457.855 251.804H454.383V257.712H457.855ZM487.783 251.776C488.641 252.037 489.313 252.448 489.799 253.008C490.284 253.568 490.527 254.249 490.527 255.052C490.527 256.209 490.107 257.161 489.267 257.908C488.445 258.636 487.307 259 485.851 259H479.999V245.476H485.431C486.7 245.476 487.699 245.784 488.427 246.4C489.155 247.016 489.519 247.837 489.519 248.864C489.519 249.499 489.36 250.068 489.043 250.572C488.744 251.076 488.324 251.477 487.783 251.776ZM481.399 251.3H485.375C486.271 251.3 486.943 251.085 487.391 250.656C487.857 250.208 488.091 249.629 488.091 248.92C488.091 248.229 487.857 247.697 487.391 247.324C486.943 246.951 486.271 246.764 485.375 246.764H481.399V251.3ZM485.739 257.712C486.803 257.712 487.624 257.469 488.203 256.984C488.781 256.48 489.071 255.845 489.071 255.08C489.071 254.315 488.781 253.708 488.203 253.26C487.624 252.793 486.803 252.56 485.739 252.56H481.399V257.712H485.739ZM8.54 294.28C7.27067 294.28 6.09467 293.972 5.012 293.356C3.948 292.721 3.108 291.863 2.492 290.78C1.876 289.697 1.568 288.512 1.568 287.224C1.568 285.917 1.876 284.732 2.492 283.668C3.108 282.585 3.948 281.736 5.012 281.12C6.09467 280.504 7.28 280.196 8.568 280.196C9.856 280.196 11.032 280.513 12.096 281.148C13.16 281.764 14 282.613 14.616 283.696C15.2507 284.76 15.568 285.936 15.568 287.224C15.568 288.512 15.2507 289.697 14.616 290.78C14 291.863 13.1507 292.721 12.068 293.356C11.004 293.972 9.828 294.28 8.54 294.28ZM8.54 292.964C9.56667 292.964 10.5 292.712 11.34 292.208C12.1987 291.704 12.8707 291.023 13.356 290.164C13.86 289.287 14.112 288.316 14.112 287.252C14.112 286.169 13.86 285.199 13.356 284.34C12.8707 283.463 12.208 282.772 11.368 282.268C10.528 281.764 9.59467 281.512 8.568 281.512C7.52267 281.512 6.58 281.764 5.74 282.268C4.9 282.772 4.23733 283.463 3.752 284.34C3.26667 285.199 3.024 286.169 3.024 287.252C3.024 288.316 3.26667 289.287 3.752 290.164C4.23733 291.023 4.9 291.704 5.74 292.208C6.58 292.712 7.51333 292.964 8.54 292.964ZM31.3224 292.712V297.948H29.9224V294H18.3584V297.948H16.9584V292.712H18.3304C18.9837 292.021 19.4597 291.004 19.7584 289.66C20.057 288.316 20.253 286.393 20.3464 283.892L20.4584 280.476H29.1664V292.712H31.3224ZM19.9264 292.712H27.7664V281.764H21.7744L21.6904 283.92C21.5224 288.437 20.9344 291.368 19.9264 292.712ZM34.979 280.476H36.379V286.048H43.911V280.476H45.311V294H43.911V287.364H36.379V294H34.979V280.476ZM56.4463 294.28C55.1769 294.28 54.0009 293.972 52.9183 293.356C51.8543 292.721 51.0143 291.863 50.3983 290.78C49.7823 289.697 49.4743 288.512 49.4743 287.224C49.4743 285.917 49.7823 284.732 50.3983 283.668C51.0143 282.585 51.8543 281.736 52.9183 281.12C54.0009 280.504 55.1863 280.196 56.4743 280.196C57.7623 280.196 58.9383 280.513 60.0023 281.148C61.0663 281.764 61.9063 282.613 62.5223 283.696C63.1569 284.76 63.4743 285.936 63.4743 287.224C63.4743 288.512 63.1569 289.697 62.5223 290.78C61.9063 291.863 61.0569 292.721 59.9743 293.356C58.9103 293.972 57.7343 294.28 56.4463 294.28ZM56.4463 292.964C57.4729 292.964 58.4063 292.712 59.2463 292.208C60.1049 291.704 60.7769 291.023 61.2623 290.164C61.7663 289.287 62.0183 288.316 62.0183 287.252C62.0183 286.169 61.7663 285.199 61.2623 284.34C60.7769 283.463 60.1143 282.772 59.2743 282.268C58.4343 281.764 57.5009 281.512 56.4743 281.512C55.4289 281.512 54.4863 281.764 53.6463 282.268C52.8063 282.772 52.1436 283.463 51.6583 284.34C51.1729 285.199 50.9303 286.169 50.9303 287.252C50.9303 288.316 51.1729 289.287 51.6583 290.164C52.1436 291.023 52.8063 291.704 53.6463 292.208C54.4863 292.712 55.4196 292.964 56.4463 292.964ZM67.6548 280.196H68.2428L74.6548 288.204L81.0668 280.196H81.6548V294H80.2268V283.36L74.9628 289.94H74.3468L69.0548 283.332V294H67.6548V280.196ZM94.6704 280.196H95.2584L101.67 288.204L108.082 280.196H108.67V294H107.242V283.36L101.978 289.94H101.362L96.0704 283.332V294H94.6704V280.196ZM125.57 287.56H114.258C114.314 288.605 114.585 289.539 115.07 290.36C115.574 291.181 116.237 291.825 117.058 292.292C117.898 292.74 118.822 292.964 119.83 292.964C121.622 292.964 123.125 292.255 124.338 290.836L125.234 291.76C124.562 292.544 123.76 293.16 122.826 293.608C121.893 294.056 120.885 294.28 119.802 294.28C118.514 294.28 117.329 293.972 116.246 293.356C115.182 292.721 114.342 291.872 113.726 290.808C113.11 289.725 112.802 288.54 112.802 287.252C112.802 285.964 113.101 284.779 113.698 283.696C114.314 282.613 115.145 281.764 116.19 281.148C117.236 280.513 118.384 280.196 119.634 280.196C120.736 280.196 121.744 280.448 122.658 280.952C123.592 281.437 124.329 282.137 124.87 283.052C125.412 283.967 125.682 285.021 125.682 286.216C125.682 286.813 125.645 287.261 125.57 287.56ZM119.578 281.484C118.216 281.484 117.049 281.941 116.078 282.856C115.108 283.752 114.52 284.9 114.314 286.3H124.226C124.264 285.329 124.077 284.48 123.666 283.752C123.256 283.024 122.686 282.464 121.958 282.072C121.23 281.68 120.437 281.484 119.578 281.484ZM135.798 294.28C134.528 294.28 133.352 293.972 132.27 293.356C131.206 292.721 130.366 291.863 129.75 290.78C129.134 289.697 128.826 288.512 128.826 287.224C128.826 285.936 129.134 284.76 129.75 283.696C130.366 282.613 131.206 281.764 132.27 281.148C133.352 280.513 134.538 280.196 135.826 280.196C136.964 280.196 138 280.448 138.934 280.952C139.867 281.437 140.651 282.109 141.286 282.968L140.278 283.78C139.12 282.268 137.636 281.512 135.826 281.512C134.78 281.512 133.838 281.764 132.998 282.268C132.158 282.772 131.495 283.463 131.01 284.34C130.524 285.217 130.282 286.179 130.282 287.224C130.282 288.288 130.524 289.259 131.01 290.136C131.495 291.013 132.158 291.704 132.998 292.208C133.838 292.712 134.771 292.964 135.798 292.964C137.608 292.964 139.102 292.208 140.278 290.696L141.286 291.508C140.651 292.367 139.858 293.048 138.906 293.552C137.972 294.037 136.936 294.28 135.798 294.28ZM148.363 281.764H143.407V280.476H154.691V281.764H149.763V294H148.363V281.764ZM169.649 287.56H158.337C158.393 288.605 158.663 289.539 159.149 290.36C159.653 291.181 160.315 291.825 161.137 292.292C161.977 292.74 162.901 292.964 163.909 292.964C165.701 292.964 167.203 292.255 168.417 290.836L169.312 291.76C168.641 292.544 167.838 293.16 166.905 293.608C165.971 294.056 164.963 294.28 163.881 294.28C162.593 294.28 161.407 293.972 160.325 293.356C159.261 292.721 158.421 291.872 157.805 290.808C157.189 289.725 156.881 288.54 156.881 287.252C156.881 285.964 157.179 284.779 157.777 283.696C158.393 282.613 159.223 281.764 160.269 281.148C161.314 280.513 162.462 280.196 163.713 280.196C164.814 280.196 165.822 280.448 166.737 280.952C167.67 281.437 168.407 282.137 168.949 283.052C169.49 283.967 169.761 285.021 169.761 286.216C169.761 286.813 169.723 287.261 169.649 287.56ZM163.657 281.484C162.294 281.484 161.127 281.941 160.157 282.856C159.186 283.752 158.598 284.9 158.393 286.3H168.305C168.342 285.329 168.155 284.48 167.745 283.752C167.334 283.024 166.765 282.464 166.037 282.072C165.309 281.68 164.515 281.484 163.657 281.484Z" fill="white"/>
<path d="M37.2 187.12H15.6L12.64 194H1.04L24.64 140.24H28.24L51.76 194H40.16L37.2 187.12ZM26.4 160.4L19.36 178.24H33.44L26.4 160.4ZM96.4106 194L73.7706 166.48V194H62.9706V141.2H73.7706V165.68L93.9306 141.2H106.811L86.5706 166.08L109.451 194H96.4106ZM165.844 140.24V194H155.044V161.28L124.084 194.96H120.564V141.2H131.364V173.6L162.244 140.24H165.844Z" fill="white"/>
<circle cx="862.5" cy="159.5" r="73.5" fill="#FF4261"/>
<path d="M757 64.875H786.091V72.7727H774.727V83.2273H786.091V91.125H757V83.2273H768.364V72.7727H757V64.875ZM757 102.432V93.9091L786.091 103.511V114.307L757 123.909V115.386L778.08 109.023V108.795L757 102.432ZM768.477 100.841V116.864H762.568V100.841H768.477ZM786.091 126.711V134.609H770.864V134.836L786.091 145.177V151.881H757V143.984H772.284V143.813L757 133.302V126.711H786.091ZM793.932 142.165V147.109C792.085 147.099 790.608 146.394 789.5 144.992C788.402 143.591 787.852 141.701 787.852 139.325C787.852 136.929 788.402 135.03 789.5 133.629C790.608 132.227 792.085 131.531 793.932 131.54V136.427C793.335 136.417 792.786 136.63 792.284 137.066C791.792 137.511 791.545 138.264 791.545 139.325C791.545 140.338 791.787 141.062 792.27 141.498C792.753 141.933 793.307 142.156 793.932 142.165ZM779.727 154.822H786.091V180.106H779.727V171.356H757V163.572H779.727V154.822ZM786.091 183.078V190.976H770.864V191.203L786.091 201.544V208.249H757V200.351H772.284V200.18L757 189.669V183.078H786.091Z" fill="white"/>
<path d="M802.727 279.455V326H790.273V289.455H774.545V326H762.091V279.455H802.727ZM809.267 326V316.273L810.54 316.091C812.085 315.848 813.366 315.182 814.381 314.091C815.411 312.985 816.199 311.235 816.744 308.841C817.305 306.432 817.661 303.152 817.812 299L818.54 279.455H852.267V326H840.085V289.273H830.176L829.449 303.909C829.176 309.333 828.449 313.659 827.267 316.886C826.085 320.114 824.29 322.439 821.881 323.864C819.472 325.288 816.297 326 812.358 326H809.267ZM903.341 302.727C903.341 307.909 902.333 312.28 900.318 315.841C898.303 319.386 895.583 322.076 892.159 323.909C888.735 325.727 884.917 326.636 880.705 326.636C876.462 326.636 872.629 325.72 869.205 323.886C865.795 322.038 863.083 319.341 861.068 315.795C859.068 312.235 858.068 307.879 858.068 302.727C858.068 297.545 859.068 293.182 861.068 289.636C863.083 286.076 865.795 283.386 869.205 281.568C872.629 279.735 876.462 278.818 880.705 278.818C884.917 278.818 888.735 279.735 892.159 281.568C895.583 283.386 898.303 286.076 900.318 289.636C902.333 293.182 903.341 297.545 903.341 302.727ZM890.341 302.727C890.341 299.939 889.97 297.591 889.227 295.682C888.5 293.758 887.417 292.303 885.977 291.318C884.553 290.318 882.795 289.818 880.705 289.818C878.614 289.818 876.848 290.318 875.409 291.318C873.985 292.303 872.902 293.758 872.159 295.682C871.432 297.591 871.068 299.939 871.068 302.727C871.068 305.515 871.432 307.871 872.159 309.795C872.902 311.705 873.985 313.159 875.409 314.159C876.848 315.144 878.614 315.636 880.705 315.636C882.795 315.636 884.553 315.144 885.977 314.159C887.417 313.159 888.5 311.705 889.227 309.795C889.97 307.871 890.341 305.515 890.341 302.727ZM976.733 316.636L976.097 336.909H964.915V326H961.551V316.636H976.733ZM912.278 279.455H924.551V316.273H935.915V279.455H948.097V316.273H959.188V279.455H971.369V326H912.278V279.455ZM993.091 326H979.455L994.818 279.455H1012.09L1027.45 326H1013.82L1003.64 292.273H1003.27L993.091 326ZM990.545 307.636H1016.18V317.091H990.545V307.636ZM1030.39 337.182V316.273H1033.66C1034.76 315.606 1035.74 314.667 1036.62 313.455C1037.51 312.242 1038.27 310.508 1038.89 308.25C1039.53 305.992 1040 302.97 1040.3 299.182L1041.85 279.455H1074.76V316.273H1079.66V337.182H1067.48V326H1042.57V337.182H1030.39ZM1048.12 316.273H1062.57V289.636H1053.21L1052.48 299.182C1052.27 302.03 1051.95 304.523 1051.51 306.659C1051.08 308.78 1050.57 310.629 1049.98 312.205C1049.41 313.765 1048.79 315.121 1048.12 316.273ZM1112.62 326L1098.35 307.182H1096.57V326H1083.94V279.455H1096.57V297H1098.21L1111.57 279.455H1127.48L1109.76 301.818L1128.48 326H1112.62ZM1138.6 326.636V316.818H1140.88C1142.21 316.818 1143.26 316.712 1144.03 316.5C1144.82 316.273 1145.43 315.879 1145.85 315.318C1146.29 314.742 1146.66 313.939 1146.97 312.909L1147.42 311.545L1129.97 279.455H1142.88L1152.6 298.364L1160.06 279.455H1172.78L1156.78 315.818C1155.91 317.727 1154.86 319.508 1153.65 321.159C1152.44 322.795 1150.93 324.121 1149.12 325.136C1147.32 326.136 1145.09 326.636 1142.42 326.636H1138.6Z" fill="white"/>
<path d="M758.688 259V232.818H765.795V243.045H775.205V232.818H782.312V259H775.205V248.773H765.795V259H758.688ZM796.809 259H789.138L797.78 232.818H807.496L816.138 259H808.468L802.74 240.028H802.536L796.809 259ZM795.377 248.67H809.797V253.989H795.377V248.67ZM833.602 259V253.528L834.318 253.426C835.188 253.29 835.908 252.915 836.479 252.301C837.058 251.679 837.502 250.695 837.808 249.348C838.124 247.993 838.324 246.148 838.409 243.812L838.818 232.818H857.79V259H850.938V238.341H845.364L844.955 246.574C844.801 249.625 844.392 252.058 843.727 253.874C843.063 255.689 842.053 256.997 840.698 257.798C839.342 258.599 837.557 259 835.341 259H833.602ZM865.475 259V232.818H884.345V238.545H872.583V243.045H883.373V248.773H872.583V253.273H884.293V259H865.475ZM892.19 259V232.818H899.298V243.045H908.707V232.818H915.815V259H908.707V248.773H899.298V259H892.19ZM923.51 232.818H930.618V246.523H930.822L940.129 232.818H946.163V259H939.055V245.244H938.902L929.442 259H923.51V232.818ZM953.845 259V232.818H960.953V243.045H970.363V232.818H977.47V259H970.363V248.773H960.953V259H953.845ZM1009.61 242.636H1002.4C1002.35 242.04 1002.21 241.499 1001.99 241.013C1001.78 240.527 1001.48 240.109 1001.09 239.76C1000.72 239.402 1000.26 239.129 999.727 238.942C999.19 238.746 998.58 238.648 997.898 238.648C996.705 238.648 995.695 238.937 994.869 239.517C994.05 240.097 993.428 240.928 993.002 242.01C992.585 243.092 992.376 244.392 992.376 245.909C992.376 247.511 992.589 248.854 993.015 249.936C993.45 251.01 994.076 251.82 994.894 252.365C995.712 252.902 996.697 253.17 997.847 253.17C998.504 253.17 999.092 253.089 999.611 252.928C1000.13 252.757 1000.58 252.514 1000.97 252.199C1001.35 251.884 1001.66 251.504 1001.9 251.061C1002.15 250.609 1002.31 250.102 1002.4 249.54L1009.61 249.591C1009.52 250.699 1009.21 251.828 1008.68 252.979C1008.14 254.121 1007.38 255.178 1006.39 256.149C1005.41 257.112 1004.19 257.888 1002.74 258.476C1001.29 259.064 999.611 259.358 997.694 259.358C995.29 259.358 993.134 258.842 991.225 257.811C989.325 256.78 987.82 255.263 986.712 253.26C985.613 251.257 985.063 248.807 985.063 245.909C985.063 242.994 985.626 240.54 986.751 238.545C987.876 236.543 989.393 235.03 991.302 234.007C993.211 232.976 995.342 232.46 997.694 232.46C999.347 232.46 1000.87 232.686 1002.26 233.138C1003.65 233.589 1004.87 234.25 1005.91 235.119C1006.96 235.98 1007.81 237.041 1008.45 238.303C1009.08 239.564 1009.47 241.009 1009.61 242.636ZM1033.29 259L1025.26 248.415H1024.26V259H1017.15V232.818H1024.26V242.688H1025.18L1032.7 232.818H1041.65L1031.68 245.398L1042.21 259H1033.29ZM1072.15 245.909C1072.15 248.824 1071.58 251.283 1070.45 253.286C1069.32 255.28 1067.79 256.793 1065.86 257.824C1063.93 258.847 1061.79 259.358 1059.42 259.358C1057.03 259.358 1054.87 258.842 1052.95 257.811C1051.03 256.771 1049.5 255.254 1048.37 253.26C1047.25 251.257 1046.68 248.807 1046.68 245.909C1046.68 242.994 1047.25 240.54 1048.37 238.545C1049.5 236.543 1051.03 235.03 1052.95 234.007C1054.87 232.976 1057.03 232.46 1059.42 232.46C1061.79 232.46 1063.93 232.976 1065.86 234.007C1067.79 235.03 1069.32 236.543 1070.45 238.545C1071.58 240.54 1072.15 242.994 1072.15 245.909ZM1064.84 245.909C1064.84 244.341 1064.63 243.02 1064.21 241.946C1063.8 240.864 1063.19 240.045 1062.38 239.491C1061.58 238.929 1060.59 238.648 1059.42 238.648C1058.24 238.648 1057.25 238.929 1056.44 239.491C1055.64 240.045 1055.03 240.864 1054.61 241.946C1054.2 243.02 1054 244.341 1054 245.909C1054 247.477 1054.2 248.803 1054.61 249.885C1055.03 250.959 1055.64 251.777 1056.44 252.339C1057.25 252.893 1058.24 253.17 1059.42 253.17C1060.59 253.17 1061.58 252.893 1062.38 252.339C1063.19 251.777 1063.8 250.959 1064.21 249.885C1064.63 248.803 1064.84 247.477 1064.84 245.909ZM1079.76 232.818H1088.6L1094.69 247.648H1095L1101.08 232.818H1109.93V259H1102.97V243.864H1102.77L1096.94 258.795H1092.75L1086.92 243.761H1086.71V259H1079.76V232.818Z" fill="#A1A1A1"/>
<path d="M839.011 207H809.182L842.79 105.182H880.574L914.182 207H884.352L862.08 133.222H861.284L839.011 207ZM833.443 166.83H889.523V187.511H833.443V166.83ZM929.588 207V105.182H973.537C981.094 105.182 987.706 106.673 993.374 109.656C999.041 112.639 1003.45 116.832 1006.6 122.234C1009.75 127.637 1011.32 133.951 1011.32 141.176C1011.32 148.468 1009.7 154.782 1006.45 160.118C1003.23 165.454 998.71 169.564 992.877 172.447C987.076 175.331 980.299 176.773 972.543 176.773H946.293V155.295H966.975C970.223 155.295 972.99 154.732 975.277 153.605C977.597 152.445 979.37 150.804 980.597 148.683C981.856 146.562 982.486 144.06 982.486 141.176C982.486 138.259 981.856 135.774 980.597 133.719C979.37 131.631 977.597 130.04 975.277 128.946C972.99 127.819 970.223 127.256 966.975 127.256H957.23V207H929.588ZM1024.28 127.455V105.182H1112.77V127.455H1082.15V207H1054.9V127.455H1024.28Z" fill="white"/>
<path d="M835.034 75.8182H827.023C826.966 75.1553 826.814 74.554 826.568 74.0142C826.331 73.4744 826 73.0104 825.574 72.6222C825.157 72.2244 824.651 71.9214 824.054 71.7131C823.457 71.4953 822.78 71.3864 822.023 71.3864C820.697 71.3864 819.575 71.7083 818.656 72.3523C817.747 72.9962 817.056 73.9195 816.582 75.1222C816.118 76.3248 815.886 77.7689 815.886 79.4545C815.886 81.2348 816.123 82.7263 816.597 83.929C817.08 85.1222 817.776 86.0218 818.685 86.6278C819.594 87.2244 820.688 87.5227 821.966 87.5227C822.695 87.5227 823.348 87.4328 823.926 87.2528C824.504 87.0634 825.006 86.7936 825.432 86.4432C825.858 86.0928 826.204 85.6714 826.469 85.179C826.743 84.6771 826.928 84.1136 827.023 83.4886L835.034 83.5455C834.939 84.7765 834.594 86.0312 833.997 87.3097C833.401 88.5786 832.553 89.7528 831.455 90.8324C830.366 91.9025 829.016 92.7642 827.406 93.4176C825.796 94.071 823.926 94.3977 821.795 94.3977C819.125 94.3977 816.729 93.8248 814.608 92.679C812.496 91.5331 810.825 89.8475 809.594 87.6222C808.372 85.3968 807.761 82.6742 807.761 79.4545C807.761 76.2159 808.386 73.4886 809.636 71.2727C810.886 69.0473 812.572 67.3665 814.693 66.2301C816.814 65.0843 819.182 64.5114 821.795 64.5114C823.633 64.5114 825.323 64.7623 826.866 65.2642C828.41 65.7661 829.764 66.5 830.929 67.4659C832.094 68.4223 833.031 69.6013 833.741 71.0028C834.452 72.4044 834.883 74.0095 835.034 75.8182ZM860.904 64.9091V94H853.006V72.1818H852.836L846.472 75.9886V69.2841L853.631 64.9091H860.904ZM901.494 64.9091V94H893.71V71.1591H883.88V94H876.096V64.9091H901.494ZM934.729 79.4545C934.729 82.6932 934.099 85.4252 932.839 87.6506C931.58 89.8665 929.88 91.5473 927.74 92.6932C925.6 93.8295 923.214 94.3977 920.581 94.3977C917.929 94.3977 915.534 93.8248 913.393 92.679C911.263 91.5237 909.568 89.8381 908.308 87.6222C907.058 85.3968 906.433 82.6742 906.433 79.4545C906.433 76.2159 907.058 73.4886 908.308 71.2727C909.568 69.0473 911.263 67.3665 913.393 66.2301C915.534 65.0843 917.929 64.5114 920.581 64.5114C923.214 64.5114 925.6 65.0843 927.74 66.2301C929.88 67.3665 931.58 69.0473 932.839 71.2727C934.099 73.4886 934.729 76.2159 934.729 79.4545ZM926.604 79.4545C926.604 77.7121 926.372 76.2443 925.908 75.0511C925.453 73.8485 924.776 72.9394 923.876 72.3239C922.986 71.6989 921.888 71.3864 920.581 71.3864C919.274 71.3864 918.171 71.6989 917.271 72.3239C916.381 72.9394 915.704 73.8485 915.24 75.0511C914.786 76.2443 914.558 77.7121 914.558 79.4545C914.558 81.197 914.786 82.6695 915.24 83.8722C915.704 85.0653 916.381 85.9744 917.271 86.5994C918.171 87.215 919.274 87.5227 920.581 87.5227C921.888 87.5227 922.986 87.215 923.876 86.5994C924.776 85.9744 925.453 85.0653 925.908 83.8722C926.372 82.6695 926.604 81.197 926.604 79.4545ZM946.124 89.4545V83.3182L957.829 64.9091H963.397V73.0909H960.215L953.908 83.0909V83.3182H971.181V89.4545H946.124ZM960.272 94V87.5795L960.442 84.9091V64.9091H967.829V94H960.272ZM982.406 64.9091H990.304V80.1364H990.531L1000.87 64.9091H1007.58V94H999.679V78.7159H999.509L988.997 94H982.406V64.9091ZM1019.21 64.9091V94H1011.31V64.9091H1019.21ZM1025.4 77.1818V83.0909H1015.86V77.1818H1025.4ZM1051.14 79.4545C1051.14 82.6932 1050.51 85.4252 1049.25 87.6506C1047.99 89.8665 1046.29 91.5473 1044.15 92.6932C1042.01 93.8295 1039.63 94.3977 1036.99 94.3977C1034.34 94.3977 1031.95 93.8248 1029.81 92.679C1027.68 91.5237 1025.98 89.8381 1024.72 87.6222C1023.47 85.3968 1022.85 82.6742 1022.85 79.4545C1022.85 76.2159 1023.47 73.4886 1024.72 71.2727C1025.98 69.0473 1027.68 67.3665 1029.81 66.2301C1031.95 65.0843 1034.34 64.5114 1036.99 64.5114C1039.63 64.5114 1042.01 65.0843 1044.15 66.2301C1046.29 67.3665 1047.99 69.0473 1049.25 71.2727C1050.51 73.4886 1051.14 76.2159 1051.14 79.4545ZM1043.02 79.4545C1043.02 77.7121 1042.79 76.2443 1042.32 75.0511C1041.87 73.8485 1041.19 72.9394 1040.29 72.3239C1039.4 71.6989 1038.3 71.3864 1036.99 71.3864C1035.69 71.3864 1034.58 71.6989 1033.68 72.3239C1032.79 72.9394 1032.12 73.8485 1031.65 75.0511C1031.2 76.2443 1030.97 77.7121 1030.97 79.4545C1030.97 81.197 1031.2 82.6695 1031.65 83.8722C1032.12 85.0653 1032.79 85.9744 1033.68 86.5994C1034.58 87.215 1035.69 87.5227 1036.99 87.5227C1038.3 87.5227 1039.4 87.215 1040.29 86.5994C1041.19 85.9744 1041.87 85.0653 1042.32 83.8722C1042.79 82.6695 1043.02 81.197 1043.02 79.4545ZM1054.79 94V64.9091H1062.69V76.2727H1073.14V64.9091H1081.04V94H1073.14V82.6364H1062.69V94H1054.79ZM1108.82 94H1100.93V71.2159H1098.14C1097.22 71.2159 1096.43 71.3437 1095.77 71.5994C1095.11 71.8456 1094.59 72.2339 1094.24 72.7642C1093.88 73.285 1093.71 73.9621 1093.71 74.7955C1093.71 75.6193 1093.88 76.2869 1094.24 76.7983C1094.59 77.3097 1095.11 77.6837 1095.77 77.9205C1096.43 78.1477 1097.22 78.2614 1098.14 78.2614H1104.05V84.3977H1096.55C1094.34 84.3977 1092.41 84.0331 1090.74 83.304C1089.07 82.5748 1087.78 81.4953 1086.85 80.0653C1085.93 78.6354 1085.47 76.8788 1085.47 74.7955C1085.47 72.7311 1085.92 70.9602 1086.82 69.483C1087.72 68.0057 1088.98 66.8741 1090.6 66.0881C1092.23 65.3021 1094.12 64.9091 1096.27 64.9091H1108.82V94ZM1091.78 80.6477H1100.19L1093.08 94H1084.5L1091.78 80.6477Z" fill="white"/>
<rect y="81.4558" width="36" height="36" rx="5" transform="rotate(-45 0 81.4558)" fill="#FF4261"/>
<rect x="86" y="81.4558" width="36" height="36" rx="5" transform="rotate(-45 86 81.4558)" fill="#E7E7E7"/>
</svg>
