<svg width="303" height="209" viewBox="0 0 303 209" fill="none" xmlns="http://www.w3.org/2000/svg">
<rect x="1" y="169" width="224" height="39" rx="19" stroke="#5C5C5C" stroke-width="2"/>
<path d="M36.4964 186.326H34.1058C34.0376 185.934 33.9119 185.587 33.7287 185.284C33.5455 184.977 33.3175 184.717 33.0447 184.504C32.772 184.291 32.4609 184.131 32.1115 184.025C31.7663 183.914 31.3935 183.859 30.9929 183.859C30.2813 183.859 29.6506 184.038 29.1009 184.396C28.5511 184.749 28.1207 185.269 27.8097 185.955C27.4986 186.637 27.343 187.47 27.343 188.455C27.343 189.456 27.4986 190.3 27.8097 190.986C28.125 191.668 28.5554 192.183 29.1009 192.533C29.6506 192.878 30.2791 193.05 30.9865 193.05C31.3786 193.05 31.745 192.999 32.0859 192.897C32.4311 192.79 32.7401 192.635 33.0128 192.43C33.2898 192.226 33.522 191.974 33.7095 191.676C33.9013 191.378 34.0334 191.037 34.1058 190.653L36.4964 190.666C36.407 191.288 36.2131 191.872 35.9148 192.418C35.6207 192.963 35.2351 193.445 34.7578 193.862C34.2805 194.276 33.7223 194.599 33.0831 194.834C32.4439 195.064 31.7344 195.179 30.9545 195.179C29.804 195.179 28.777 194.913 27.8736 194.38C26.9702 193.847 26.2585 193.078 25.7386 192.072C25.2188 191.067 24.9588 189.861 24.9588 188.455C24.9588 187.044 25.2209 185.838 25.745 184.837C26.2692 183.831 26.983 183.062 27.8864 182.529C28.7898 181.996 29.8125 181.73 30.9545 181.73C31.6832 181.73 32.3608 181.832 32.9872 182.037C33.6136 182.241 34.1719 182.542 34.6619 182.938C35.152 183.33 35.5547 183.812 35.87 184.383C36.1896 184.95 36.3984 185.597 36.4964 186.326ZM38.6681 195V181.909H41.0396V187.451H47.1056V181.909H49.4835V195H47.1056V189.439H41.0396V195H38.6681ZM61.7275 195H59.3496V183.891H57.1763C56.5882 183.891 56.1046 183.978 55.7253 184.153C55.3503 184.323 55.0712 184.575 54.888 184.907C54.709 185.235 54.6195 185.631 54.6195 186.096C54.6195 186.56 54.709 186.952 54.888 187.272C55.0669 187.587 55.3439 187.828 55.7189 187.994C56.0982 188.156 56.5797 188.237 57.1635 188.237H60.3468V190.206H56.8439C55.8382 190.206 54.9902 190.04 54.2999 189.707C53.6096 189.371 53.0854 188.896 52.7275 188.282C52.3738 187.664 52.1969 186.935 52.1969 186.096C52.1969 185.261 52.3716 184.53 52.7211 183.903C53.0748 183.273 53.5946 182.783 54.2807 182.433C54.9668 182.084 55.8105 181.909 56.812 181.909H61.7275V195ZM54.9583 189.068H57.5471L54.3638 195H51.7175L54.9583 189.068ZM63.7218 183.897V181.909H74.1664V183.897H70.1202V195H67.7679V183.897H63.7218ZM77.7843 186.965H81.1081C82.1096 186.965 82.9682 187.129 83.6841 187.457C84.4043 187.781 84.9561 188.239 85.3397 188.832C85.7232 189.424 85.915 190.121 85.915 190.922C85.915 191.727 85.7232 192.437 85.3397 193.05C84.9561 193.66 84.4043 194.137 83.6841 194.482C82.9682 194.827 82.1096 195 81.1081 195H76.2054V181.909H78.5833V193.057H81.1081C81.6365 193.057 82.084 192.957 82.4505 192.756C82.8169 192.556 83.0939 192.292 83.2814 191.964C83.4732 191.636 83.5691 191.28 83.5691 190.896C83.5691 190.342 83.356 189.871 82.9299 189.484C82.508 189.092 81.9007 188.896 81.1081 188.896H77.7843V186.965Z" fill="#FF4261"/>
<path d="M146.496 186.326H144.106C144.038 185.934 143.912 185.587 143.729 185.284C143.545 184.977 143.317 184.717 143.045 184.504C142.772 184.291 142.461 184.131 142.112 184.025C141.766 183.914 141.393 183.859 140.993 183.859C140.281 183.859 139.651 184.038 139.101 184.396C138.551 184.749 138.121 185.269 137.81 185.955C137.499 186.637 137.343 187.47 137.343 188.455C137.343 189.456 137.499 190.3 137.81 190.986C138.125 191.668 138.555 192.183 139.101 192.533C139.651 192.878 140.279 193.05 140.987 193.05C141.379 193.05 141.745 192.999 142.086 192.897C142.431 192.79 142.74 192.635 143.013 192.43C143.29 192.226 143.522 191.974 143.71 191.676C143.901 191.378 144.033 191.037 144.106 190.653L146.496 190.666C146.407 191.288 146.213 191.872 145.915 192.418C145.621 192.963 145.235 193.445 144.758 193.862C144.281 194.276 143.722 194.599 143.083 194.834C142.444 195.064 141.734 195.179 140.955 195.179C139.804 195.179 138.777 194.913 137.874 194.38C136.97 193.847 136.259 193.078 135.739 192.072C135.219 191.067 134.959 189.861 134.959 188.455C134.959 187.044 135.221 185.838 135.745 184.837C136.269 183.831 136.983 183.062 137.886 182.529C138.79 181.996 139.813 181.73 140.955 181.73C141.683 181.73 142.361 181.832 142.987 182.037C143.614 182.241 144.172 182.542 144.662 182.938C145.152 183.33 145.555 183.812 145.87 184.383C146.19 184.95 146.398 185.597 146.496 186.326ZM147.818 198.158V193.063H148.694C148.988 192.829 149.263 192.499 149.518 192.072C149.774 191.646 149.991 191.062 150.17 190.321C150.349 189.58 150.473 188.621 150.541 187.445L150.886 181.909H159.253V193.063H160.711V198.145H158.435V195H150.094V198.158H147.818ZM151.455 193.063H156.978V183.897H153.021L152.817 187.445C152.761 188.335 152.672 189.132 152.548 189.835C152.425 190.538 152.269 191.158 152.081 191.695C151.894 192.228 151.685 192.684 151.455 193.063ZM164.324 195H161.793L166.401 181.909H169.329L173.944 195H171.413L167.916 184.594H167.814L164.324 195ZM164.407 189.867H171.31V191.772H164.407V189.867ZM173.511 183.897V181.909H183.955V183.897H179.909V195H177.557V183.897H173.511ZM187.573 186.965H190.897C191.899 186.965 192.757 187.129 193.473 187.457C194.193 187.781 194.745 188.239 195.129 188.832C195.512 189.424 195.704 190.121 195.704 190.922C195.704 191.727 195.512 192.437 195.129 193.05C194.745 193.66 194.193 194.137 193.473 194.482C192.757 194.827 191.899 195 190.897 195H185.994V181.909H188.372V193.057H190.897C191.426 193.057 191.873 192.957 192.24 192.756C192.606 192.556 192.883 192.292 193.07 191.964C193.262 191.636 193.358 191.28 193.358 190.896C193.358 190.342 193.145 189.871 192.719 189.484C192.297 189.092 191.69 188.896 190.897 188.896H187.573V186.965Z" fill="#FF4261"/>
<line x1="110" y1="169" x2="110" y2="209" stroke="#5C5C5C" stroke-width="2"/>
<rect x="0.5" y="23.5" width="302" height="42" rx="21" stroke="#5C5C5C"/>
<path d="M22.568 4.44H29.176V5.192H23.4V8.92H27.896V9.672H23.4V14.248H29.368V15H22.568V4.44ZM31.2551 9.672H34.9031V10.376H31.2551V9.672ZM46.2115 7.112C47.0755 7.112 47.7475 7.38933 48.2275 7.944C48.7182 8.488 48.9635 9.21333 48.9635 10.12V15H48.1475V10.184C48.1475 9.49067 47.9662 8.93067 47.6035 8.504C47.2408 8.07733 46.7395 7.864 46.0995 7.864C45.6728 7.864 45.2888 7.96533 44.9475 8.168C44.6062 8.36 44.3395 8.62667 44.1475 8.968C43.9555 9.29867 43.8595 9.66133 43.8595 10.056V15H43.0595V10.184C43.0595 9.49067 42.8728 8.93067 42.4995 8.504C42.1368 8.07733 41.6355 7.864 40.9955 7.864C40.3342 7.864 39.7955 8.08267 39.3795 8.52C38.9635 8.95733 38.7555 9.512 38.7555 10.184V15H37.9555V7.272H38.7235V8.28C38.9795 7.90667 39.3102 7.61867 39.7155 7.416C40.1315 7.21333 40.5955 7.112 41.1075 7.112C41.7048 7.112 42.2062 7.24533 42.6115 7.512C43.0275 7.77867 43.3368 8.14667 43.5395 8.616C43.7955 8.168 44.1475 7.80533 44.5955 7.528C45.0542 7.25067 45.5928 7.112 46.2115 7.112ZM55.0469 7.112C55.9215 7.112 56.6202 7.37333 57.1429 7.896C57.6762 8.41867 57.9429 9.17067 57.9429 10.152V15H57.1749V13.784C56.8975 14.2213 56.5189 14.5627 56.0389 14.808C55.5589 15.0427 55.0149 15.16 54.4069 15.16C53.6602 15.16 53.0309 14.9787 52.5189 14.616C52.0069 14.2427 51.7509 13.7253 51.7509 13.064C51.7509 12.4347 51.9962 11.9333 52.4869 11.56C52.9775 11.1867 53.6282 11 54.4389 11H57.1269V10.12C57.1269 9.384 56.9349 8.824 56.5509 8.44C56.1669 8.056 55.6495 7.864 54.9989 7.864C54.5082 7.864 54.0762 7.976 53.7029 8.2C53.3295 8.41333 52.9775 8.73333 52.6469 9.16L52.0869 8.712C52.8335 7.64533 53.8202 7.112 55.0469 7.112ZM54.4869 14.456C54.9562 14.456 55.3935 14.3547 55.7989 14.152C56.2042 13.9493 56.5242 13.672 56.7589 13.32C57.0042 12.9573 57.1269 12.5573 57.1269 12.12V11.688H54.5189C53.8895 11.688 53.4095 11.8053 53.0789 12.04C52.7482 12.264 52.5829 12.5893 52.5829 13.016C52.5829 13.4853 52.7695 13.8427 53.1429 14.088C53.5162 14.3333 53.9642 14.456 54.4869 14.456ZM61.4386 7.272H62.2386V15H61.4386V7.272ZM61.8386 5C61.636 5 61.4653 4.93067 61.3266 4.792C61.1986 4.65333 61.1346 4.488 61.1346 4.296C61.1346 4.104 61.1986 3.93867 61.3266 3.8C61.4653 3.66133 61.636 3.592 61.8386 3.592C62.0306 3.592 62.196 3.66133 62.3346 3.8C62.4733 3.93867 62.5426 4.104 62.5426 4.296C62.5426 4.488 62.4733 4.65333 62.3346 4.792C62.196 4.93067 62.0306 5 61.8386 5ZM65.8599 3H66.6599V15H65.8599V3Z" fill="white"/>
<path d="M29.208 42.208L25.544 50.176H25.096L21.416 42.208H22.728L25.32 48.08L27.896 42.208H29.208ZM31.625 38H32.857V50H31.625V38ZM39.0025 42.032C39.9198 42.032 40.6558 42.304 41.2105 42.848C41.7652 43.392 42.0425 44.176 42.0425 45.2V50H40.8905V48.992C40.6025 49.376 40.2345 49.6693 39.7865 49.872C39.3385 50.0747 38.8318 50.176 38.2665 50.176C37.4665 50.176 36.8105 49.9787 36.2985 49.584C35.7972 49.1893 35.5465 48.656 35.5465 47.984C35.5465 47.3227 35.8025 46.7947 36.3145 46.4C36.8265 46.0053 37.5038 45.808 38.3465 45.808H40.8105V45.136C40.8105 44.496 40.6398 44.0107 40.2985 43.68C39.9678 43.3387 39.5092 43.168 38.9225 43.168C38.4532 43.168 38.0372 43.2747 37.6745 43.488C37.3118 43.6907 36.9705 44 36.6505 44.416L35.8345 43.744C36.1865 43.168 36.6398 42.7413 37.1945 42.464C37.7492 42.176 38.3518 42.032 39.0025 42.032ZM38.4265 49.152C38.8532 49.152 39.2478 49.0613 39.6105 48.88C39.9732 48.688 40.2612 48.4267 40.4745 48.096C40.6985 47.7653 40.8105 47.4027 40.8105 47.008V46.816H38.4905C37.9465 46.816 37.5305 46.912 37.2425 47.104C36.9545 47.2853 36.8105 47.5573 36.8105 47.92C36.8105 48.3147 36.9652 48.6187 37.2745 48.832C37.5838 49.0453 37.9678 49.152 38.4265 49.152ZM52.7036 38V50H51.5356V48.768C51.237 49.2053 50.821 49.552 50.2876 49.808C49.765 50.0533 49.1996 50.176 48.5916 50.176C47.8663 50.176 47.2103 50 46.6236 49.648C46.037 49.2853 45.573 48.7947 45.2316 48.176C44.901 47.5573 44.7356 46.8693 44.7356 46.112C44.7356 45.3547 44.901 44.6667 45.2316 44.048C45.573 43.4187 46.037 42.928 46.6236 42.576C47.2103 42.2133 47.8663 42.032 48.5916 42.032C49.1783 42.032 49.7276 42.1493 50.2396 42.384C50.7516 42.6187 51.1623 42.944 51.4716 43.36V38H52.7036ZM48.7676 49.04C49.237 49.04 49.6796 48.9333 50.0956 48.72C50.5116 48.5067 50.8476 48.1813 51.1036 47.744C51.3596 47.3067 51.4876 46.7627 51.4876 46.112C51.4876 45.4613 51.3596 44.9173 51.1036 44.48C50.8476 44.032 50.5116 43.7013 50.0956 43.488C49.6796 43.2747 49.237 43.168 48.7676 43.168C48.245 43.168 47.7703 43.296 47.3436 43.552C46.9276 43.7973 46.597 44.144 46.3516 44.592C46.117 45.04 45.9996 45.5413 45.9996 46.096C45.9996 46.6507 46.117 47.152 46.3516 47.6C46.597 48.048 46.9276 48.4 47.3436 48.656C47.7703 48.912 48.245 49.04 48.7676 49.04ZM56.045 42.208H57.277V50H56.045V42.208ZM56.669 40.128C56.413 40.128 56.1943 40.0427 56.013 39.872C55.8317 39.7013 55.741 39.488 55.741 39.232C55.741 38.9867 55.8317 38.7787 56.013 38.608C56.1943 38.4267 56.413 38.336 56.669 38.336C56.9143 38.336 57.1277 38.4267 57.309 38.608C57.4903 38.7787 57.581 38.9867 57.581 39.232C57.581 39.488 57.4903 39.7013 57.309 39.872C57.1383 40.0427 56.925 40.128 56.669 40.128ZM69.1665 42.032C70.0625 42.032 70.7558 42.3147 71.2465 42.88C71.7478 43.4347 71.9985 44.176 71.9985 45.104V50H70.7665V45.264C70.7665 44.6347 70.6012 44.128 70.2705 43.744C69.9505 43.36 69.5025 43.168 68.9265 43.168C68.3398 43.168 67.8598 43.36 67.4865 43.744C67.1132 44.128 66.9265 44.5973 66.9265 45.152V50H65.6945V45.264C65.6945 44.6347 65.5238 44.128 65.1825 43.744C64.8518 43.36 64.4038 43.168 63.8385 43.168C63.2518 43.168 62.7718 43.3653 62.3985 43.76C62.0358 44.144 61.8545 44.6453 61.8545 45.264V50H60.6225V42.208H61.7745V43.024C62.0518 42.704 62.3878 42.4587 62.7825 42.288C63.1772 42.1173 63.6145 42.032 64.0945 42.032C64.6598 42.032 65.1452 42.1493 65.5505 42.384C65.9558 42.6187 66.2705 42.9493 66.4945 43.376C66.7825 42.9707 67.1558 42.6453 67.6145 42.4C68.0732 42.1547 68.5905 42.032 69.1665 42.032ZM75.2469 42.208H76.4789V50H75.2469V42.208ZM75.8709 40.128C75.6149 40.128 75.3962 40.0427 75.2149 39.872C75.0335 39.7013 74.9429 39.488 74.9429 39.232C74.9429 38.9867 75.0335 38.7787 75.2149 38.608C75.3962 38.4267 75.6149 38.336 75.8709 38.336C76.1162 38.336 76.3295 38.4267 76.5109 38.608C76.6922 38.7787 76.7829 38.9867 76.7829 39.232C76.7829 39.488 76.6922 39.7013 76.5109 39.872C76.3402 40.0427 76.1269 40.128 75.8709 40.128ZM83.9684 42.208V43.296H83.5044C83.067 43.296 82.6617 43.3867 82.2884 43.568C81.915 43.7493 81.6164 44.0107 81.3924 44.352C81.1684 44.6933 81.0564 45.104 81.0564 45.584V50H79.8244V42.208H80.9764V43.312C81.2537 42.9387 81.6057 42.6507 82.0324 42.448C82.4697 42.2453 82.923 42.144 83.3924 42.144C83.563 42.144 83.755 42.1653 83.9684 42.208ZM89.2372 39.44V50H87.9892V40.912L85.6852 41.632L85.3812 40.56L88.7732 39.44H89.2372ZM96.0198 39.264C96.6704 39.264 97.2678 39.4187 97.8118 39.728C98.3664 40.0373 98.8038 40.464 99.1238 41.008C99.4438 41.552 99.6038 42.16 99.6038 42.832C99.6038 43.248 99.5398 43.6373 99.4118 44C99.2944 44.352 99.1504 44.6613 98.9798 44.928C98.8198 45.1947 98.5424 45.616 98.1478 46.192L95.5238 50H94.0518L96.7398 46.128C96.4838 46.224 96.1851 46.272 95.8438 46.272C95.2358 46.272 94.6651 46.1227 94.1318 45.824C93.6091 45.5147 93.1878 45.0987 92.8678 44.576C92.5584 44.0427 92.4038 43.456 92.4038 42.816C92.4038 42.1547 92.5638 41.552 92.8838 41.008C93.2144 40.464 93.6518 40.0373 94.1958 39.728C94.7504 39.4187 95.3584 39.264 96.0198 39.264ZM96.0198 45.216C96.4571 45.216 96.8571 45.1093 97.2198 44.896C97.5824 44.6827 97.8651 44.3947 98.0678 44.032C98.2704 43.6587 98.3718 43.248 98.3718 42.8C98.3718 42.352 98.2704 41.9467 98.0678 41.584C97.8651 41.2107 97.5824 40.9227 97.2198 40.72C96.8571 40.5067 96.4571 40.4 96.0198 40.4C95.5824 40.4 95.1771 40.5067 94.8038 40.72C94.4411 40.9227 94.1531 41.2107 93.9398 41.584C93.7371 41.9467 93.6358 42.352 93.6358 42.8C93.6358 43.248 93.7371 43.6587 93.9398 44.032C94.1531 44.3947 94.4411 44.6827 94.8038 44.896C95.1771 45.1093 95.5824 45.216 96.0198 45.216ZM109.376 47.312C109.376 47.8773 109.222 48.3787 108.912 48.816C108.614 49.2427 108.182 49.5787 107.616 49.824C107.062 50.0587 106.416 50.176 105.68 50.176C104.944 50.176 104.294 50.0587 103.728 49.824C103.163 49.5787 102.726 49.2373 102.416 48.8C102.107 48.3627 101.952 47.8613 101.952 47.296C101.952 46.0053 102.79 45.0667 104.464 44.48C103.824 44.1813 103.328 43.824 102.976 43.408C102.624 42.992 102.448 42.4853 102.448 41.888C102.448 41.0667 102.752 40.4267 103.36 39.968C103.979 39.4987 104.752 39.264 105.68 39.264C106.587 39.264 107.344 39.4987 107.952 39.968C108.571 40.4267 108.88 41.0667 108.88 41.888C108.88 43.0187 108.208 43.8773 106.864 44.464C108.539 45.0933 109.376 46.0427 109.376 47.312ZM103.68 41.936C103.68 42.384 103.84 42.752 104.16 43.04C104.491 43.328 104.992 43.6107 105.664 43.888C106.336 43.6213 106.832 43.344 107.152 43.056C107.483 42.768 107.648 42.3947 107.648 41.936C107.648 41.4347 107.462 41.0453 107.088 40.768C106.726 40.48 106.256 40.336 105.68 40.336C105.094 40.336 104.614 40.48 104.24 40.768C103.867 41.0453 103.68 41.4347 103.68 41.936ZM105.68 49.104C106.459 49.104 107.056 48.9387 107.472 48.608C107.899 48.2667 108.112 47.8187 108.112 47.264C108.112 46.7093 107.904 46.2773 107.488 45.968C107.083 45.648 106.48 45.344 105.68 45.056C104.87 45.344 104.256 45.648 103.84 45.968C103.424 46.288 103.216 46.72 103.216 47.264C103.216 47.8187 103.43 48.2667 103.856 48.608C104.294 48.9387 104.902 49.104 105.68 49.104ZM118.406 39.44V39.808L113.062 50H111.702L116.726 40.56H111.35V39.44H118.406ZM127.014 39.488C128.219 39.488 129.307 39.7547 130.278 40.288C131.259 40.8213 132.027 41.5413 132.582 42.448C133.147 43.3547 133.43 44.3467 133.43 45.424C133.43 46.256 133.254 46.976 132.902 47.584C132.56 48.1813 132.08 48.64 131.462 48.96C130.843 49.2693 130.134 49.424 129.334 49.424H128.95V48.384C128.704 48.768 128.363 49.0667 127.926 49.28C127.499 49.4933 127.03 49.6 126.518 49.6C125.91 49.6 125.366 49.4507 124.886 49.152C124.406 48.8533 124.027 48.448 123.75 47.936C123.472 47.4133 123.334 46.832 123.334 46.192C123.334 45.5627 123.467 44.992 123.734 44.48C124.011 43.9573 124.395 43.5467 124.886 43.248C125.376 42.9493 125.926 42.8 126.534 42.8C127.014 42.8 127.456 42.896 127.862 43.088C128.278 43.2693 128.608 43.5253 128.854 43.856V42.928H130.006V48.336C130.71 48.2827 131.27 48.0053 131.686 47.504C132.102 47.0027 132.31 46.3093 132.31 45.424C132.31 44.5067 132.086 43.68 131.638 42.944C131.2 42.1973 130.582 41.6107 129.782 41.184C128.982 40.7573 128.07 40.544 127.046 40.544C125.968 40.544 124.998 40.784 124.134 41.264C123.27 41.7333 122.592 42.384 122.102 43.216C121.611 44.048 121.366 44.992 121.366 46.048C121.366 47.104 121.611 48.0533 122.102 48.896C122.603 49.728 123.275 50.3787 124.118 50.848C124.971 51.328 125.915 51.568 126.95 51.568C127.686 51.568 128.379 51.4507 129.03 51.216L129.254 52.176C128.518 52.464 127.712 52.608 126.838 52.608C125.622 52.608 124.507 52.32 123.494 51.744C122.491 51.1787 121.691 50.3947 121.094 49.392C120.507 48.3893 120.214 47.28 120.214 46.064C120.214 44.8267 120.512 43.7067 121.11 42.704C121.718 41.7013 122.539 40.9173 123.574 40.352C124.619 39.776 125.766 39.488 127.014 39.488ZM126.726 48.464C127.28 48.464 127.76 48.272 128.166 47.888C128.582 47.4933 128.79 46.9227 128.79 46.176C128.79 45.44 128.587 44.88 128.182 44.496C127.776 44.1013 127.291 43.904 126.726 43.904C126.118 43.904 125.611 44.1173 125.206 44.544C124.8 44.9707 124.598 45.52 124.598 46.192C124.598 46.8533 124.8 47.3973 125.206 47.824C125.611 48.2507 126.118 48.464 126.726 48.464ZM144.74 42.032C145.636 42.032 146.329 42.3147 146.82 42.88C147.321 43.4347 147.572 44.176 147.572 45.104V50H146.34V45.264C146.34 44.6347 146.174 44.128 145.844 43.744C145.524 43.36 145.076 43.168 144.5 43.168C143.913 43.168 143.433 43.36 143.06 43.744C142.686 44.128 142.5 44.5973 142.5 45.152V50H141.268V45.264C141.268 44.6347 141.097 44.128 140.756 43.744C140.425 43.36 139.977 43.168 139.412 43.168C138.825 43.168 138.345 43.3653 137.972 43.76C137.609 44.144 137.428 44.6453 137.428 45.264V50H136.196V42.208H137.348V43.024C137.625 42.704 137.961 42.4587 138.356 42.288C138.75 42.1173 139.188 42.032 139.668 42.032C140.233 42.032 140.718 42.1493 141.124 42.384C141.529 42.6187 141.844 42.9493 142.068 43.376C142.356 42.9707 142.729 42.6453 143.188 42.4C143.646 42.1547 144.164 42.032 144.74 42.032ZM153.62 42.032C154.537 42.032 155.273 42.304 155.828 42.848C156.383 43.392 156.66 44.176 156.66 45.2V50H155.508V48.992C155.22 49.376 154.852 49.6693 154.404 49.872C153.956 50.0747 153.449 50.176 152.884 50.176C152.084 50.176 151.428 49.9787 150.916 49.584C150.415 49.1893 150.164 48.656 150.164 47.984C150.164 47.3227 150.42 46.7947 150.932 46.4C151.444 46.0053 152.121 45.808 152.964 45.808H155.428V45.136C155.428 44.496 155.257 44.0107 154.916 43.68C154.585 43.3387 154.127 43.168 153.54 43.168C153.071 43.168 152.655 43.2747 152.292 43.488C151.929 43.6907 151.588 44 151.268 44.416L150.452 43.744C150.804 43.168 151.257 42.7413 151.812 42.464C152.367 42.176 152.969 42.032 153.62 42.032ZM153.044 49.152C153.471 49.152 153.865 49.0613 154.228 48.88C154.591 48.688 154.879 48.4267 155.092 48.096C155.316 47.7653 155.428 47.4027 155.428 47.008V46.816H153.108C152.564 46.816 152.148 46.912 151.86 47.104C151.572 47.2853 151.428 47.5573 151.428 47.92C151.428 48.3147 151.583 48.6187 151.892 48.832C152.201 49.0453 152.585 49.152 153.044 49.152ZM159.913 42.208H161.145V50H159.913V42.208ZM160.537 40.128C160.281 40.128 160.062 40.0427 159.881 39.872C159.7 39.7013 159.609 39.488 159.609 39.232C159.609 38.9867 159.7 38.7787 159.881 38.608C160.062 38.4267 160.281 38.336 160.537 38.336C160.782 38.336 160.996 38.4267 161.177 38.608C161.358 38.7787 161.449 38.9867 161.449 39.232C161.449 39.488 161.358 39.7013 161.177 39.872C161.006 40.0427 160.793 40.128 160.537 40.128ZM164.491 38H165.723V50H164.491V38ZM169.948 50.176C169.671 50.176 169.431 50.08 169.228 49.888C169.036 49.696 168.94 49.456 168.94 49.168C168.94 48.88 169.036 48.64 169.228 48.448C169.431 48.256 169.671 48.16 169.948 48.16C170.225 48.16 170.46 48.256 170.652 48.448C170.855 48.64 170.956 48.88 170.956 49.168C170.956 49.456 170.855 49.696 170.652 49.888C170.46 50.08 170.225 50.176 169.948 50.176ZM178.337 42.208V43.296H177.873C177.435 43.296 177.03 43.3867 176.657 43.568C176.283 43.7493 175.985 44.0107 175.761 44.352C175.537 44.6933 175.425 45.104 175.425 45.584V50H174.193V42.208H175.345V43.312C175.622 42.9387 175.974 42.6507 176.401 42.448C176.838 42.2453 177.291 42.144 177.761 42.144C177.931 42.144 178.123 42.1653 178.337 42.208ZM183.765 50.176C183.157 50.176 182.608 50.0427 182.117 49.776C181.627 49.4987 181.237 49.1147 180.949 48.624C180.672 48.1227 180.533 47.5467 180.533 46.896V42.208H181.749V46.976C181.749 47.6053 181.941 48.1067 182.325 48.48C182.709 48.8533 183.189 49.04 183.765 49.04C184.331 49.04 184.8 48.8533 185.173 48.48C185.557 48.096 185.749 47.5947 185.749 46.976V42.208H186.981V46.896C186.981 47.5467 186.837 48.1227 186.549 48.624C186.272 49.1147 185.888 49.4987 185.397 49.776C184.907 50.0427 184.363 50.176 183.765 50.176Z" fill="white"/>
<rect x="0.5" y="102.5" width="302" height="42" rx="21" stroke="#5C5C5C"/>
<path d="M22.568 83.44H30.568V94H29.736V84.192H23.4V94H22.568V83.44ZM36.7825 86.112C37.6572 86.112 38.3558 86.3733 38.8785 86.896C39.4118 87.4187 39.6785 88.1707 39.6785 89.152V94H38.9105V92.784C38.6332 93.2213 38.2545 93.5627 37.7745 93.808C37.2945 94.0427 36.7505 94.16 36.1425 94.16C35.3958 94.16 34.7665 93.9787 34.2545 93.616C33.7425 93.2427 33.4865 92.7253 33.4865 92.064C33.4865 91.4347 33.7318 90.9333 34.2225 90.56C34.7132 90.1867 35.3638 90 36.1745 90H38.8625V89.12C38.8625 88.384 38.6705 87.824 38.2865 87.44C37.9025 87.056 37.3852 86.864 36.7345 86.864C36.2438 86.864 35.8118 86.976 35.4385 87.2C35.0652 87.4133 34.7132 87.7333 34.3825 88.16L33.8225 87.712C34.5692 86.6453 35.5558 86.112 36.7825 86.112ZM36.2225 93.456C36.6918 93.456 37.1292 93.3547 37.5345 93.152C37.9398 92.9493 38.2598 92.672 38.4945 92.32C38.7398 91.9573 38.8625 91.5573 38.8625 91.12V90.688H36.2545C35.6252 90.688 35.1452 90.8053 34.8145 91.04C34.4838 91.264 34.3185 91.5893 34.3185 92.016C34.3185 92.4853 34.5052 92.8427 34.8785 93.088C35.2518 93.3333 35.6998 93.456 36.2225 93.456ZM47.0943 86.112C47.8089 86.112 48.4596 86.2933 49.0463 86.656C49.6329 87.008 50.0916 87.4933 50.4223 88.112C50.7636 88.72 50.9343 89.392 50.9343 90.128C50.9343 90.8747 50.7636 91.5573 50.4223 92.176C50.0916 92.784 49.6329 93.2693 49.0463 93.632C48.4596 93.984 47.8089 94.16 47.0943 94.16C46.4436 94.16 45.8356 94.016 45.2703 93.728C44.7049 93.4293 44.2729 93.024 43.9743 92.512V96.88H43.1743V86.272H43.9423V87.824C44.2303 87.3013 44.6569 86.8853 45.2223 86.576C45.7983 86.2667 46.4223 86.112 47.0943 86.112ZM47.0143 93.408C47.6009 93.408 48.1289 93.2693 48.5983 92.992C49.0676 92.704 49.4356 92.3093 49.7023 91.808C49.9689 91.3067 50.1023 90.752 50.1023 90.144C50.1023 89.536 49.9689 88.9813 49.7023 88.48C49.4356 87.9787 49.0676 87.584 48.5983 87.296C48.1289 87.008 47.6009 86.864 47.0143 86.864C46.4809 86.864 45.9796 86.9813 45.5103 87.216C45.0516 87.4507 44.6783 87.8133 44.3903 88.304C44.1129 88.7947 43.9743 89.4027 43.9743 90.128C43.9743 90.864 44.1129 91.4773 44.3903 91.968C44.6783 92.4587 45.0516 92.8213 45.5103 93.056C45.9796 93.2907 46.4809 93.408 47.0143 93.408ZM57.3469 94.16C56.6215 94.16 55.9495 93.984 55.3309 93.632C54.7229 93.2693 54.2429 92.7787 53.8909 92.16C53.5389 91.5413 53.3629 90.864 53.3629 90.128C53.3629 89.3813 53.5389 88.704 53.8909 88.096C54.2429 87.4773 54.7229 86.992 55.3309 86.64C55.9495 86.288 56.6269 86.112 57.3629 86.112C58.0989 86.112 58.7709 86.2933 59.3789 86.656C59.9869 87.008 60.4669 87.4933 60.8189 88.112C61.1815 88.72 61.3629 89.392 61.3629 90.128C61.3629 90.864 61.1815 91.5413 60.8189 92.16C60.4669 92.7787 59.9815 93.2693 59.3629 93.632C58.7549 93.984 58.0829 94.16 57.3469 94.16ZM57.3469 93.408C57.9335 93.408 58.4669 93.264 58.9469 92.976C59.4375 92.688 59.8215 92.2987 60.0989 91.808C60.3869 91.3067 60.5309 90.752 60.5309 90.144C60.5309 89.5253 60.3869 88.9707 60.0989 88.48C59.8215 87.9787 59.4429 87.584 58.9629 87.296C58.4829 87.008 57.9495 86.864 57.3629 86.864C56.7655 86.864 56.2269 87.008 55.7469 87.296C55.2669 87.584 54.8882 87.9787 54.6109 88.48C54.3335 88.9707 54.1949 89.5253 54.1949 90.144C54.1949 90.752 54.3335 91.3067 54.6109 91.808C54.8882 92.2987 55.2669 92.688 55.7469 92.976C56.2269 93.264 56.7602 93.408 57.3469 93.408ZM69.9758 86.272V94H69.1598V87.008H65.8798L65.8318 88.176C65.7678 89.6587 65.6558 90.816 65.4958 91.648C65.3464 92.48 65.1118 93.088 64.7918 93.472C64.4718 93.856 64.0344 94.048 63.4798 94.048C63.3944 94.048 63.2878 94.032 63.1598 94V93.296C63.2238 93.3067 63.3198 93.312 63.4478 93.312C63.8318 93.312 64.1304 93.12 64.3438 92.736C64.5678 92.3413 64.7331 91.7813 64.8398 91.056C64.9464 90.32 65.0211 89.3493 65.0638 88.144L65.1278 86.272H69.9758ZM73.5943 86.272H74.3943V89.152H76.4263C77.3009 89.152 77.9836 89.376 78.4743 89.824C78.9756 90.2613 79.2263 90.8427 79.2263 91.568C79.2263 92.304 78.9756 92.896 78.4743 93.344C77.9836 93.7813 77.3009 94 76.4263 94H73.5943V86.272ZM76.3783 93.264C77.0183 93.264 77.5089 93.1093 77.8503 92.8C78.2023 92.4907 78.3783 92.0853 78.3783 91.584C78.3783 91.0827 78.2023 90.6773 77.8503 90.368C77.5089 90.048 77.0183 89.888 76.3783 89.888H74.3943V93.264H76.3783Z" fill="white"/>
<path d="M25.32 119.72L26.824 120.744L26.424 121.4L24.792 120.616L24.664 122.424H23.896L23.752 120.616L22.12 121.4L21.736 120.744L23.24 119.72L21.736 118.696L22.12 118.024L23.752 118.808L23.896 117H24.664L24.792 118.808L26.424 118.024L26.824 118.696L25.32 119.72ZM33.3194 119.72L34.8234 120.744L34.4234 121.4L32.7914 120.616L32.6634 122.424H31.8954L31.7514 120.616L30.1194 121.4L29.7354 120.744L31.2394 119.72L29.7354 118.696L30.1194 118.024L31.7514 118.808L31.8954 117H32.6634L32.7914 118.808L34.4234 118.024L34.8234 118.696L33.3194 119.72ZM41.3187 119.72L42.8228 120.744L42.4227 121.4L40.7908 120.616L40.6628 122.424H39.8947L39.7507 120.616L38.1187 121.4L37.7347 120.744L39.2387 119.72L37.7347 118.696L38.1187 118.024L39.7507 118.808L39.8947 117H40.6628L40.7908 118.808L42.4227 118.024L42.8228 118.696L41.3187 119.72ZM49.3181 119.72L50.8221 120.744L50.4221 121.4L48.7901 120.616L48.6621 122.424H47.8941L47.7501 120.616L46.1181 121.4L45.7341 120.744L47.2381 119.72L45.7341 118.696L46.1181 118.024L47.7501 118.808L47.8941 117H48.6621L48.7901 118.808L50.4221 118.024L50.8221 118.696L49.3181 119.72ZM57.3175 119.72L58.8215 120.744L58.4215 121.4L56.7895 120.616L56.6615 122.424H55.8935L55.7495 120.616L54.1175 121.4L53.7335 120.744L55.2375 119.72L53.7335 118.696L54.1175 118.024L55.7495 118.808L55.8935 117H56.6615L56.7895 118.808L58.4215 118.024L58.8215 118.696L57.3175 119.72ZM65.3169 119.72L66.8209 120.744L66.4209 121.4L64.7889 120.616L64.6609 122.424H63.8929L63.7489 120.616L62.1169 121.4L61.7329 120.744L63.2369 119.72L61.7329 118.696L62.1169 118.024L63.7489 118.808L63.8929 117H64.6609L64.7889 118.808L66.4209 118.024L66.8209 118.696L65.3169 119.72ZM73.3163 119.72L74.8203 120.744L74.4203 121.4L72.7883 120.616L72.6603 122.424H71.8923L71.7483 120.616L70.1163 121.4L69.7323 120.744L71.2363 119.72L69.7323 118.696L70.1163 118.024L71.7483 118.808L71.8923 117H72.6603L72.7883 118.808L74.4203 118.024L74.8203 118.696L73.3163 119.72ZM81.3156 119.72L82.8196 120.744L82.4196 121.4L80.7876 120.616L80.6596 122.424H79.8916L79.7476 120.616L78.1156 121.4L77.7316 120.744L79.2356 119.72L77.7316 118.696L78.1156 118.024L79.7476 118.808L79.8916 117H80.6596L80.7876 118.808L82.4196 118.024L82.8196 118.696L81.3156 119.72ZM89.315 119.72L90.819 120.744L90.419 121.4L88.787 120.616L88.659 122.424H87.891L87.747 120.616L86.115 121.4L85.731 120.744L87.235 119.72L85.731 118.696L86.115 118.024L87.747 118.808L87.891 117H88.659L88.787 118.808L90.419 118.024L90.819 118.696L89.315 119.72ZM97.3144 119.72L98.8184 120.744L98.4184 121.4L96.7864 120.616L96.6584 122.424H95.8904L95.7464 120.616L94.1144 121.4L93.7304 120.744L95.2344 119.72L93.7304 118.696L94.1144 118.024L95.7464 118.808L95.8904 117H96.6584L96.7864 118.808L98.4184 118.024L98.8184 118.696L97.3144 119.72ZM105.314 119.72L106.818 120.744L106.418 121.4L104.786 120.616L104.658 122.424H103.89L103.746 120.616L102.114 121.4L101.73 120.744L103.234 119.72L101.73 118.696L102.114 118.024L103.746 118.808L103.89 117H104.658L104.786 118.808L106.418 118.024L106.818 118.696L105.314 119.72ZM113.313 119.72L114.817 120.744L114.417 121.4L112.785 120.616L112.657 122.424H111.889L111.745 120.616L110.113 121.4L109.729 120.744L111.233 119.72L109.729 118.696L110.113 118.024L111.745 118.808L111.889 117H112.657L112.785 118.808L114.417 118.024L114.817 118.696L113.313 119.72ZM121.313 119.72L122.817 120.744L122.417 121.4L120.785 120.616L120.657 122.424H119.889L119.745 120.616L118.113 121.4L117.729 120.744L119.233 119.72L117.729 118.696L118.113 118.024L119.745 118.808L119.889 117H120.657L120.785 118.808L122.417 118.024L122.817 118.696L121.313 119.72ZM129.312 119.72L130.816 120.744L130.416 121.4L128.784 120.616L128.656 122.424H127.888L127.744 120.616L126.112 121.4L125.728 120.744L127.232 119.72L125.728 118.696L126.112 118.024L127.744 118.808L127.888 117H128.656L128.784 118.808L130.416 118.024L130.816 118.696L129.312 119.72ZM137.311 119.72L138.815 120.744L138.415 121.4L136.783 120.616L136.655 122.424H135.887L135.743 120.616L134.111 121.4L133.727 120.744L135.231 119.72L133.727 118.696L134.111 118.024L135.743 118.808L135.887 117H136.655L136.783 118.808L138.415 118.024L138.815 118.696L137.311 119.72ZM145.311 119.72L146.815 120.744L146.415 121.4L144.783 120.616L144.655 122.424H143.887L143.743 120.616L142.111 121.4L141.727 120.744L143.231 119.72L141.727 118.696L142.111 118.024L143.743 118.808L143.887 117H144.655L144.783 118.808L146.415 118.024L146.815 118.696L145.311 119.72ZM153.31 119.72L154.814 120.744L154.414 121.4L152.782 120.616L152.654 122.424H151.886L151.742 120.616L150.11 121.4L149.726 120.744L151.23 119.72L149.726 118.696L150.11 118.024L151.742 118.808L151.886 117H152.654L152.782 118.808L154.414 118.024L154.814 118.696L153.31 119.72ZM161.309 119.72L162.813 120.744L162.413 121.4L160.781 120.616L160.653 122.424H159.885L159.741 120.616L158.109 121.4L157.725 120.744L159.229 119.72L157.725 118.696L158.109 118.024L159.741 118.808L159.885 117H160.653L160.781 118.808L162.413 118.024L162.813 118.696L161.309 119.72Z" fill="white"/>
</svg>
