<svg width="272" height="219" viewBox="0 0 272 219" fill="none" xmlns="http://www.w3.org/2000/svg">
<g filter="url(#filter0_d_145_4)">
<rect x="20" y="16" width="212" height="75" rx="20" fill="#2D2D2D"/>
</g>
<rect x="37" y="52" width="178" height="12" rx="6" fill="#5C5C5C"/>
<path d="M45.08 37.488H39.528L38.488 40H37.624L42.152 29.28H42.488L47 40H46.12L45.08 37.488ZM39.848 36.736H44.76L42.312 30.768L39.848 36.736ZM54.697 32.272V40H53.881V33.008H50.601L50.553 34.176C50.489 35.6587 50.377 36.816 50.217 37.648C50.0677 38.48 49.833 39.088 49.513 39.472C49.193 39.856 48.7557 40.048 48.201 40.048C48.1157 40.048 48.009 40.032 47.881 40V39.296C47.945 39.3067 48.041 39.312 48.169 39.312C48.553 39.312 48.8517 39.12 49.065 38.736C49.289 38.3413 49.4543 37.7813 49.561 37.056C49.6677 36.32 49.7423 35.3493 49.785 34.144L49.849 32.272H54.697ZM64.3795 36.32H57.9155C57.9475 36.9173 58.1022 37.4507 58.3795 37.92C58.6675 38.3893 59.0462 38.7573 59.5155 39.024C59.9955 39.28 60.5235 39.408 61.0995 39.408C62.1235 39.408 62.9822 39.0027 63.6755 38.192L64.1875 38.72C63.8035 39.168 63.3448 39.52 62.8115 39.776C62.2782 40.032 61.7022 40.16 61.0835 40.16C60.3475 40.16 59.6702 39.984 59.0515 39.632C58.4435 39.2693 57.9635 38.784 57.6115 38.176C57.2595 37.5573 57.0835 36.88 57.0835 36.144C57.0835 35.408 57.2542 34.7307 57.5955 34.112C57.9475 33.4933 58.4222 33.008 59.0195 32.656C59.6168 32.2933 60.2728 32.112 60.9875 32.112C61.6168 32.112 62.1928 32.256 62.7155 32.544C63.2488 32.8213 63.6702 33.2213 63.9795 33.744C64.2888 34.2667 64.4435 34.8693 64.4435 35.552C64.4435 35.8933 64.4222 36.1493 64.3795 36.32ZM60.9555 32.848C60.1768 32.848 59.5102 33.1093 58.9555 33.632C58.4008 34.144 58.0648 34.8 57.9475 35.6H63.6115C63.6328 35.0453 63.5262 34.56 63.2915 34.144C63.0568 33.728 62.7315 33.408 62.3155 33.184C61.8995 32.96 61.4462 32.848 60.9555 32.848ZM66.8318 32.272H67.6318V40H66.8318V32.272ZM72.7998 40H71.7598L67.8718 35.808L71.3758 32.272H72.4318L68.9278 35.792L72.7998 40ZM77.8488 40.16C77.1234 40.16 76.4514 39.984 75.8328 39.632C75.2248 39.2693 74.7448 38.7787 74.3928 38.16C74.0408 37.5413 73.8648 36.864 73.8648 36.128C73.8648 35.392 74.0408 34.72 74.3928 34.112C74.7448 33.4933 75.2248 33.008 75.8328 32.656C76.4514 32.2933 77.1288 32.112 77.8648 32.112C78.5154 32.112 79.1074 32.256 79.6408 32.544C80.1741 32.8213 80.6221 33.2053 80.9848 33.696L80.4088 34.16C79.7474 33.296 78.8994 32.864 77.8648 32.864C77.2674 32.864 76.7288 33.008 76.2488 33.296C75.7688 33.584 75.3901 33.9787 75.1128 34.48C74.8354 34.9813 74.6968 35.5307 74.6968 36.128C74.6968 36.736 74.8354 37.2907 75.1128 37.792C75.3901 38.2933 75.7688 38.688 76.2488 38.976C76.7288 39.264 77.2621 39.408 77.8488 39.408C78.8834 39.408 79.7368 38.976 80.4088 38.112L80.9848 38.576C80.6221 39.0667 80.1688 39.456 79.6248 39.744C79.0914 40.0213 78.4994 40.16 77.8488 40.16ZM89.8326 36.32H83.3686C83.4006 36.9173 83.5553 37.4507 83.8326 37.92C84.1206 38.3893 84.4993 38.7573 84.9686 39.024C85.4486 39.28 85.9766 39.408 86.5526 39.408C87.5766 39.408 88.4353 39.0027 89.1286 38.192L89.6406 38.72C89.2566 39.168 88.798 39.52 88.2646 39.776C87.7313 40.032 87.1553 40.16 86.5366 40.16C85.8006 40.16 85.1233 39.984 84.5046 39.632C83.8966 39.2693 83.4166 38.784 83.0646 38.176C82.7126 37.5573 82.5366 36.88 82.5366 36.144C82.5366 35.408 82.7073 34.7307 83.0486 34.112C83.4006 33.4933 83.8753 33.008 84.4726 32.656C85.07 32.2933 85.726 32.112 86.4406 32.112C87.07 32.112 87.646 32.256 88.1686 32.544C88.702 32.8213 89.1233 33.2213 89.4326 33.744C89.742 34.2667 89.8966 34.8693 89.8966 35.552C89.8966 35.8933 89.8753 36.1493 89.8326 36.32ZM86.4086 32.848C85.63 32.848 84.9633 33.1093 84.4086 33.632C83.854 34.144 83.518 34.8 83.4006 35.6H89.0646C89.086 35.0453 88.9793 34.56 88.7446 34.144C88.51 33.728 88.1846 33.408 87.7686 33.184C87.3526 32.96 86.8993 32.848 86.4086 32.848ZM98.3489 32.112V40H97.5329V33.76L92.6209 40.16H92.2849V32.272H93.0849V38.544L98.0129 32.112H98.3489ZM95.4049 30.816C94.7115 30.816 94.1569 30.5973 93.7409 30.16C93.3355 29.7227 93.1329 29.1413 93.1329 28.416V27.888H93.8529V28.384C93.8529 28.9387 93.9862 29.376 94.2529 29.696C94.5302 30.0053 94.9142 30.16 95.4049 30.16C95.8955 30.16 96.2742 30.0053 96.5409 29.696C96.8182 29.376 96.9569 28.9387 96.9569 28.384V27.888H97.6769V28.416C97.6769 29.1413 97.4689 29.7227 97.0529 30.16C96.6475 30.5973 96.0982 30.816 95.4049 30.816Z" fill="white"/>
<g filter="url(#filter1_d_145_4)">
<rect x="40" y="105" width="212" height="75" rx="20" fill="#2D2D2D"/>
</g>
<rect x="57" y="141" width="178" height="12" rx="6" fill="#5C5C5C"/>
<path d="M63.784 123.16C64.4987 123.331 65.0533 123.667 65.448 124.168C65.8427 124.669 66.04 125.277 66.04 125.992C66.04 126.568 65.912 127.085 65.656 127.544C65.4 127.992 65.0213 128.349 64.52 128.616C64.0293 128.872 63.4427 129 62.76 129H58.568V118.44H62.152C63.0373 118.44 63.7307 118.68 64.232 119.16C64.744 119.64 65 120.259 65 121.016C65 121.485 64.8933 121.907 64.68 122.28C64.4773 122.643 64.1787 122.936 63.784 123.16ZM59.4 119.192V122.936H62.072C62.744 122.936 63.256 122.765 63.608 122.424C63.96 122.072 64.136 121.619 64.136 121.064C64.136 120.509 63.9653 120.056 63.624 119.704C63.2827 119.352 62.7653 119.176 62.072 119.176L59.4 119.192ZM62.68 128.248C63.48 128.248 64.0987 128.04 64.536 127.624C64.9733 127.197 65.192 126.648 65.192 125.976C65.192 125.304 64.9733 124.755 64.536 124.328C64.0987 123.901 63.48 123.688 62.68 123.688H59.4V128.248H62.68ZM73.8064 121.272V129H72.9904V122.008H69.7104L69.6624 123.176C69.5984 124.659 69.4864 125.816 69.3264 126.648C69.177 127.48 68.9424 128.088 68.6224 128.472C68.3024 128.856 67.865 129.048 67.3104 129.048C67.225 129.048 67.1184 129.032 66.9904 129V128.296C67.0544 128.307 67.1504 128.312 67.2784 128.312C67.6624 128.312 67.961 128.12 68.1744 127.736C68.3984 127.341 68.5637 126.781 68.6704 126.056C68.777 125.32 68.8517 124.349 68.8944 123.144L68.9584 121.272H73.8064ZM79.3769 121.112C80.2515 121.112 80.9502 121.373 81.4729 121.896C82.0062 122.419 82.2729 123.171 82.2729 124.152V129H81.5049V127.784C81.2275 128.221 80.8489 128.563 80.3689 128.808C79.8889 129.043 79.3449 129.16 78.7369 129.16C77.9902 129.16 77.3609 128.979 76.8489 128.616C76.3369 128.243 76.0809 127.725 76.0809 127.064C76.0809 126.435 76.3262 125.933 76.8169 125.56C77.3075 125.187 77.9582 125 78.7689 125H81.4569V124.12C81.4569 123.384 81.2649 122.824 80.8809 122.44C80.4969 122.056 79.9795 121.864 79.3289 121.864C78.8382 121.864 78.4062 121.976 78.0329 122.2C77.6595 122.413 77.3075 122.733 76.9769 123.16L76.4169 122.712C77.1635 121.645 78.1502 121.112 79.3769 121.112ZM78.8169 128.456C79.2862 128.456 79.7235 128.355 80.1289 128.152C80.5342 127.949 80.8542 127.672 81.0889 127.32C81.3342 126.957 81.4569 126.557 81.4569 126.12V125.688H78.8489C78.2195 125.688 77.7395 125.805 77.4089 126.04C77.0782 126.264 76.9129 126.589 76.9129 127.016C76.9129 127.485 77.0995 127.843 77.4729 128.088C77.8462 128.333 78.2942 128.456 78.8169 128.456ZM91.9766 128.264V131.256H91.1766V129H84.5686V131.256H83.7686V128.264H84.5526C84.926 127.869 85.198 127.288 85.3686 126.52C85.5393 125.752 85.6513 124.653 85.7046 123.224L85.7686 121.272H90.7446V128.264H91.9766ZM85.4646 128.264H89.9446V122.008H86.5206L86.4726 123.24C86.3766 125.821 86.0406 127.496 85.4646 128.264ZM100.13 121.112V129H99.3141V122.76L94.4021 129.16H94.0661V121.272H94.8661V127.544L99.7941 121.112H100.13ZM103.097 121.112H103.433L107.097 125.688L110.761 121.112H111.097V129H110.281V122.92L107.273 126.68H106.921L103.897 122.904V129H103.097V121.112ZM120.115 121.112V129H119.299V122.76L114.387 129.16H114.051V121.272H114.851V127.544L119.779 121.112H120.115ZM127.002 121.112C127.716 121.112 128.367 121.293 128.954 121.656C129.54 122.008 129.999 122.493 130.33 123.112C130.671 123.72 130.842 124.392 130.842 125.128C130.842 125.875 130.671 126.557 130.33 127.176C129.999 127.784 129.54 128.269 128.954 128.632C128.367 128.984 127.716 129.16 127.002 129.16C126.351 129.16 125.743 129.016 125.178 128.728C124.612 128.429 124.18 128.024 123.882 127.512V131.88H123.082V121.272H123.85V122.824C124.138 122.301 124.564 121.885 125.13 121.576C125.706 121.267 126.33 121.112 127.002 121.112ZM126.922 128.408C127.508 128.408 128.036 128.269 128.506 127.992C128.975 127.704 129.343 127.309 129.61 126.808C129.876 126.307 130.01 125.752 130.01 125.144C130.01 124.536 129.876 123.981 129.61 123.48C129.343 122.979 128.975 122.584 128.506 122.296C128.036 122.008 127.508 121.864 126.922 121.864C126.388 121.864 125.887 121.981 125.418 122.216C124.959 122.451 124.586 122.813 124.298 123.304C124.02 123.795 123.882 124.403 123.882 125.128C123.882 125.864 124.02 126.477 124.298 126.968C124.586 127.459 124.959 127.821 125.418 128.056C125.887 128.291 126.388 128.408 126.922 128.408Z" fill="white"/>
<path d="M67.24 214.176C66.2267 214.176 65.2933 213.936 64.44 213.456C63.5973 212.976 62.9253 212.32 62.424 211.488C61.9333 210.656 61.688 209.733 61.688 208.72C61.688 207.707 61.9333 206.784 62.424 205.952C62.9253 205.12 63.5973 204.464 64.44 203.984C65.2933 203.504 66.2267 203.264 67.24 203.264C68.2107 203.264 69.0907 203.483 69.88 203.92C70.68 204.357 71.3093 204.949 71.768 205.696L70.488 206.64C70.1147 206.053 69.656 205.605 69.112 205.296C68.568 204.976 67.9493 204.816 67.256 204.816C66.5413 204.816 65.8907 204.987 65.304 205.328C64.728 205.659 64.2747 206.123 63.944 206.72C63.6133 207.317 63.448 207.984 63.448 208.72C63.448 209.456 63.6133 210.123 63.944 210.72C64.2747 211.317 64.728 211.787 65.304 212.128C65.8907 212.459 66.5413 212.624 67.256 212.624C67.9493 212.624 68.568 212.469 69.112 212.16C69.656 211.84 70.1147 211.387 70.488 210.8L71.768 211.744C71.32 212.491 70.696 213.083 69.896 213.52C69.1067 213.957 68.2213 214.176 67.24 214.176ZM81.6208 212.544V216.256H79.9888V214H74.2128V216.256H72.5648V212.544H73.4448C73.7754 212.192 74.0154 211.675 74.1648 210.992C74.3141 210.299 74.4048 209.381 74.4368 208.24L74.5008 206.144H80.3248V212.544H81.6208ZM75.1888 212.544H78.6448V207.6H76.0208L76.0048 208.4C75.9621 210.299 75.6901 211.68 75.1888 212.544ZM90.3036 210.624H84.4476C84.5543 211.264 84.837 211.771 85.2956 212.144C85.765 212.507 86.3356 212.688 87.0076 212.688C87.829 212.688 88.5916 212.379 89.2956 211.76L90.0956 212.912C89.1996 213.755 88.1543 214.176 86.9596 214.176C86.1596 214.176 85.4396 214 84.7996 213.648C84.1596 213.285 83.653 212.795 83.2796 212.176C82.917 211.547 82.7356 210.848 82.7356 210.08C82.7356 209.323 82.9116 208.629 83.2636 208C83.6263 207.371 84.117 206.875 84.7356 206.512C85.365 206.149 86.053 205.968 86.7996 205.968C87.493 205.968 88.1116 206.128 88.6556 206.448C89.2103 206.757 89.6423 207.184 89.9516 207.728C90.2716 208.272 90.4316 208.885 90.4316 209.568C90.4316 209.899 90.389 210.251 90.3036 210.624ZM86.7356 207.392C86.181 207.392 85.6956 207.568 85.2796 207.92C84.8743 208.261 84.6076 208.725 84.4796 209.312H88.7516C88.741 208.715 88.5383 208.245 88.1436 207.904C87.7596 207.563 87.2903 207.392 86.7356 207.392ZM98.7886 206.144V214H97.1086V207.6H94.5806L94.5646 208.384C94.5326 209.739 94.426 210.832 94.2446 211.664C94.074 212.485 93.802 213.099 93.4286 213.504C93.0553 213.899 92.554 214.096 91.9246 214.096C91.69 214.096 91.4873 214.064 91.3166 214V212.592C91.4446 212.613 91.5513 212.624 91.6366 212.624C92.106 212.624 92.442 212.267 92.6446 211.552C92.8473 210.827 92.9593 209.68 92.9806 208.112L93.0126 206.144H98.7886ZM101.248 206.144H102.944V214H101.248V206.144ZM108.448 214H106.4L103.008 209.792L106.16 206.144H108.144L104.992 209.728L108.448 214ZM112.834 205.968C113.804 205.968 114.583 206.251 115.17 206.816C115.756 207.381 116.05 208.192 116.05 209.248V214H114.482V213.12C114.194 213.461 113.836 213.723 113.41 213.904C112.983 214.085 112.503 214.176 111.97 214.176C111.148 214.176 110.487 213.968 109.986 213.552C109.484 213.136 109.234 212.587 109.234 211.904C109.234 211.221 109.495 210.677 110.018 210.272C110.54 209.867 111.244 209.664 112.13 209.664H114.354V209.152C114.354 208.608 114.204 208.192 113.906 207.904C113.618 207.616 113.207 207.472 112.674 207.472C112.236 207.472 111.847 207.568 111.506 207.76C111.164 207.952 110.828 208.245 110.498 208.64L109.522 207.648C109.916 207.083 110.396 206.661 110.962 206.384C111.527 206.107 112.151 205.968 112.834 205.968ZM112.322 212.88C112.887 212.88 113.367 212.704 113.762 212.352C114.156 212 114.354 211.557 114.354 211.024V210.88H112.338C111.89 210.88 111.543 210.96 111.298 211.12C111.063 211.28 110.946 211.52 110.946 211.84C110.946 212.171 111.074 212.427 111.33 212.608C111.586 212.789 111.916 212.88 112.322 212.88ZM127.352 209.856C127.747 210.048 128.046 210.309 128.248 210.64C128.462 210.96 128.568 211.317 128.568 211.712C128.568 212.491 128.291 213.099 127.736 213.536C127.192 213.963 126.44 214.176 125.48 214.176C124.104 214.176 123.038 213.68 122.28 212.688L123.304 211.68C123.56 211.989 123.854 212.235 124.184 212.416C124.526 212.597 124.931 212.688 125.4 212.688C125.88 212.688 126.248 212.592 126.504 212.4C126.771 212.197 126.904 211.931 126.904 211.6C126.904 211.291 126.782 211.045 126.536 210.864C126.291 210.672 125.939 210.576 125.48 210.576H124.568V209.232H125.432C125.795 209.232 126.072 209.152 126.264 208.992C126.456 208.832 126.552 208.613 126.552 208.336C126.552 208.069 126.446 207.856 126.232 207.696C126.03 207.536 125.742 207.456 125.368 207.456C124.931 207.456 124.563 207.536 124.264 207.696C123.966 207.845 123.694 208.059 123.448 208.336L122.424 207.328C122.755 206.912 123.176 206.581 123.688 206.336C124.211 206.091 124.798 205.968 125.448 205.968C126.302 205.968 126.974 206.165 127.464 206.56C127.955 206.944 128.2 207.488 128.2 208.192C128.2 208.544 128.126 208.864 127.976 209.152C127.838 209.429 127.63 209.664 127.352 209.856ZM133.553 205.968C134.523 205.968 135.302 206.251 135.889 206.816C136.475 207.381 136.769 208.192 136.769 209.248V214H135.201V213.12C134.913 213.461 134.555 213.723 134.129 213.904C133.702 214.085 133.222 214.176 132.689 214.176C131.867 214.176 131.206 213.968 130.705 213.552C130.203 213.136 129.953 212.587 129.953 211.904C129.953 211.221 130.214 210.677 130.737 210.272C131.259 209.867 131.963 209.664 132.849 209.664H135.073V209.152C135.073 208.608 134.923 208.192 134.625 207.904C134.337 207.616 133.926 207.472 133.393 207.472C132.955 207.472 132.566 207.568 132.225 207.76C131.883 207.952 131.547 208.245 131.217 208.64L130.241 207.648C130.635 207.083 131.115 206.661 131.681 206.384C132.246 206.107 132.87 205.968 133.553 205.968ZM133.041 212.88C133.606 212.88 134.086 212.704 134.481 212.352C134.875 212 135.073 211.557 135.073 211.024V210.88H133.057C132.609 210.88 132.262 210.96 132.017 211.12C131.782 211.28 131.664 211.52 131.664 211.84C131.664 212.171 131.793 212.427 132.049 212.608C132.305 212.789 132.635 212.88 133.041 212.88ZM139.123 206.144H140.819V214H139.123V206.144ZM146.323 214H144.275L140.883 209.792L144.035 206.144H146.019L142.867 209.728L146.323 214ZM154.195 206.144V214H152.515V207.6H149.987L149.971 208.384C149.939 209.739 149.832 210.832 149.651 211.664C149.48 212.485 149.208 213.099 148.835 213.504C148.462 213.899 147.96 214.096 147.331 214.096C147.096 214.096 146.894 214.064 146.723 214V212.592C146.851 212.613 146.958 212.624 147.043 212.624C147.512 212.624 147.848 212.267 148.051 211.552C148.254 210.827 148.366 209.68 148.387 208.112L148.419 206.144H154.195ZM163.55 205.968C164.286 205.968 164.963 206.149 165.582 206.512C166.201 206.875 166.691 207.371 167.054 208C167.417 208.629 167.598 209.317 167.598 210.064C167.598 210.811 167.417 211.499 167.054 212.128C166.691 212.757 166.201 213.259 165.582 213.632C164.963 213.995 164.281 214.176 163.534 214.176C162.851 214.176 162.222 214.021 161.646 213.712C161.081 213.403 160.611 212.976 160.238 212.432C159.875 211.888 159.651 211.28 159.566 210.608H158.35V214H156.654V206.144H158.35V209.152H159.63C159.758 208.533 160.009 207.984 160.382 207.504C160.755 207.024 161.214 206.651 161.758 206.384C162.313 206.107 162.91 205.968 163.55 205.968ZM163.518 212.624C163.966 212.624 164.371 212.512 164.734 212.288C165.097 212.064 165.379 211.76 165.582 211.376C165.795 210.981 165.902 210.549 165.902 210.08C165.902 209.6 165.795 209.163 165.582 208.768C165.379 208.373 165.097 208.064 164.734 207.84C164.371 207.616 163.971 207.504 163.534 207.504C163.086 207.504 162.681 207.616 162.318 207.84C161.955 208.064 161.673 208.373 161.47 208.768C161.267 209.163 161.166 209.6 161.166 210.08C161.166 210.56 161.267 210.997 161.47 211.392C161.673 211.776 161.955 212.08 162.318 212.304C162.681 212.517 163.081 212.624 163.518 212.624ZM175.721 206.144V214H174.041V211.072C173.571 211.275 172.958 211.376 172.201 211.376C171.219 211.376 170.446 211.099 169.881 210.544C169.315 209.979 169.033 209.179 169.033 208.144V206.144H170.713V208.048C170.713 209.264 171.321 209.872 172.536 209.872C173.102 209.872 173.603 209.781 174.041 209.6V206.144H175.721ZM185.257 210.624H179.401C179.507 211.264 179.79 211.771 180.249 212.144C180.718 212.507 181.289 212.688 181.961 212.688C182.782 212.688 183.545 212.379 184.249 211.76L185.049 212.912C184.153 213.755 183.107 214.176 181.913 214.176C181.113 214.176 180.393 214 179.753 213.648C179.113 213.285 178.606 212.795 178.233 212.176C177.87 211.547 177.689 210.848 177.689 210.08C177.689 209.323 177.865 208.629 178.217 208C178.579 207.371 179.07 206.875 179.689 206.512C180.318 206.149 181.006 205.968 181.753 205.968C182.446 205.968 183.065 206.128 183.609 206.448C184.163 206.757 184.595 207.184 184.905 207.728C185.225 208.272 185.385 208.885 185.385 209.568C185.385 209.899 185.342 210.251 185.257 210.624ZM181.689 207.392C181.134 207.392 180.649 207.568 180.233 207.92C179.827 208.261 179.561 208.725 179.433 209.312H183.705C183.694 208.715 183.491 208.245 183.097 207.904C182.713 207.563 182.243 207.392 181.689 207.392ZM187.326 206.144H189.022V209.152H192.398V206.144H194.078V214H192.398V210.608H189.022V214H187.326V206.144ZM199.553 205.968C200.523 205.968 201.302 206.251 201.889 206.816C202.475 207.381 202.769 208.192 202.769 209.248V214H201.201V213.12C200.913 213.461 200.555 213.723 200.129 213.904C199.702 214.085 199.222 214.176 198.689 214.176C197.867 214.176 197.206 213.968 196.705 213.552C196.203 213.136 195.953 212.587 195.953 211.904C195.953 211.221 196.214 210.677 196.737 210.272C197.259 209.867 197.963 209.664 198.849 209.664H201.073V209.152C201.073 208.608 200.923 208.192 200.625 207.904C200.337 207.616 199.926 207.472 199.393 207.472C198.955 207.472 198.566 207.568 198.225 207.76C197.883 207.952 197.547 208.245 197.217 208.64L196.241 207.648C196.635 207.083 197.115 206.661 197.681 206.384C198.246 206.107 198.87 205.968 199.553 205.968ZM199.041 212.88C199.606 212.88 200.086 212.704 200.481 212.352C200.875 212 201.073 211.557 201.073 211.024V210.88H199.057C198.609 210.88 198.262 210.96 198.017 211.12C197.782 211.28 197.664 211.52 197.664 211.84C197.664 212.171 197.793 212.427 198.049 212.608C198.305 212.789 198.635 212.88 199.041 212.88ZM205.475 203.44H207.491L207.187 210.4H205.795L205.475 203.44ZM206.499 214.176C206.147 214.176 205.848 214.059 205.603 213.824C205.368 213.589 205.251 213.296 205.251 212.944C205.251 212.581 205.368 212.283 205.603 212.048C205.848 211.813 206.147 211.696 206.499 211.696C206.851 211.696 207.144 211.813 207.379 212.048C207.613 212.283 207.731 212.581 207.731 212.944C207.731 213.296 207.613 213.589 207.379 213.824C207.144 214.059 206.851 214.176 206.499 214.176Z" fill="white"/>
<circle cx="43.5" cy="208.5" r="2.5" fill="#FF4261"/>
<circle cx="228.5" cy="208.5" r="2.5" fill="#FF4261"/>
<defs>
<filter id="filter0_d_145_4" x="0" y="0" width="252" height="115" filterUnits="userSpaceOnUse" color-interpolation-filters="sRGB">
<feFlood flood-opacity="0" result="BackgroundImageFix"/>
<feColorMatrix in="SourceAlpha" type="matrix" values="0 0 0 0 0 0 0 0 0 0 0 0 0 0 0 0 0 0 127 0" result="hardAlpha"/>
<feOffset dy="4"/>
<feGaussianBlur stdDeviation="10"/>
<feComposite in2="hardAlpha" operator="out"/>
<feColorMatrix type="matrix" values="0 0 0 0 0 0 0 0 0 0 0 0 0 0 0 0 0 0 0.05 0"/>
<feBlend mode="normal" in2="BackgroundImageFix" result="effect1_dropShadow_145_4"/>
<feBlend mode="normal" in="SourceGraphic" in2="effect1_dropShadow_145_4" result="shape"/>
</filter>
<filter id="filter1_d_145_4" x="20" y="89" width="252" height="115" filterUnits="userSpaceOnUse" color-interpolation-filters="sRGB">
<feFlood flood-opacity="0" result="BackgroundImageFix"/>
<feColorMatrix in="SourceAlpha" type="matrix" values="0 0 0 0 0 0 0 0 0 0 0 0 0 0 0 0 0 0 127 0" result="hardAlpha"/>
<feOffset dy="4"/>
<feGaussianBlur stdDeviation="10"/>
<feComposite in2="hardAlpha" operator="out"/>
<feColorMatrix type="matrix" values="0 0 0 0 0 0 0 0 0 0 0 0 0 0 0 0 0 0 0.05 0"/>
<feBlend mode="normal" in2="BackgroundImageFix" result="effect1_dropShadow_145_4"/>
<feBlend mode="normal" in="SourceGraphic" in2="effect1_dropShadow_145_4" result="shape"/>
</filter>
</defs>
</svg>
