<svg width="308" height="204" viewBox="0 0 308 204" fill="none" xmlns="http://www.w3.org/2000/svg">
<g filter="url(#filter0_d_145_3)">
<rect x="20.5" y="16.5" width="267" height="36" rx="18" stroke="#5C5C5C" shape-rendering="crispEdges"/>
</g>
<path d="M38.328 29.44H46.872V40H45.176V30.96H40.024V40H38.328V29.44ZM55.8668 32.144V40H54.1868V33.6H51.6588L51.6428 34.384C51.6108 35.7387 51.5041 36.832 51.3228 37.664C51.1521 38.4853 50.8801 39.0987 50.5068 39.504C50.1334 39.8987 49.6321 40.096 49.0028 40.096C48.7681 40.096 48.5654 40.064 48.3948 40V38.592C48.5228 38.6133 48.6294 38.624 48.7148 38.624C49.1841 38.624 49.5201 38.2667 49.7228 37.552C49.9254 36.8267 50.0374 35.68 50.0588 34.112L50.0908 32.144H55.8668ZM61.9578 40.176C61.2004 40.176 60.5018 39.9947 59.8618 39.632C59.2324 39.2587 58.7311 38.7573 58.3578 38.128C57.9951 37.4987 57.8138 36.8107 57.8138 36.064C57.8138 35.3067 57.9951 34.6187 58.3578 34C58.7311 33.3707 59.2324 32.8747 59.8618 32.512C60.5018 32.1493 61.2004 31.968 61.9578 31.968C62.7258 31.968 63.4298 32.1493 64.0698 32.512C64.7098 32.8747 65.2111 33.3707 65.5738 34C65.9471 34.6293 66.1337 35.3173 66.1337 36.064C66.1337 36.8107 65.9471 37.4987 65.5738 38.128C65.2111 38.7573 64.7098 39.2587 64.0698 39.632C63.4298 39.9947 62.7258 40.176 61.9578 40.176ZM61.9578 38.624C62.4164 38.624 62.8324 38.512 63.2058 38.288C63.5791 38.064 63.8724 37.76 64.0858 37.376C64.2991 36.9813 64.4058 36.5493 64.4058 36.08C64.4058 35.6 64.2991 35.1627 64.0858 34.768C63.8724 34.3733 63.5791 34.064 63.2058 33.84C62.8324 33.616 62.4218 33.504 61.9738 33.504C61.5151 33.504 61.0991 33.616 60.7258 33.84C60.3524 34.064 60.0591 34.3733 59.8458 34.768C59.6324 35.1627 59.5258 35.6 59.5258 36.08C59.5258 36.56 59.6324 36.9973 59.8458 37.392C60.0591 37.776 60.3471 38.08 60.7098 38.304C61.0831 38.5173 61.4991 38.624 61.9578 38.624ZM78.5878 40H68.0758V32.144H69.7558V38.544H72.6678V32.144H74.3478V38.544H77.2598V32.144H78.9398V38.544H80.2198V42.256H78.5878V40ZM85.0056 31.968C85.9763 31.968 86.755 32.2507 87.3416 32.816C87.9283 33.3813 88.2216 34.192 88.2216 35.248V40H86.6536V39.12C86.3656 39.4613 86.0083 39.7227 85.5816 39.904C85.155 40.0853 84.675 40.176 84.1416 40.176C83.3203 40.176 82.659 39.968 82.1576 39.552C81.6563 39.136 81.4056 38.5867 81.4056 37.904C81.4056 37.2213 81.667 36.6773 82.1896 36.272C82.7123 35.8667 83.4163 35.664 84.3016 35.664H86.5256V35.152C86.5256 34.608 86.3763 34.192 86.0776 33.904C85.7896 33.616 85.379 33.472 84.8456 33.472C84.4083 33.472 84.019 33.568 83.6776 33.76C83.3363 33.952 83.0003 34.2453 82.6696 34.64L81.6936 33.648C82.0883 33.0827 82.5683 32.6613 83.1336 32.384C83.699 32.1067 84.323 31.968 85.0056 31.968ZM84.4936 38.88C85.059 38.88 85.539 38.704 85.9336 38.352C86.3283 38 86.5256 37.5573 86.5256 37.024V36.88H84.5096C84.0616 36.88 83.715 36.96 83.4696 37.12C83.235 37.28 83.1176 37.52 83.1176 37.84C83.1176 38.1707 83.2456 38.4267 83.5016 38.608C83.7576 38.7893 84.0883 38.88 84.4936 38.88ZM98.4958 38.544V42.256H96.8638V40H91.0878V42.256H89.4398V38.544H90.3198C90.6504 38.192 90.8904 37.6747 91.0398 36.992C91.1891 36.2987 91.2798 35.3813 91.3118 34.24L91.3758 32.144H97.1998V38.544H98.4958ZM92.0638 38.544H95.5198V33.6H92.8958L92.8798 34.4C92.8371 36.2987 92.5651 37.68 92.0638 38.544ZM100.279 32.144H101.975V40H100.279V32.144ZM107.479 40H105.431L102.039 35.792L105.191 32.144H107.175L104.023 35.728L107.479 40ZM111.865 31.968C112.836 31.968 113.614 32.2507 114.201 32.816C114.788 33.3813 115.081 34.192 115.081 35.248V40H113.513V39.12C113.225 39.4613 112.868 39.7227 112.441 39.904C112.014 40.0853 111.534 40.176 111.001 40.176C110.18 40.176 109.518 39.968 109.017 39.552C108.516 39.136 108.265 38.5867 108.265 37.904C108.265 37.2213 108.526 36.6773 109.049 36.272C109.572 35.8667 110.276 35.664 111.161 35.664H113.385V35.152C113.385 34.608 113.236 34.192 112.937 33.904C112.649 33.616 112.238 33.472 111.705 33.472C111.268 33.472 110.878 33.568 110.537 33.76C110.196 33.952 109.86 34.2453 109.529 34.64L108.553 33.648C108.948 33.0827 109.428 32.6613 109.993 32.384C110.558 32.1067 111.182 31.968 111.865 31.968ZM111.353 38.88C111.918 38.88 112.398 38.704 112.793 38.352C113.188 38 113.385 37.5573 113.385 37.024V36.88H111.369C110.921 36.88 110.574 36.96 110.329 37.12C110.094 37.28 109.977 37.52 109.977 37.84C109.977 38.1707 110.105 38.4267 110.361 38.608C110.617 38.7893 110.948 38.88 111.353 38.88ZM121.92 32.144H123.616V35.152H126.992V32.144H128.672V40H126.992V36.608H123.616V40H121.92V32.144ZM134.146 31.968C135.117 31.968 135.896 32.2507 136.482 32.816C137.069 33.3813 137.362 34.192 137.362 35.248V40H135.794V39.12C135.506 39.4613 135.149 39.7227 134.722 39.904C134.296 40.0853 133.816 40.176 133.282 40.176C132.461 40.176 131.8 39.968 131.298 39.552C130.797 39.136 130.546 38.5867 130.546 37.904C130.546 37.2213 130.808 36.6773 131.33 36.272C131.853 35.8667 132.557 35.664 133.442 35.664H135.666V35.152C135.666 34.608 135.517 34.192 135.218 33.904C134.93 33.616 134.52 33.472 133.986 33.472C133.549 33.472 133.16 33.568 132.818 33.76C132.477 33.952 132.141 34.2453 131.81 34.64L130.834 33.648C131.229 33.0827 131.709 32.6613 132.274 32.384C132.84 32.1067 133.464 31.968 134.146 31.968ZM133.634 38.88C134.2 38.88 134.68 38.704 135.074 38.352C135.469 38 135.666 37.5573 135.666 37.024V36.88H133.65C133.202 36.88 132.856 36.96 132.61 37.12C132.376 37.28 132.258 37.52 132.258 37.84C132.258 38.1707 132.386 38.4267 132.642 38.608C132.898 38.7893 133.229 38.88 133.634 38.88ZM152.361 29.44V40H150.665V30.96H147.081C147.017 33.296 146.862 35.1307 146.617 36.464C146.371 37.7867 146.019 38.7307 145.561 39.296C145.102 39.8507 144.494 40.128 143.737 40.128C143.417 40.128 143.161 40.0853 142.969 40V38.544C143.011 38.5653 143.161 38.576 143.417 38.576C143.897 38.576 144.281 38.2987 144.569 37.744C144.857 37.1893 145.065 36.3733 145.193 35.296C145.331 34.2187 145.417 32.8427 145.449 31.168L145.465 29.44H152.361ZM161.897 36.624H156.041C156.148 37.264 156.431 37.7707 156.889 38.144C157.359 38.5067 157.929 38.688 158.601 38.688C159.423 38.688 160.185 38.3787 160.889 37.76L161.689 38.912C160.793 39.7547 159.748 40.176 158.553 40.176C157.753 40.176 157.033 40 156.393 39.648C155.753 39.2853 155.247 38.7947 154.873 38.176C154.511 37.5467 154.329 36.848 154.329 36.08C154.329 35.3227 154.505 34.6293 154.857 34C155.22 33.3707 155.711 32.8747 156.329 32.512C156.959 32.1493 157.647 31.968 158.393 31.968C159.087 31.968 159.705 32.128 160.249 32.448C160.804 32.7573 161.236 33.184 161.545 33.728C161.865 34.272 162.025 34.8853 162.025 35.568C162.025 35.8987 161.983 36.2507 161.897 36.624ZM158.329 33.392C157.775 33.392 157.289 33.568 156.873 33.92C156.468 34.2613 156.201 34.7253 156.073 35.312H160.345C160.335 34.7147 160.132 34.2453 159.737 33.904C159.353 33.5627 158.884 33.392 158.329 33.392ZM163.966 32.144H165.662V35.152H169.038V32.144H170.718V40H169.038V36.608H165.662V40H163.966V32.144ZM180.049 31.968V40H178.353V35.12L173.777 40.176H173.185V32.144H174.881V37.056L179.473 31.968H180.049ZM182.513 32.144H184.209V35.152H187.585V32.144H189.265V40H187.585V36.608H184.209V40H182.513V32.144ZM195.38 40.176C194.612 40.176 193.908 39.9947 193.268 39.632C192.639 39.2693 192.137 38.7733 191.764 38.144C191.401 37.5147 191.22 36.8213 191.22 36.064C191.22 35.3067 191.401 34.6187 191.764 34C192.137 33.3707 192.644 32.8747 193.284 32.512C193.924 32.1493 194.623 31.968 195.38 31.968C196.105 31.968 196.751 32.1333 197.316 32.464C197.892 32.784 198.351 33.2267 198.692 33.792L197.508 34.72C196.943 33.92 196.239 33.52 195.396 33.52C194.927 33.52 194.505 33.632 194.132 33.856C193.759 34.08 193.465 34.3893 193.252 34.784C193.039 35.168 192.932 35.5947 192.932 36.064C192.932 36.544 193.039 36.9813 193.252 37.376C193.465 37.76 193.759 38.064 194.132 38.288C194.505 38.512 194.927 38.624 195.396 38.624C196.228 38.624 196.932 38.2293 197.508 37.44L198.692 38.352C198.34 38.9173 197.876 39.3653 197.3 39.696C196.735 40.016 196.095 40.176 195.38 40.176ZM200.56 32.144H202.256V40H200.56V32.144ZM207.76 40H205.712L202.32 35.792L205.472 32.144H207.456L204.304 35.728L207.76 40ZM212.614 40.176C211.857 40.176 211.158 39.9947 210.518 39.632C209.889 39.2587 209.387 38.7573 209.014 38.128C208.651 37.4987 208.47 36.8107 208.47 36.064C208.47 35.3067 208.651 34.6187 209.014 34C209.387 33.3707 209.889 32.8747 210.518 32.512C211.158 32.1493 211.857 31.968 212.614 31.968C213.382 31.968 214.086 32.1493 214.726 32.512C215.366 32.8747 215.867 33.3707 216.23 34C216.603 34.6293 216.79 35.3173 216.79 36.064C216.79 36.8107 216.603 37.4987 216.23 38.128C215.867 38.7573 215.366 39.2587 214.726 39.632C214.086 39.9947 213.382 40.176 212.614 40.176ZM212.614 38.624C213.073 38.624 213.489 38.512 213.862 38.288C214.235 38.064 214.529 37.76 214.742 37.376C214.955 36.9813 215.062 36.5493 215.062 36.08C215.062 35.6 214.955 35.1627 214.742 34.768C214.529 34.3733 214.235 34.064 213.862 33.84C213.489 33.616 213.078 33.504 212.63 33.504C212.171 33.504 211.755 33.616 211.382 33.84C211.009 34.064 210.715 34.3733 210.502 34.768C210.289 35.1627 210.182 35.6 210.182 36.08C210.182 36.56 210.289 36.9973 210.502 37.392C210.715 37.776 211.003 38.08 211.366 38.304C211.739 38.5173 212.155 38.624 212.614 38.624ZM218.732 31.968H219.324L223.02 36.24L226.732 31.968H227.292V40H225.612V35.456L223.308 38.128H222.716L220.428 35.472V40H218.732V31.968Z" fill="white"/>
<path d="M265.708 40.0417C269.206 40.0417 272.042 37.2061 272.042 33.7083C272.042 30.2105 269.206 27.375 265.708 27.375C262.211 27.375 259.375 30.2105 259.375 33.7083C259.375 37.2061 262.211 40.0417 265.708 40.0417Z" stroke="#FF4261" stroke-width="2" stroke-linecap="round" stroke-linejoin="round"/>
<path d="M273.625 41.625L270.181 38.1813" stroke="#FF4261" stroke-width="2" stroke-linecap="round" stroke-linejoin="round"/>
<rect x="20" y="69" width="268" height="135" rx="20" fill="#2D2D2D"/>
<rect x="139" y="93" width="135" height="16" rx="8" fill="#5C5C5C"/>
<rect x="139" y="118" width="135" height="12" rx="6" fill="#5C5C5C"/>
<rect x="139" y="139" width="135" height="12" rx="6" fill="#5C5C5C"/>
<rect x="139" y="160" width="135" height="12" rx="6" fill="#5C5C5C"/>
<rect x="34" y="87" width="95" height="95" rx="15" fill="#E7E7E7"/>
<defs>
<filter id="filter0_d_145_3" x="0" y="0" width="308" height="77" filterUnits="userSpaceOnUse" color-interpolation-filters="sRGB">
<feFlood flood-opacity="0" result="BackgroundImageFix"/>
<feColorMatrix in="SourceAlpha" type="matrix" values="0 0 0 0 0 0 0 0 0 0 0 0 0 0 0 0 0 0 127 0" result="hardAlpha"/>
<feOffset dy="4"/>
<feGaussianBlur stdDeviation="10"/>
<feComposite in2="hardAlpha" operator="out"/>
<feColorMatrix type="matrix" values="0 0 0 0 0 0 0 0 0 0 0 0 0 0 0 0 0 0 0.05 0"/>
<feBlend mode="normal" in2="BackgroundImageFix" result="effect1_dropShadow_145_3"/>
<feBlend mode="normal" in="SourceGraphic" in2="effect1_dropShadow_145_3" result="shape"/>
</filter>
</defs>
</svg>
