<svg width="67" height="67" viewBox="0 0 67 67" fill="none" xmlns="http://www.w3.org/2000/svg">
<path d="M54.4375 65.9531H12.5625C9.67627 65.9531 7.32812 63.605 7.32812 60.7188V6.28125C7.32812 3.39502 9.67627 1.04688 12.5625 1.04688H33.8596C35.2577 1.04688 36.5726 1.59177 37.5603 2.58002L58.1387 23.1584C59.1275 24.1472 59.6719 25.461 59.6719 26.8591V60.7188C59.6719 63.605 57.3237 65.9531 54.4375 65.9531ZM12.5625 3.14062C10.8304 3.14062 9.42188 4.5492 9.42188 6.28125V60.7188C9.42188 62.4508 10.8304 63.8594 12.5625 63.8594H54.4375C56.1696 63.8594 57.5781 62.4508 57.5781 60.7188V26.8591C57.5781 26.0326 57.2426 25.2234 56.6584 24.6387L36.08 4.0603C35.487 3.46725 34.6981 3.14062 33.8596 3.14062H12.5625Z" fill="#FF4261"/>
<path d="M49.8365 42.0425C49.7998 41.7755 49.5852 41.4405 49.3549 41.2155C48.6954 40.5664 47.2454 40.2262 45.0365 40.1948C43.5395 40.1791 41.7389 40.3099 39.844 40.5769C38.9961 40.0901 38.1219 39.5562 37.4362 38.9123C35.5885 37.1902 34.0496 34.7981 33.0865 32.1652C33.1493 31.9192 33.2016 31.7046 33.254 31.4848C33.254 31.4848 34.2904 25.5804 34.0182 23.5809C33.9815 23.3087 33.9554 23.2302 33.8821 23.0155L33.7931 22.7852C33.5104 22.1309 32.9556 21.44 32.0867 21.4766L31.5737 21.4609H31.5632C30.5897 21.4609 29.8045 21.9582 29.5951 22.6963C28.967 25.0203 29.6161 28.5012 30.7938 33.0027L30.4902 33.7355C29.6475 35.7979 28.5901 37.8707 27.6584 39.6975L27.538 39.933C26.554 41.8541 25.6641 43.4872 24.8528 44.8691L24.0205 45.3087C23.9577 45.3402 22.5287 46.0991 22.1937 46.298C19.3515 47.9992 17.4671 49.9255 17.153 51.4539C17.0536 51.9459 17.1268 52.5688 17.6346 52.8567L18.4407 53.265C18.7914 53.4377 19.163 53.5267 19.5399 53.5267C21.5656 53.5267 23.9158 51.0037 27.1559 45.3506C30.8932 44.1362 35.154 43.1208 38.8861 42.5659C41.7284 44.1624 45.225 45.2773 47.4339 45.2773C47.8265 45.2773 48.1667 45.2407 48.4389 45.1674C48.8629 45.0523 49.2188 44.8115 49.4386 44.487C49.8679 43.8431 49.9516 42.9533 49.8365 42.0425ZM19.1002 51.993C19.4666 50.9828 20.9322 48.9833 23.094 47.2141C23.2301 47.1041 23.5651 46.7901 23.8687 46.497C21.6075 50.1034 20.0947 51.5377 19.1002 51.993ZM31.9035 22.5078C32.5525 22.5078 32.9242 24.1462 32.9556 25.6851C32.987 27.224 32.6258 28.3023 32.1809 29.1031C31.8093 27.9202 31.6313 26.0567 31.6313 24.8371C31.6313 24.8371 31.6051 22.5078 31.9035 22.5078ZM28.0824 43.5186C28.5378 42.7073 29.0089 41.8488 29.4904 40.9433C30.6682 38.7187 31.4115 36.9809 31.9611 35.5519C33.0603 37.5514 34.4317 39.2526 36.0386 40.6135C36.2428 40.781 36.4574 40.9538 36.6772 41.1265C33.4057 41.7703 30.574 42.5607 28.0824 43.5186ZM48.7215 43.3354C48.5226 43.4558 47.9521 43.5291 47.5857 43.5291C46.4027 43.5291 44.9318 42.9899 42.8747 42.1053C43.6651 42.0477 44.3927 42.0163 45.0418 42.0163C46.23 42.0163 46.5807 42.0111 47.7479 42.3095C48.91 42.6078 48.9257 43.2098 48.7215 43.3354Z" fill="#FF4261"/>
</svg>
